<svg width="10" height="13" viewBox="0 0 10 13" fill="none" xmlns="http://www.w3.org/2000/svg">
<path d="M7.72094 5.96656C7.59885 5.84448 7.40114 5.84448 7.27906 5.96656L4.58323 8.6624L1.8876 5.96656C1.76552 5.84448 1.56781 5.84448 1.44573 5.96656L0.0915625 7.32073C-0.0305208 7.44281 -0.0305208 7.64052 0.0915625 7.7626L4.3624 12.0334C4.42323 12.0947 4.50323 12.1251 4.58323 12.1251C4.66323 12.1251 4.74323 12.0947 4.80427 12.0336L9.0751 7.76281C9.19719 7.64073 9.19719 7.44302 9.0751 7.32094L7.72094 5.96656Z" fill="white"/>
<path d="M7.72094 0.0915625C7.59885 -0.0305208 7.40114 -0.0305208 7.27906 0.0915625L4.58323 2.7874L1.8876 0.0915625C1.76552 -0.0305208 1.56781 -0.0305208 1.44573 0.0915625L0.0915625 1.44573C-0.0305208 1.56781 -0.0305208 1.76552 0.0915625 1.8876L4.3624 6.15844C4.42323 6.21969 4.50323 6.2501 4.58323 6.2501C4.66323 6.2501 4.74323 6.21969 4.80427 6.15865L9.0751 1.88781C9.19719 1.76573 9.19719 1.56802 9.0751 1.44594L7.72094 0.0915625Z" fill="white"/>
</svg>
