<svg width="284" height="112" viewBox="0 0 284 112" fill="none" xmlns="http://www.w3.org/2000/svg">
<mask id="mask0_53_77718" style="mask-type:alpha" maskUnits="userSpaceOnUse" x="0" y="0" width="284" height="112">
<rect x="2.5" y="2.5" width="279" height="107" stroke="black" stroke-width="5"/>
</mask>
<g mask="url(#mask0_53_77718)">
<rect x="-215.812" y="206.609" width="307.746" height="3.37441" transform="rotate(-45 -215.812 206.609)" fill="#1D88DD"/>
<rect x="-207.039" y="206.609" width="307.746" height="3.37441" transform="rotate(-45 -207.039 206.609)" fill="#1D88DD"/>
<rect x="-198.266" y="206.609" width="307.746" height="3.37441" transform="rotate(-45 -198.266 206.609)" fill="#1D88DD"/>
<rect x="-189.492" y="206.609" width="307.746" height="3.37441" transform="rotate(-45 -189.492 206.609)" fill="#1D88DD"/>
<rect x="-180.719" y="206.609" width="307.746" height="3.37441" transform="rotate(-45 -180.719 206.609)" fill="#1D88DD"/>
<rect x="-171.945" y="206.609" width="307.746" height="3.37441" transform="rotate(-45 -171.945 206.609)" fill="#1D88DD"/>
<rect x="-163.172" y="206.609" width="307.746" height="3.37441" transform="rotate(-45 -163.172 206.609)" fill="#1D88DD"/>
<rect x="-154.398" y="206.609" width="307.746" height="3.37441" transform="rotate(-45 -154.398 206.609)" fill="#1D88DD"/>
<rect x="-145.625" y="206.609" width="307.746" height="3.37441" transform="rotate(-45 -145.625 206.609)" fill="#1D88DD"/>
<rect x="-136.852" y="206.609" width="307.746" height="3.37441" transform="rotate(-45 -136.852 206.609)" fill="#1D88DD"/>
<rect x="-128.078" y="206.609" width="307.746" height="3.37441" transform="rotate(-45 -128.078 206.609)" fill="#1D88DD"/>
<rect x="-119.305" y="206.609" width="307.746" height="3.37441" transform="rotate(-45 -119.305 206.609)" fill="#1D88DD"/>
<rect x="-110.531" y="206.609" width="307.746" height="3.37441" transform="rotate(-45 -110.531 206.609)" fill="#1D88DD"/>
<rect x="-101.758" y="206.609" width="307.746" height="3.37441" transform="rotate(-45 -101.758 206.609)" fill="#1D88DD"/>
<rect x="-92.9844" y="206.609" width="307.746" height="3.37441" transform="rotate(-45 -92.9844 206.609)" fill="#1D88DD"/>
<rect x="-84.2109" y="206.609" width="307.746" height="3.37441" transform="rotate(-45 -84.2109 206.609)" fill="#1D88DD"/>
<rect x="-75.4375" y="206.609" width="307.746" height="3.37441" transform="rotate(-45 -75.4375 206.609)" fill="#1D88DD"/>
<rect x="-66.6641" y="206.609" width="307.746" height="3.37441" transform="rotate(-45 -66.6641 206.609)" fill="#1D88DD"/>
<rect x="-57.8906" y="206.609" width="307.746" height="3.37441" transform="rotate(-45 -57.8906 206.609)" fill="#1D88DD"/>
<rect x="-49.1172" y="206.609" width="307.746" height="3.37441" transform="rotate(-45 -49.1172 206.609)" fill="#1D88DD"/>
<rect x="-40.3438" y="206.609" width="307.746" height="3.37441" transform="rotate(-45 -40.3438 206.609)" fill="#1D88DD"/>
<rect x="-31.5703" y="206.609" width="307.746" height="3.37441" transform="rotate(-45 -31.5703 206.609)" fill="#1D88DD"/>
<rect x="-22.7969" y="206.609" width="307.746" height="3.37441" transform="rotate(-45 -22.7969 206.609)" fill="#1D88DD"/>
<rect x="-14.0234" y="206.609" width="307.746" height="3.37441" transform="rotate(-45 -14.0234 206.609)" fill="#1D88DD"/>
<rect x="-5.25" y="206.609" width="307.746" height="3.37441" transform="rotate(-45 -5.25 206.609)" fill="#1D88DD"/>
<rect x="3.52344" y="206.609" width="307.746" height="3.37441" transform="rotate(-45 3.52344 206.609)" fill="#1D88DD"/>
<rect x="12.2969" y="206.609" width="307.746" height="3.37441" transform="rotate(-45 12.2969 206.609)" fill="#1D88DD"/>
<rect x="21.0703" y="206.609" width="307.746" height="3.37441" transform="rotate(-45 21.0703 206.609)" fill="#1D88DD"/>
<rect x="29.8438" y="206.609" width="307.746" height="3.37441" transform="rotate(-45 29.8438 206.609)" fill="#1D88DD"/>
<rect x="38.6172" y="206.609" width="307.746" height="3.37441" transform="rotate(-45 38.6172 206.609)" fill="#1D88DD"/>
<rect x="47.3906" y="206.609" width="307.746" height="3.37441" transform="rotate(-45 47.3906 206.609)" fill="#1D88DD"/>
<rect x="56.1641" y="206.609" width="307.746" height="3.37441" transform="rotate(-45 56.1641 206.609)" fill="#1D88DD"/>
<rect x="64.9395" y="206.609" width="307.746" height="3.37441" transform="rotate(-45 64.9395 206.609)" fill="#1D88DD"/>
<rect x="73.7129" y="206.609" width="307.746" height="3.37441" transform="rotate(-45 73.7129 206.609)" fill="#1D88DD"/>
<rect x="82.4844" y="206.609" width="307.746" height="3.37441" transform="rotate(-45 82.4844 206.609)" fill="#1D88DD"/>
<rect x="91.2578" y="206.609" width="307.746" height="3.37441" transform="rotate(-45 91.2578 206.609)" fill="#1D88DD"/>
<rect x="100.031" y="206.609" width="307.746" height="3.37441" transform="rotate(-45 100.031 206.609)" fill="#1D88DD"/>
<rect x="108.805" y="206.609" width="307.746" height="3.37441" transform="rotate(-45 108.805 206.609)" fill="#1D88DD"/>
<rect x="117.578" y="206.609" width="307.746" height="3.37441" transform="rotate(-45 117.578 206.609)" fill="#1D88DD"/>
<rect x="126.352" y="206.609" width="307.746" height="3.37441" transform="rotate(-45 126.352 206.609)" fill="#1D88DD"/>
<rect x="135.125" y="206.609" width="307.746" height="3.37441" transform="rotate(-45 135.125 206.609)" fill="#1D88DD"/>
<rect x="143.898" y="206.609" width="307.746" height="3.37441" transform="rotate(-45 143.898 206.609)" fill="#1D88DD"/>
<rect x="152.672" y="206.609" width="307.746" height="3.37441" transform="rotate(-45 152.672 206.609)" fill="#1D88DD"/>
<rect x="161.445" y="206.609" width="307.746" height="3.37441" transform="rotate(-45 161.445 206.609)" fill="#1D88DD"/>
<rect x="170.219" y="206.609" width="307.746" height="3.37441" transform="rotate(-45 170.219 206.609)" fill="#1D88DD"/>
<rect x="178.994" y="206.609" width="307.746" height="3.37441" transform="rotate(-45 178.994 206.609)" fill="#1D88DD"/>
<rect x="187.768" y="206.609" width="307.746" height="3.37441" transform="rotate(-45 187.768 206.609)" fill="#1D88DD"/>
<rect x="196.541" y="206.609" width="307.746" height="3.37441" transform="rotate(-45 196.541 206.609)" fill="#1D88DD"/>
<rect x="205.314" y="206.609" width="307.746" height="3.37441" transform="rotate(-45 205.314 206.609)" fill="#1D88DD"/>
<rect x="214.088" y="206.609" width="307.746" height="3.37441" transform="rotate(-45 214.088 206.609)" fill="#1D88DD"/>
<rect x="222.859" y="206.609" width="307.746" height="3.37441" transform="rotate(-45 222.859 206.609)" fill="#1D88DD"/>
<rect x="231.633" y="206.609" width="307.746" height="3.37441" transform="rotate(-45 231.633 206.609)" fill="#1D88DD"/>
<rect x="240.406" y="206.609" width="307.746" height="3.37441" transform="rotate(-45 240.406 206.609)" fill="#1D88DD"/>
<rect x="249.18" y="206.609" width="307.746" height="3.37441" transform="rotate(-45 249.18 206.609)" fill="#1D88DD"/>
<rect x="257.955" y="206.609" width="307.746" height="3.37441" transform="rotate(-45 257.955 206.609)" fill="#1D88DD"/>
<rect x="266.729" y="206.609" width="307.746" height="3.37441" transform="rotate(-45 266.729 206.609)" fill="#1D88DD"/>
<rect x="274.805" y="206.609" width="307.746" height="3.37441" transform="rotate(-45 274.805 206.609)" fill="#1D88DD"/>
<rect x="282.881" y="206.609" width="307.746" height="3.37441" transform="rotate(-45 282.881 206.609)" fill="#1D88DD"/>
</g>
</svg>
