<!-- icon666.com - MILLIONS vector ICONS FREE --><svg viewBox="0 -17 511.99944 511" xmlns="http://www.w3.org/2000/svg"><path  fill="#f05a28"  d="m258.277344 154.347656c20.945312 0 37.988281-17.042968 37.988281-37.992187 0-20.945313-17.042969-37.988281-37.988281-37.988281-20.949219 0-37.992188 17.042968-37.992188 37.988281 0 20.949219 17.042969 37.992187 37.992188 37.992187zm0-45.976562c4.402344 0 7.984375 3.582031 7.984375 7.988281 0 4.402344-3.582031 7.988281-7.984375 7.988281-4.40625 0-7.992188-3.585937-7.992188-7.988281 0-4.40625 3.585938-7.988281 7.992188-7.988281zm0 0"></path><path  fill="#f05a28"  d="m360.871094 180.964844c-20.949219 0-37.992188 17.039062-37.992188 37.988281 0 20.945313 17.042969 37.988281 37.992188 37.988281 20.945312 0 37.988281-17.042968 37.988281-37.988281 0-20.949219-17.042969-37.988281-37.988281-37.988281zm0 45.976562c-4.40625 0-7.992188-3.582031-7.992188-7.988281s3.585938-7.988281 7.992188-7.988281c4.402344 0 7.988281 3.582031 7.988281 7.988281s-3.585937 7.988281-7.988281 7.988281zm0 0"></path><path  fill="#f05a28"  d="m230.527344 246.699219c2.929687 2.929687 6.769531 4.394531 10.605468 4.394531 3.839844 0 7.679688-1.464844 10.609376-4.394531l136.875-136.875c5.855468-5.859375 5.855468-15.355469 0-21.214844-5.859376-5.855469-15.355469-5.855469-21.214844 0l-136.875 136.875c-5.855469 5.859375-5.855469 15.355469 0 21.214844zm0 0"></path><path  fill="#f05a28"  d="m508.574219 343.957031c-4.710938-11.695312-13.699219-20.859375-25.304688-25.796875-11.558593-4.917968-24.332031-5.058594-35.992187-.402344l-118.515625 45.214844-19.246094-15.515625 5.429687-2.488281c5.988282-2.738281 11.289063-6.671875 15.632813-11.472656 82.289063-10.363282 146.152344-80.78125 146.152344-165.839844 0-92.171875-74.988281-167.15625-167.160157-167.15625-92.167968 0-167.152343 74.984375-167.152343 167.15625 0 46.472656 19.070312 88.574219 49.792969 118.902344h-65.039063c-3.125-11.457032-13.617187-19.90625-26.046875-19.90625h-74.125c-14.886719 0-27 12.109375-27 27v124.996094c0 14.886718 12.113281 27 27 27h74.125c10.105469 0 18.921875-5.582032 23.550781-13.820313h66.789063l101.832031 44.230469c1.902344.828125 3.9375 1.242187 5.976563 1.242187 1.882812 0 3.769531-.355469 5.554687-1.066406l177.605469-70.839844c24.144531-9.730469 35.875-37.292969 26.140625-61.4375zm-37.304688 33.59375-171.753906 68.503907-98.957031-42.984376c-1.886719-.820312-3.917969-1.242187-5.976563-1.242187h-66.457031v-85.269531h78.273438c1.941406 0 3.863281-.378906 5.660156-1.109375l76.023437-30.996094c8.449219-3.445313 18.183594-.039063 22.640625 7.921875 2.5 4.464844 3.003906 9.605469 1.414063 14.46875-1.585938 4.863281-5.023438 8.71875-9.675781 10.847656l-27.484376 12.582032c-4.726562 2.164062-7.996093 6.617187-8.644531 11.773437-.644531 5.15625 1.425781 10.28125 5.472657 13.542969l44.835937 36.144531c4.15625 3.351563 9.777344 4.242187 14.761719 2.339844l126.6875-48.332031c.085937-.03125.175781-.066407.261718-.101563 8.800782-3.546875 18.851563.726563 22.398438 9.53125 3.546875 8.800781-.726562 18.851563-9.480469 22.378906zm-441.269531-80.898437h68.125v118.996094h-68.125zm416.726562-128.996094c0 64.097656-44.199218 118.0625-103.722656 133.027344-.09375-7.972656-2.144531-15.894532-6.101562-22.964844-11.84375-21.148438-37.699219-30.199219-60.144532-21.046875l-49.875 20.335937c-33.066406-25.066406-54.464843-64.753906-54.464843-109.351562 0-75.628906 61.527343-137.15625 137.152343-137.15625 75.628907 0 137.15625 61.527344 137.15625 137.15625zm0 0"></path></svg>