<svg width="54" height="54" viewBox="0 0 54 54" fill="none" xmlns="http://www.w3.org/2000/svg">
<path d="M14.0625 4.5C11.2714 4.5 9 6.77138 9 9.5625V44.4375C9 47.2286 11.2714 49.5 14.0625 49.5H39.9375C42.7286 49.5 45 47.2286 45 44.4375V22.5H32.0625C29.2714 22.5 27 20.2286 27 17.4375V4.5H14.0625ZM19.6875 28.125H34.3125C35.244 28.125 36 28.881 36 29.8125C36 30.744 35.244 31.5 34.3125 31.5H19.6875C18.756 31.5 18 30.744 18 29.8125C18 28.881 18.756 28.125 19.6875 28.125ZM19.6765 36H29.7971C30.7286 36 31.4846 36.7549 31.4846 37.6875C31.4857 38.5414 30.8513 39.2482 30.0278 39.3596L29.7993 39.375H19.6787C18.7472 39.375 17.9912 38.619 17.9912 37.6875C17.9912 36.8336 18.6245 36.1268 19.448 36.0154L19.6765 36Z" fill="#1D88DD"/>
<path opacity="0.4" d="M30.375 5.48828V17.437C30.375 18.3674 31.1321 19.1245 32.0625 19.1245H44.0112L30.375 5.48828Z" fill="#1D88DD"/>
</svg>
