<svg width="22" height="23" viewBox="0 0 22 23" fill="none" xmlns="http://www.w3.org/2000/svg">
<path d="M3.2085 19.1764C2.84183 19.1764 2.521 19.0389 2.246 18.7639C1.971 18.4889 1.8335 18.1681 1.8335 17.8014V5.88477C1.8335 5.5181 1.971 5.19727 2.246 4.92227C2.521 4.64727 2.84183 4.50977 3.2085 4.50977H18.7918C19.1585 4.50977 19.4793 4.64727 19.7543 4.92227C20.0293 5.19727 20.1668 5.5181 20.1668 5.88477V17.8014C20.1668 18.1681 20.0293 18.4889 19.7543 18.7639C19.4793 19.0389 19.1585 19.1764 18.7918 19.1764H3.2085ZM11.0002 12.2556L3.2085 7.14518V17.8014H18.7918V7.14518L11.0002 12.2556ZM11.0002 10.8806L18.7002 5.88477H3.32308L11.0002 10.8806ZM3.2085 7.14518V5.88477V17.8014V7.14518Z" fill="white"/>
</svg>
