<svg width="1357" height="154" viewBox="0 0 1357 154" fill="none" xmlns="http://www.w3.org/2000/svg">
<path d="M6.13672 128H5.13672V129H6.13672V128ZM6.13672 16.1592V15.1592H5.13672V16.1592H6.13672ZM111.166 16.1592H112.166V15.1592H111.166V16.1592ZM111.166 128V129H112.166V128H111.166ZM75.2041 128H74.2041V129H75.2041V128ZM75.2041 48.0928H76.2041V47.0928H75.2041V48.0928ZM42.0986 48.0928V47.0928H41.0986V48.0928H42.0986ZM42.0986 128V129H43.0986V128H42.0986ZM7.13672 128V16.1592H5.13672V128H7.13672ZM6.13672 17.1592H111.166V15.1592H6.13672V17.1592ZM110.166 16.1592V128H112.166V16.1592H110.166ZM111.166 127H75.2041V129H111.166V127ZM76.2041 128V48.0928H74.2041V128H76.2041ZM75.2041 47.0928H42.0986V49.0928H75.2041V47.0928ZM41.0986 48.0928V128H43.0986V48.0928H41.0986ZM42.0986 127H6.13672V129H42.0986V127ZM122.592 128H121.592V129H122.592V128ZM122.592 16.1592V15.1592H121.592V16.1592H122.592ZM198.837 26.9258L198.165 27.6663L198.167 27.6686L198.837 26.9258ZM198.91 83.6885L198.238 82.9477L198.236 82.9498L198.91 83.6885ZM158.48 94.3818V93.3818H157.48V94.3818H158.48ZM158.48 128V129H159.48V128H158.48ZM158.48 63.9863H157.48V64.9863H158.48V63.9863ZM173.642 61.5693L174.317 62.3065L174.318 62.3057L173.642 61.5693ZM158.48 46.5547V45.5547H157.48V46.5547H158.48ZM123.592 128V16.1592H121.592V128H123.592ZM122.592 17.1592H167.636V15.1592H122.592V17.1592ZM167.636 17.1592C180.332 17.1592 190.475 20.6887 198.165 27.6663L199.509 26.1852C191.378 18.8074 180.721 15.1592 167.636 15.1592V17.1592ZM198.167 27.6686C205.842 34.585 209.702 43.799 209.702 55.417H211.702C211.702 43.3045 207.652 33.5243 199.506 26.1829L198.167 27.6686ZM209.702 55.417C209.702 66.8864 205.868 76.0293 198.238 82.9477L199.582 84.4293C207.675 77.0898 211.702 67.3851 211.702 55.417H209.702ZM198.236 82.9498C190.643 89.8781 180.647 93.3818 168.148 93.3818V95.3818C181.04 95.3818 191.552 91.7566 199.584 84.4272L198.236 82.9498ZM168.148 93.3818H158.48V95.3818H168.148V93.3818ZM157.48 94.3818V128H159.48V94.3818H157.48ZM158.48 127H122.592V129H158.48V127ZM158.48 64.9863H165.951V62.9863H158.48V64.9863ZM165.951 64.9863C169.467 64.9863 172.311 64.1456 174.317 62.3065L172.966 60.8322C171.457 62.2157 169.173 62.9863 165.951 62.9863V64.9863ZM174.318 62.3057C176.339 60.4488 177.352 58.0784 177.352 55.2705H175.352C175.352 57.5407 174.558 59.3696 172.965 60.833L174.318 62.3057ZM177.352 55.2705C177.352 52.5144 176.366 50.1733 174.401 48.3179L173.028 49.7719C174.579 51.2369 175.352 53.0461 175.352 55.2705H177.352ZM174.401 48.3179C172.398 46.4258 169.577 45.5547 166.098 45.5547V47.5547C169.259 47.5547 171.516 48.3438 173.028 49.7719L174.401 48.3179ZM166.098 45.5547H158.48V47.5547H166.098V45.5547ZM157.48 46.5547V63.9863H159.48V46.5547H157.48ZM217.221 128H216.221V129H217.221V128ZM217.221 16.1592V15.1592H216.221V16.1592H217.221ZM292.953 16.1592H293.953V15.1592H292.953V16.1592ZM292.953 48.0928V49.0928H293.953V48.0928H292.953ZM253.109 48.0928V47.0928H252.109V48.0928H253.109ZM253.109 58.8594H252.109V59.8594H253.109V58.8594ZM287.313 58.8594H288.313V57.8594H287.313V58.8594ZM287.313 85.373V86.373H288.313V85.373H287.313ZM253.109 85.373V84.373H252.109V85.373H253.109ZM253.109 96.0664H252.109V97.0664H253.109V96.0664ZM293.686 96.0664H294.686V95.0664H293.686V96.0664ZM293.686 128V129H294.686V128H293.686ZM218.221 128V16.1592H216.221V128H218.221ZM217.221 17.1592H292.953V15.1592H217.221V17.1592ZM291.953 16.1592V48.0928H293.953V16.1592H291.953ZM292.953 47.0928H253.109V49.0928H292.953V47.0928ZM252.109 48.0928V58.8594H254.109V48.0928H252.109ZM253.109 59.8594H287.313V57.8594H253.109V59.8594ZM286.313 58.8594V85.373H288.313V58.8594H286.313ZM287.313 84.373H253.109V86.373H287.313V84.373ZM252.109 85.373V96.0664H254.109V85.373H252.109ZM253.109 97.0664H293.686V95.0664H253.109V97.0664ZM292.686 96.0664V128H294.686V96.0664H292.686ZM293.686 127H217.221V129H293.686V127ZM375.351 16.1592V15.1592H374.787L374.495 15.6418L375.351 16.1592ZM412.045 16.1592H413.045V15.1592H412.045V16.1592ZM412.045 128V129H413.045V128H412.045ZM376.156 128L375.156 127.991L375.147 129H376.156V128ZM376.669 72.5557L377.669 72.5649L377.7 69.2082L375.837 72.0007L376.669 72.5557ZM339.682 128V129H340.217L340.514 128.555L339.682 128ZM303.207 128H302.207V129H303.207V128ZM303.207 16.1592V15.1592H302.207V16.1592H303.207ZM338.949 16.1592H339.949V15.1592H338.949V16.1592ZM338.949 76.3643H337.949V79.9509L339.805 76.8817L338.949 76.3643ZM375.351 17.1592H412.045V15.1592H375.351V17.1592ZM411.045 16.1592V128H413.045V16.1592H411.045ZM412.045 127H376.156V129H412.045V127ZM377.156 128.009L377.669 72.5649L375.669 72.5464L375.156 127.991L377.156 128.009ZM375.837 72.0007L338.85 127.445L340.514 128.555L377.501 73.1106L375.837 72.0007ZM339.682 127H303.207V129H339.682V127ZM304.207 128V16.1592H302.207V128H304.207ZM303.207 17.1592H338.949V15.1592H303.207V17.1592ZM337.949 16.1592V76.3643H339.949V16.1592H337.949ZM339.805 76.8817L376.206 16.6766L374.495 15.6418L338.093 75.8469L339.805 76.8817ZM555.746 16.1592L556.739 16.044L556.637 15.1592H555.746V16.1592ZM568.71 128V129H569.833L569.703 127.885L568.71 128ZM532.382 128L531.387 128.102L531.479 129H532.382V128ZM527.255 77.9023L528.25 77.8005L528.158 76.9023H527.255V77.9023ZM526.229 77.9023V76.9023H525.552L525.301 77.5317L526.229 77.9023ZM506.234 128V129H506.912L507.163 128.371L506.234 128ZM483.896 128L482.977 128.395L483.237 129H483.896V128ZM462.362 77.9023L463.281 77.5075L463.021 76.9023H462.362V77.9023ZM461.337 77.9023V76.9023H460.421L460.341 77.815L461.337 77.9023ZM456.942 128V129H457.858L457.939 128.087L456.942 128ZM420.688 128L419.694 127.885L419.566 129H420.688V128ZM433.578 16.1592V15.1592H432.687L432.585 16.0447L433.578 16.1592ZM469.613 16.1592L470.548 15.8032L470.302 15.1592H469.613V16.1592ZM494.223 80.7588L493.288 81.1148L493.534 81.7588H494.223V80.7588ZM495.102 80.7588V81.7588H495.791L496.036 81.1148L495.102 80.7588ZM519.711 16.1592V15.1592H519.022L518.776 15.8032L519.711 16.1592ZM554.753 16.2743L567.717 128.115L569.703 127.885L556.739 16.044L554.753 16.2743ZM568.71 127H532.382V129H568.71V127ZM533.377 127.898L528.25 77.8005L526.26 78.0042L531.387 128.102L533.377 127.898ZM527.255 76.9023H526.229V78.9023H527.255V76.9023ZM525.301 77.5317L505.306 127.629L507.163 128.371L527.158 78.273L525.301 77.5317ZM506.234 127H483.896V129H506.234V127ZM484.814 127.605L463.281 77.5075L461.444 78.2972L482.977 128.395L484.814 127.605ZM462.362 76.9023H461.337V78.9023H462.362V76.9023ZM460.341 77.815L455.946 127.913L457.939 128.087L462.333 77.9897L460.341 77.815ZM456.942 127H420.688V129H456.942V127ZM421.681 128.115L434.572 16.2737L432.585 16.0447L419.694 127.885L421.681 128.115ZM433.578 17.1592H469.613V15.1592H433.578V17.1592ZM468.679 16.5152L493.288 81.1148L495.157 80.4028L470.548 15.8032L468.679 16.5152ZM494.223 81.7588H495.102V79.7588H494.223V81.7588ZM496.036 81.1148L520.645 16.5152L518.776 15.8032L494.167 80.4028L496.036 81.1148ZM519.711 17.1592H555.746V15.1592H519.711V17.1592ZM579.843 128.22L578.843 128.233L578.853 128.993L579.588 129.187L579.843 128.22ZM579.403 94.1621L579.597 93.1811L578.388 92.9418L578.403 94.175L579.403 94.1621ZM601.156 94.3818L601.56 95.2968L601.571 95.2918L601.582 95.2867L601.156 94.3818ZM604.379 91.4521L605.302 91.8368L605.316 91.803L605.328 91.7684L604.379 91.4521ZM604.525 91.0127L605.474 91.3289L605.598 90.958L605.437 90.6015L604.525 91.0127ZM570.761 16.1592V15.1592H569.213L569.849 16.5704L570.761 16.1592ZM610.312 16.1592L611.245 15.7994L610.998 15.1592H610.312V16.1592ZM627.597 60.9834L626.664 61.3432L627.597 63.7627L628.53 61.3432L627.597 60.9834ZM644.882 16.1592V15.1592H644.196L643.949 15.7994L644.882 16.1592ZM684.359 16.1592L685.27 16.5731L685.913 15.1592H684.359V16.1592ZM651.327 88.8154L652.237 89.2302L652.237 89.2293L651.327 88.8154ZM641.952 106.101L641.117 105.55L641.114 105.556L641.952 106.101ZM631.039 119.284L630.349 118.56L630.345 118.564L631.039 119.284ZM617.27 128.073L616.914 127.139L616.906 127.142L617.27 128.073ZM600.351 130.076C594.004 130.076 587.254 129.139 580.098 127.253L579.588 129.187C586.885 131.11 593.807 132.076 600.351 132.076V130.076ZM580.843 128.207L580.403 94.1492L578.403 94.175L578.843 128.233L580.843 128.207ZM579.209 95.1431C583.732 96.0378 588.976 96.4805 594.931 96.4805V94.4805C589.069 94.4805 583.961 94.0442 579.597 93.1811L579.209 95.1431ZM594.931 96.4805C597.511 96.4805 599.735 96.102 601.56 95.2968L600.753 93.4669C599.258 94.1265 597.331 94.4805 594.931 94.4805V96.4805ZM601.582 95.2867C603.368 94.4462 604.683 93.3217 605.302 91.8368L603.456 91.0675C603.098 91.9263 602.265 92.7549 600.73 93.477L601.582 95.2867ZM605.328 91.7684L605.474 91.3289L603.577 90.6965L603.43 91.1359L605.328 91.7684ZM605.437 90.6015L571.672 15.748L569.849 16.5704L603.614 91.4239L605.437 90.6015ZM570.761 17.1592H610.312V15.1592H570.761V17.1592ZM609.378 16.519L626.664 61.3432L628.53 60.6236L611.245 15.7994L609.378 16.519ZM628.53 61.3432L645.815 16.519L643.949 15.7994L626.664 60.6236L628.53 61.3432ZM644.882 17.1592H684.359V15.1592H644.882V17.1592ZM683.449 15.7453L650.417 88.4016L652.237 89.2293L685.27 16.5731L683.449 15.7453ZM650.417 88.4006C647.406 95.005 644.306 100.719 641.118 105.55L642.787 106.651C646.044 101.716 649.193 95.9071 652.237 89.2302L650.417 88.4006ZM641.114 105.556C637.981 110.375 634.393 114.709 630.349 118.56L631.729 120.008C635.888 116.047 639.576 111.592 642.791 106.646L641.114 105.556ZM630.345 118.564C626.387 122.379 621.911 125.235 616.914 127.139L617.626 129.008C622.882 127.005 627.586 124.001 631.733 120.004L630.345 118.564ZM616.906 127.142C611.908 129.093 606.393 130.076 600.351 130.076V132.076C606.613 132.076 612.378 131.057 617.633 129.005L616.906 127.142ZM827.255 153.488H826.255V154.488H827.255V153.488ZM827.255 128H828.255V127H827.255V128ZM689.193 128H688.193V129H689.193V128ZM689.193 16.1592V15.1592H688.193V16.1592H689.193ZM725.082 16.1592H726.082V15.1592H725.082V16.1592ZM725.082 97.6045H724.082V98.6045H725.082V97.6045ZM749.765 97.6045V98.6045H750.765V97.6045H749.765ZM749.765 16.1592V15.1592H748.765V16.1592H749.765ZM785.507 16.1592H786.507V15.1592H785.507V16.1592ZM785.507 97.6045H784.507V98.6045H785.507V97.6045ZM810.336 97.6045V98.6045H811.336V97.6045H810.336ZM810.336 16.1592V15.1592H809.336V16.1592H810.336ZM846.078 16.1592H847.078V15.1592H846.078V16.1592ZM846.078 97.6045H845.078V98.6045H846.078V97.6045ZM862.997 97.6045H863.997V96.6045H862.997V97.6045ZM862.997 153.488V154.488H863.997V153.488H862.997ZM828.255 153.488V128H826.255V153.488H828.255ZM827.255 127H689.193V129H827.255V127ZM690.193 128V16.1592H688.193V128H690.193ZM689.193 17.1592H725.082V15.1592H689.193V17.1592ZM724.082 16.1592V97.6045H726.082V16.1592H724.082ZM725.082 98.6045H749.765V96.6045H725.082V98.6045ZM750.765 97.6045V16.1592H748.765V97.6045H750.765ZM749.765 17.1592H785.507V15.1592H749.765V17.1592ZM784.507 16.1592V97.6045H786.507V16.1592H784.507ZM785.507 98.6045H810.336V96.6045H785.507V98.6045ZM811.336 97.6045V16.1592H809.336V97.6045H811.336ZM810.336 17.1592H846.078V15.1592H810.336V17.1592ZM845.078 16.1592V97.6045H847.078V16.1592H845.078ZM846.078 98.6045H862.997V96.6045H846.078V98.6045ZM861.997 97.6045V153.488H863.997V97.6045H861.997ZM862.997 152.488H827.255V154.488H862.997V152.488ZM870.688 128H869.688V129H870.688V128ZM870.688 16.1592V15.1592H869.688V16.1592H870.688ZM946.42 16.1592H947.42V15.1592H946.42V16.1592ZM946.42 48.0928V49.0928H947.42V48.0928H946.42ZM906.576 48.0928V47.0928H905.576V48.0928H906.576ZM906.576 58.8594H905.576V59.8594H906.576V58.8594ZM940.78 58.8594H941.78V57.8594H940.78V58.8594ZM940.78 85.373V86.373H941.78V85.373H940.78ZM906.576 85.373V84.373H905.576V85.373H906.576ZM906.576 96.0664H905.576V97.0664H906.576V96.0664ZM947.152 96.0664H948.152V95.0664H947.152V96.0664ZM947.152 128V129H948.152V128H947.152ZM871.688 128V16.1592H869.688V128H871.688ZM870.688 17.1592H946.42V15.1592H870.688V17.1592ZM945.42 16.1592V48.0928H947.42V16.1592H945.42ZM946.42 47.0928H906.576V49.0928H946.42V47.0928ZM905.576 48.0928V58.8594H907.576V48.0928H905.576ZM906.576 59.8594H940.78V57.8594H906.576V59.8594ZM939.78 58.8594V85.373H941.78V58.8594H939.78ZM940.78 84.373H906.576V86.373H940.78V84.373ZM905.576 85.373V96.0664H907.576V85.373H905.576ZM906.576 97.0664H947.152V95.0664H906.576V97.0664ZM946.152 96.0664V128H948.152V96.0664H946.152ZM947.152 127H870.688V129H947.152V127ZM983.114 123.166L982.618 124.034L982.623 124.037L983.114 123.166ZM961.215 101.706L960.356 102.219L960.358 102.222L961.215 101.706ZM970.956 30.1484L970.268 29.4223L970.265 29.4254L970.956 30.1484ZM990.585 17.7705L990.956 18.699L990.961 18.6969L990.585 17.7705ZM1039.07 18.9424L1040.07 18.9403L1040.07 18.3118L1039.5 18.0404L1039.07 18.9424ZM1039.14 53.5859L1038.56 54.3947L1040.15 55.5527L1040.14 53.5838L1039.14 53.5859ZM996.591 53.5127L995.891 52.7988L995.887 52.8022L996.591 53.5127ZM1041.42 87.7168L1042.41 87.7388L1042.47 85.1897L1040.7 87.021L1041.42 87.7168ZM1040.61 124.338L1041.05 125.235L1041.6 124.967L1041.61 124.36L1040.61 124.338ZM1012.92 129.93C1002.4 129.93 992.633 127.385 983.605 122.295L982.623 124.037C991.955 129.299 1002.06 131.93 1012.92 131.93V129.93ZM983.611 122.298C974.629 117.159 967.453 110.127 962.072 101.19L960.358 102.222C965.914 111.449 973.337 118.724 982.618 124.034L983.611 122.298ZM962.074 101.194C956.748 92.2698 954.085 82.5109 954.085 71.8965H952.085C952.085 82.8641 954.842 92.9783 960.356 102.219L962.074 101.194ZM954.085 71.8965C954.085 63.9775 955.668 56.4496 958.833 49.3034L957.005 48.4934C953.725 55.898 952.085 63.7021 952.085 71.8965H954.085ZM958.833 49.3034C962.006 42.1413 966.278 36.0011 971.647 30.8715L970.265 29.4254C964.697 34.745 960.277 41.1048 957.005 48.4934L958.833 49.3034ZM971.644 30.8746C977.063 25.7429 983.497 21.6829 990.956 18.699L990.214 16.842C982.537 19.9128 975.884 24.1048 970.268 29.4223L971.644 30.8746ZM990.961 18.6969C998.407 15.6707 1006.26 14.1562 1014.54 14.1562V12.1562C1006.01 12.1562 997.9 13.718 990.208 16.8441L990.961 18.6969ZM1014.54 14.1562C1022.68 14.1562 1030.71 16.0465 1038.64 19.8443L1039.5 18.0404C1031.32 14.1235 1023 12.1562 1014.54 12.1562V14.1562ZM1038.07 18.9445L1038.14 53.5881L1040.14 53.5838L1040.07 18.9403L1038.07 18.9445ZM1039.73 52.7772C1032.57 47.5709 1024.43 44.9688 1015.34 44.9688V46.9688C1024.02 46.9688 1031.75 49.4447 1038.56 54.3947L1039.73 52.7772ZM1015.34 44.9688C1007.71 44.9688 1001.21 47.5808 995.891 52.7988L997.291 54.2266C1002.23 49.386 1008.22 46.9688 1015.34 46.9688V44.9688ZM995.887 52.8022C990.616 58.023 987.974 64.4328 987.974 71.9697H989.974C989.974 64.9558 992.41 59.0609 997.294 54.2232L995.887 52.8022ZM987.974 71.9697C987.974 79.6002 990.613 86.0601 995.887 91.2838L997.294 89.8627C992.413 85.0278 989.974 79.0853 989.974 71.9697H987.974ZM995.887 91.2838C1001.16 96.5063 1007.67 99.1172 1015.34 99.1172V97.1172C1008.17 97.1172 1002.18 94.6988 997.294 89.8627L995.887 91.2838ZM1015.34 99.1172C1020.64 99.1172 1025.66 98.1412 1030.37 96.1844L1029.61 94.3371C1025.14 96.1889 1020.39 97.1172 1015.34 97.1172V99.1172ZM1030.37 96.1844C1035.07 94.2352 1039 91.6486 1042.13 88.4126L1040.7 87.021C1037.78 90.035 1034.09 92.4777 1029.61 94.3371L1030.37 96.1844ZM1040.42 87.6948L1039.61 124.316L1041.61 124.36L1042.41 87.7388L1040.42 87.6948ZM1040.17 123.441C1031.36 127.771 1022.29 129.93 1012.92 129.93V131.93C1022.61 131.93 1031.98 129.694 1041.05 125.235L1040.17 123.441ZM1072.1 128H1071.1V129H1072.1V128ZM1072.1 48.0928H1073.1V47.0928H1072.1V48.0928ZM1044.42 48.0928H1043.42V49.0928H1044.42V48.0928ZM1044.42 16.1592V15.1592H1043.42V16.1592H1044.42ZM1134.8 16.1592H1135.8V15.1592H1134.8V16.1592ZM1134.8 48.0928V49.0928H1135.8V48.0928H1134.8ZM1107.92 48.0928V47.0928H1106.92V48.0928H1107.92ZM1107.92 128V129H1108.92V128H1107.92ZM1073.1 128V48.0928H1071.1V128H1073.1ZM1072.1 47.0928H1044.42V49.0928H1072.1V47.0928ZM1045.42 48.0928V16.1592H1043.42V48.0928H1045.42ZM1044.42 17.1592H1134.8V15.1592H1044.42V17.1592ZM1133.8 16.1592V48.0928H1135.8V16.1592H1133.8ZM1134.8 47.0928H1107.92V49.0928H1134.8V47.0928ZM1106.92 48.0928V128H1108.92V48.0928H1106.92ZM1107.92 127H1072.1V129H1107.92V127ZM1213.02 66.3301L1212.65 65.4024L1209.82 66.539L1212.77 67.2985L1213.02 66.3301ZM1228.33 75.9248L1227.55 76.5466L1227.55 76.5515L1228.33 75.9248ZM1222.4 118.405L1221.76 117.633L1221.76 117.635L1222.4 118.405ZM1141.54 128H1140.54V129H1141.54V128ZM1141.54 16.1592V15.1592H1140.54V16.1592H1141.54ZM1215.15 24.6553L1214.55 25.4559L1214.55 25.4577L1215.15 24.6553ZM1222.76 58.8594L1221.96 58.2575L1221.96 58.265L1222.76 58.8594ZM1176.69 45.0898V44.0898H1175.69V45.0898H1176.69ZM1176.69 59.8115H1175.69V60.8115H1176.69V59.8115ZM1190.02 57.6143L1189.28 56.944L1189.28 56.9453L1190.02 57.6143ZM1195.3 96.2129L1195.98 96.9411L1195.98 96.9405L1195.3 96.2129ZM1195.52 84.7139L1194.82 85.4321L1194.83 85.4378L1194.83 85.4434L1195.52 84.7139ZM1176.69 82.4434V81.4434H1175.69V82.4434H1176.69ZM1176.69 98.5566H1175.69V99.5566H1176.69V98.5566ZM1212.77 67.2985C1219.03 68.9101 1223.94 71.9981 1227.55 76.5465L1229.11 75.3031C1225.2 70.3789 1219.9 67.0704 1213.27 65.3617L1212.77 67.2985ZM1227.55 76.5515C1231.2 81.0894 1233.04 86.6226 1233.04 93.21H1235.04C1235.04 86.2231 1233.08 80.2329 1229.11 75.2981L1227.55 76.5515ZM1233.04 93.21C1233.04 103.323 1229.28 111.434 1221.76 117.633L1223.03 119.177C1231.04 112.583 1235.04 103.897 1235.04 93.21H1233.04ZM1221.76 117.635C1214.27 123.845 1204.24 127 1191.56 127V129C1204.57 129 1215.09 125.758 1223.03 119.175L1221.76 117.635ZM1191.56 127H1141.54V129H1191.56V127ZM1142.54 128V16.1592H1140.54V128H1142.54ZM1141.54 17.1592H1184.6V15.1592H1141.54V17.1592ZM1184.6 17.1592C1197.26 17.1592 1207.2 19.9601 1214.55 25.4559L1215.74 23.8547C1207.95 18.0223 1197.54 15.1592 1184.6 15.1592V17.1592ZM1214.55 25.4577C1221.92 30.9395 1225.57 38.0923 1225.57 46.9941H1227.57C1227.57 37.4389 1223.6 29.6992 1215.74 23.8528L1214.55 25.4577ZM1225.57 46.9941C1225.57 51.3356 1224.36 55.0754 1221.96 58.2575L1223.56 59.4612C1226.24 55.9051 1227.57 51.7347 1227.57 46.9941H1225.57ZM1221.96 58.265C1219.58 61.4806 1216.49 63.858 1212.65 65.4024L1213.39 67.2578C1217.56 65.5795 1220.96 62.9764 1223.57 59.4538L1221.96 58.265ZM1175.69 45.0898V59.8115H1177.69V45.0898H1175.69ZM1176.69 60.8115H1184.31V58.8115H1176.69V60.8115ZM1184.31 60.8115C1187 60.8115 1189.21 60.0117 1190.77 58.2832L1189.28 56.9453C1188.2 58.1465 1186.6 58.8115 1184.31 58.8115V60.8115ZM1190.77 58.2845C1192.3 56.5909 1193.07 54.5955 1193.07 52.3408H1191.07C1191.07 54.09 1190.49 55.6103 1189.28 56.944L1190.77 58.2845ZM1193.07 52.3408C1193.07 49.9566 1192.17 47.9476 1190.39 46.3881L1189.07 47.8932C1190.41 49.0681 1191.07 50.5258 1191.07 52.3408H1193.07ZM1190.39 46.3881C1188.55 44.7827 1185.72 44.0898 1182.11 44.0898V46.0898C1185.54 46.0898 1187.78 46.7642 1189.07 47.8932L1190.39 46.3881ZM1182.11 44.0898H1176.69V46.0898H1182.11V44.0898ZM1187.9 99.5566C1191.32 99.5566 1194.07 98.7414 1195.98 96.9411L1194.61 95.4847C1193.2 96.8093 1191.03 97.5566 1187.9 97.5566V99.5566ZM1195.98 96.9405C1197.9 95.1363 1198.86 92.8692 1198.86 90.207H1196.86C1196.86 92.33 1196.12 94.0669 1194.61 95.4853L1195.98 96.9405ZM1198.86 90.207C1198.86 87.7415 1197.97 85.6437 1196.2 83.9843L1194.83 85.4434C1196.19 86.7137 1196.86 88.2781 1196.86 90.207H1198.86ZM1196.21 83.9956C1194.42 82.261 1192.03 81.4434 1189.14 81.4434V83.4434C1191.63 83.4434 1193.49 84.1394 1194.82 85.4321L1196.21 83.9956ZM1189.14 81.4434H1176.69V83.4434H1189.14V81.4434ZM1175.69 82.4434V98.5566H1177.69V82.4434H1175.69ZM1176.69 99.5566H1187.9V97.5566H1176.69V99.5566ZM1316.88 128L1315.92 128.276L1316.13 129H1316.88V128ZM1311.9 110.642L1312.86 110.366L1312.65 109.642H1311.9V110.642ZM1278.65 110.642V109.642H1277.89L1277.69 110.366L1278.65 110.642ZM1273.67 128V129H1274.42L1274.63 128.276L1273.67 128ZM1235.95 128L1235 127.667L1234.53 129H1235.95V128ZM1275.5 16.1592V15.1592H1274.79L1274.55 15.8258L1275.5 16.1592ZM1316.59 16.1592L1317.53 15.8258L1317.29 15.1592H1316.59V16.1592ZM1356.14 128V129H1357.55L1357.08 127.667L1356.14 128ZM1287.14 81.1982L1286.18 80.9232L1285.82 82.1982H1287.14V81.1982ZM1303.4 81.1982V82.1982H1304.73L1304.36 80.9232L1303.4 81.1982ZM1295.71 54.3184L1296.67 54.0433L1296.47 53.3184H1295.71V54.3184ZM1294.83 54.3184V53.3184H1294.08L1293.87 54.0433L1294.83 54.3184ZM1317.84 127.724L1312.86 110.366L1310.94 110.917L1315.92 128.276L1317.84 127.724ZM1311.9 109.642H1278.65V111.642H1311.9V109.642ZM1277.69 110.366L1272.7 127.724L1274.63 128.276L1279.61 110.917L1277.69 110.366ZM1273.67 127H1235.95V129H1273.67V127ZM1236.89 128.333L1276.44 16.4926L1274.55 15.8258L1235 127.667L1236.89 128.333ZM1275.5 17.1592H1316.59V15.1592H1275.5V17.1592ZM1315.64 16.4926L1355.19 128.333L1357.08 127.667L1317.53 15.8258L1315.64 16.4926ZM1356.14 127H1316.88V129H1356.14V127ZM1287.14 82.1982H1303.4V80.1982H1287.14V82.1982ZM1304.36 80.9232L1296.67 54.0433L1294.75 54.5934L1302.44 81.4733L1304.36 80.9232ZM1295.71 53.3184H1294.83V55.3184H1295.71V53.3184ZM1293.87 54.0433L1286.18 80.9232L1288.1 81.4733L1295.79 54.5934L1293.87 54.0433Z" fill="url(#paint0_linear_11_5045)"/>
<defs>
<linearGradient id="paint0_linear_11_5045" x1="678.5" y1="0" x2="678.5" y2="150" gradientUnits="userSpaceOnUse">
<stop stop-color="#232938"/>
<stop offset="1" stop-color="#232938" stop-opacity="0"/>
</linearGradient>
</defs>
</svg>
