<!-- icon666.com - MILLIONS vector ICONS FREE --><svg viewBox="0 0 480 480.13215" xmlns="http://www.w3.org/2000/svg"><path fill="#f05a28" d="m392.0625 152.132812c.066406-76.59375-56.863281-141.269531-132.84375-150.921874-75.980469-9.652344-147.277344 38.738281-166.359375 112.914062-19.085937 74.175781 20 150.964844 91.203125 179.183594v19.199218c-9.320312 1.902344-16.011719 10.109376-16 19.625.015625 4.339844 1.457031 8.558594 4.105469 12-5.472657 7.0625-5.472657 16.933594 0 24-5.472657 7.0625-5.472657 16.933594 0 24-2.648438 3.441407-4.089844 7.65625-4.105469 12 .003906 9.5 6.691406 17.691407 16 19.589844v.410156c0 30.925782 25.074219 56 56 56 30.929688 0 56-25.074218 56-56v-.410156c9.3125-1.898437 16-10.089844 16-19.589844-.011719-4.34375-1.453125-8.558593-4.101562-12 5.472656-7.066406 5.472656-16.9375 0-24 5.472656-7.066406 5.472656-16.9375 0-24 2.648437-3.441406 4.089843-7.660156 4.101562-12 0-9.503906-6.6875-17.691406-16-19.59375v-19.199218c57.886719-22.984375 95.921875-78.925782 96-141.207032zm-288 0c0-69.164062 51.90625-127.3125 120.625-135.132812s132.363281 37.179688 147.898438 104.574219c15.539062 67.394531-21.980469 135.71875-87.1875 158.773437-2.171876.792969-3.890626 2.496094-4.703126 4.664063v.074219c-.339843.867187-.527343 1.785156-.550781 2.71875 0 .113281-.066406.207031-.066406.328124v24h-32.015625v-64h1.441406c7.625 0 14.191406-5.378906 15.6875-12.855468l3.273438-16.359375 4.398437-1.824219 13.871094 9.253906c6.355469 4.207032 14.789063 3.371094 20.195313-2l13.351562-13.359375c5.367188-5.402343 6.203125-13.832031 2-20.183593l-9.257812-13.871094 1.824218-4.402344 16.351563-3.269531c7.480469-1.496094 12.863281-8.0625 12.863281-15.691407v-18.878906c0-7.625-5.378906-14.1875-12.855469-15.6875l-16.359375-3.273437-1.824218-4.398438 9.257812-13.871093c4.210938-6.351563 3.375-14.792969-2-20.191407l-13.363281-13.351562c-5.390625-5.390625-13.835938-6.230469-20.183594-2l-13.871094 9.253906-4.390625-1.824219-3.273437-16.351562c-1.496094-7.480469-8.066407-12.867188-15.695313-12.863282h-18.878906c-7.625 0-14.191406 5.378907-15.6875 12.855469l-3.273438 16.359375-4.390624 1.824219-13.882813-9.253906c-6.351563-4.214844-14.789063-3.378907-20.191406 2l-13.351563 13.351562c-5.375 5.398438-6.210937 13.839844-2 20.191407l9.257813 13.871093-1.824219 4.398438-16.351562 3.273437c-7.480469 1.496094-12.863282 8.0625-12.867188 15.6875v18.878906c0 7.625 5.382812 14.191407 12.855469 15.691407l16.363281 3.269531 1.824219 4.402344-9.257813 13.871094c-4.207031 6.351562-3.371094 14.785156 2 20.191406l13.359375 13.351562c5.394531 5.390625 13.839844 6.226563 20.183594 2l13.875-9.253906 4.398437 1.824219 3.273438 16.351562c1.492188 7.476563 8.058594 12.863281 15.6875 12.863281h1.4375v64h-32v-24c0-.121093-.0625-.214843-.0625-.328124-.023438-.933594-.210938-1.851563-.550781-2.71875v-.074219c-.8125-2.167969-2.53125-3.871094-4.707031-4.664063-54.300782-19.253906-90.613282-70.597656-90.679688-128.214844zm136 16c-13.253906 0-24-10.746093-24-24 0-13.253906 10.746094-24 24-24 13.257812 0 24 10.746094 24 24 0 13.253907-10.742188 24-24 24zm8 15.199219c20.121094-4.105469 33.863281-22.78125 31.796875-43.210937-2.0625-20.433594-19.261719-35.980469-39.796875-35.980469s-37.730469 15.546875-39.796875 35.980469c-2.0625 20.429687 11.679687 39.105468 31.796875 43.210937v48.800781h-1.4375l-4.113281-20.542968c-.527344-2.625-2.328125-4.808594-4.800781-5.824219l-12.277344-5.089844c-2.46875-1.023437-5.285156-.746093-7.503906.738281l-17.433594 11.621094-13.351563-13.351562 11.625-17.429688c1.480469-2.222656 1.757813-5.039062.734375-7.503906l-5.039062-12.28125c-1.019532-2.472656-3.203125-4.273438-5.824219-4.800781l-20.578125-4.097657v-18.878906l20.546875-4.109375c2.621094-.527343 4.804687-2.328125 5.824219-4.800781l5.085937-12.28125c1.023438-2.46875.746094-5.28125-.734375-7.503906l-11.625-17.433594 13.351563-13.351562 17.441406 11.625c2.21875 1.480468 5.03125 1.757812 7.496094.734374l12.277343-5.085937c2.472657-1.015625 4.273438-3.203125 4.800782-5.824219l4.097656-20.527344h18.878906l4.113282 20.542969c.523437 2.621094 2.324218 4.808594 4.796874 5.824219l12.28125 5.089844c2.464844 1.019531 5.277344.742187 7.496094-.738282l17.441406-11.625 13.351563 13.355469-11.640625 17.429688c-1.484375 2.222656-1.757812 5.035156-.734375 7.503906l5.085937 12.28125c1.019532 2.472656 3.203126 4.273437 5.824219 4.800781l20.542969 4.09375v18.878906l-20.542969 4.113282c-2.621093.527344-4.804687 2.328125-5.824219 4.800781l-5.085937 12.28125c-1.023437 2.464844-.75 5.28125.734375 7.503906l11.625 17.429688-13.351562 13.351562-17.433594-11.636719c-2.222656-1.484374-5.035156-1.761718-7.503906-.738281l-12.28125 5.089844c-2.472657 1.015625-4.273438 3.199219-4.796876 5.824219l-4.097656 20.542968h-1.441406zm-60 144.800781h104c2.210938 0 4 1.789063 4 4 0 2.207032-1.789062 4-4 4h-104c-2.207031 0-4-1.792968-4-4 0-2.210937 1.792969-4 4-4zm108 28c0 2.207032-1.789062 4-4 4h-104c-2.207031 0-4-1.792968-4-4 0-2.210937 1.792969-4 4-4h104c2.210938 0 4 1.789063 4 4zm0 24c0 2.207032-1.789062 4-4 4h-104c-2.207031 0-4-1.792968-4-4 0-2.210937 1.792969-4 4-4h104c2.210938 0 4 1.789063 4 4zm-56 84c-22.078125-.027343-39.972656-17.921874-40-40h80c-.023438 22.078126-17.917969 39.972657-40 40zm52-56h-104c-2.207031 0-4-1.792968-4-4 0-2.210937 1.792969-4 4-4h104c2.210938 0 4 1.789063 4 4 0 2.207032-1.789062 4-4 4zm0 0"></path><path fill="#f05a28" d="m33.214844 198.300781c8.960937-3.71875 14.804687-12.464843 14.804687-22.167969 0-9.703124-5.84375-18.449218-14.804687-22.167968 5.105468-51.492188 27.875-99.628906 64.449218-136.234375 3.03125-3.140625 2.984376-8.128907-.105468-11.210938-3.089844-3.085937-8.078125-3.125-11.214844-.089843-39.390625 39.425781-63.832031 91.332031-69.128906 146.816406-10.164063 2.972656-17.1484378 12.296875-17.1484378 22.886718 0 10.589844 6.9843748 19.914063 17.1484378 22.886719 5.289062 55.488281 29.722656 107.40625 69.113281 146.839844 3.128906 3.132813 8.203125 3.132813 11.332031.003906 3.128906-3.128906 3.132813-8.199219.003906-11.332031-36.574218-36.601562-59.34375-84.738281-64.449218-136.230469zm-9.152344-30.167969c4.417969 0 8 3.582032 8 8 0 4.417969-3.582031 8-8 8s-8-3.582031-8-8c0-4.417968 3.582031-8 8-8zm0 0"></path><path fill="#f05a28" d="m480.0625 176.132812c-.050781-10.574218-7.015625-19.871093-17.152344-22.886718-5.285156-55.488282-29.71875-107.40625-69.109375-146.84375-3.128906-3.128906-8.203125-3.128906-11.332031-.003906-3.132812 3.128906-3.132812 8.203124-.003906 11.332031 36.570312 36.613281 59.335937 84.761719 64.429687 136.257812-8.960937 3.71875-14.800781 12.464844-14.800781 22.167969s5.839844 18.449219 14.800781 22.167969c-5.101562 51.480469-27.867187 99.609375-64.429687 136.207031-2.078125 2.011719-2.910156 4.984375-2.175782 7.78125.734376 2.796875 2.917969 4.980469 5.714844 5.710938 2.800782.730468 5.773438-.105469 7.78125-2.1875 39.386719-39.4375 63.824219-91.351563 69.109375-146.839844 10.132813-3.007813 17.105469-12.292969 17.167969-22.863282zm-24 8c-4.417969 0-8-3.582031-8-8 0-4.417968 3.582031-8 8-8s8 3.582032 8 8c0 4.417969-3.582031 8-8 8zm0 0"></path></svg>