<svg width="26" height="26" viewBox="0 0 26 26" fill="none" xmlns="http://www.w3.org/2000/svg">
<path d="M8.9362 2.7085C5.50549 2.7085 2.70703 5.50696 2.70703 8.93766V17.0627C2.70703 20.4929 5.50539 23.2918 8.9362 23.2918H17.0612C20.4915 23.2918 23.2904 20.493 23.2904 17.0627V8.93766C23.2904 5.50686 20.4914 2.7085 17.0612 2.7085H8.9362ZM8.9362 4.3335H17.0612C19.6131 4.3335 21.6654 6.38522 21.6654 8.93766V17.0627C21.6654 19.6145 19.613 21.6668 17.0612 21.6668H8.9362C6.38375 21.6668 4.33203 19.6146 4.33203 17.0627V8.93766C4.33203 6.38512 6.38365 4.3335 8.9362 4.3335ZM18.4154 6.50016C17.8168 6.50016 17.332 6.98495 17.332 7.5835C17.332 8.18204 17.8168 8.66683 18.4154 8.66683C19.0139 8.66683 19.4987 8.18204 19.4987 7.5835C19.4987 6.98495 19.0139 6.50016 18.4154 6.50016ZM12.9987 7.5835C10.0169 7.5835 7.58203 10.0184 7.58203 13.0002C7.58203 15.9819 10.0169 18.4168 12.9987 18.4168C15.9805 18.4168 18.4154 15.9819 18.4154 13.0002C18.4154 10.0184 15.9805 7.5835 12.9987 7.5835ZM12.9987 9.2085C15.1021 9.2085 16.7904 10.8968 16.7904 13.0002C16.7904 15.1035 15.1021 16.7918 12.9987 16.7918C10.8953 16.7918 9.20703 15.1035 9.20703 13.0002C9.20703 10.8968 10.8953 9.2085 12.9987 9.2085Z" fill="white"/>
</svg>
