<svg width="26" height="26" viewBox="0 0 26 26" fill="none" xmlns="http://www.w3.org/2000/svg">
<path d="M13.0003 2.1665C7.92274 2.1665 3.79199 6.29725 3.79199 11.3748C3.79199 13.561 4.57687 15.6827 6.00903 17.3592C6.17262 17.545 10.032 21.9303 11.3212 23.1593C11.7919 23.6084 12.3958 23.8332 13.0003 23.8332C13.6048 23.8332 14.2088 23.6084 14.68 23.1593C16.1788 21.7299 19.8389 17.5341 19.9992 17.35C21.4238 15.6827 22.2087 13.561 22.2087 11.3748C22.2087 6.29725 18.0779 2.1665 13.0003 2.1665ZM13.0003 14.0832C11.5048 14.0832 10.292 12.8704 10.292 11.3748C10.292 9.87929 11.5048 8.6665 13.0003 8.6665C14.4959 8.6665 15.7087 9.87929 15.7087 11.3748C15.7087 12.8704 14.4959 14.0832 13.0003 14.0832Z" fill="white"/>
</svg>
