<svg width="1977" height="256" viewBox="0 0 1977 256" fill="none" xmlns="http://www.w3.org/2000/svg">
<path fill-rule="evenodd" clip-rule="evenodd" d="M732.2 0H71.8C70.2 0.3 68.6 0.600012 66 0.700012C50.2 2.80001 37.3 10 27.2 22.3C23.7 26.6 20.9 31.4 18.8 36.5C18.7462 36.6231 18.6911 36.7461 18.6361 36.8692C17.9758 38.3461 17.3154 39.8231 18.7 41.3C18.8307 41.4307 18.7906 41.604 18.7471 41.7922C18.7241 41.892 18.7 41.996 18.7 42.1C18.2 44.6 16.7 46.1 14.1 46.3C12.9 46.4 12.2 46.9 11.9 48C11.3 50.3 10.2 52.3 9 54.3C7.8 56.2 8.80001 58.1 11.1 58.2C12.3629 58.2665 13.5817 58.2446 14.815 58.2224C15.4371 58.2113 16.0629 58.2 16.7 58.2C17.2 58.2 17.8 58.2 18.3 58.3C19.4 58.5 19.9 59 19.6 60.1C19.4 60.85 19.175 61.625 18.95 62.4C18.725 63.175 18.5 63.95 18.3 64.7C14.5 78.4 11.6 92.2 9.70001 106.3C9.64463 106.688 9.55859 107.045 9.47584 107.388C9.40916 107.665 9.34463 107.932 9.3 108.2C7.1 108.4 7.10001 108.4 6.20001 104.5C5.00001 104.4 4.30001 105.1 3.90001 106C3.50001 106.9 3.4 107.9 3.3 108.9C3.23497 110.266 3.21223 110.743 2.62677 111.13C2.43626 111.256 2.26262 111.415 2.18354 111.629C1.73063 112.856 1.80826 114.283 1.90001 115.2C2.00001 116.2 2.20001 116.9 3.20001 117.4C4.40001 117.9 4.30001 119.3 3.10001 119.8C1.87586 120.271 1.80444 121.096 1.71677 122.11C1.71134 122.172 1.70585 122.236 1.70001 122.3C1.49469 126.561 1.26301 130.795 1.03204 135.016C0.813044 139.018 0.594683 143.009 0.400009 147C0.400009 147.487 0.288641 148.012 0.178995 148.528C0.108679 148.86 0.0390725 149.187 0 149.5V164.3C0.6 164.5 1.2 164.7 1.8 165C3.6 165.8 3.90001 168.3 2.40001 169.6C2.00001 169.9 1.4 170.4 1.3 170.8C1.1 172 1.2 173.2 1.3 174.4C1.3 174.6 1.7 174.9 2 175C3.1 175.5 3.30001 176.3 3.20001 177.3C3.20001 178.2 3.2 179.2 3 180.1C3 180.6 2.80001 181.2 2.40001 181.5C0.943639 182.633 1.12385 184.093 1.2987 185.509C1.33996 185.844 1.38092 186.175 1.40001 186.5C1.50001 187 2.00001 187.5 2.40001 187.7C3.20001 188.1 3.4 188.7 3.3 189.5C3.26853 189.736 3.24449 189.975 3.22047 190.213C3.09186 191.489 2.96397 192.757 1.70001 193.6C1.40001 193.9 1.3 194.6 1.3 195.1C1.3 203.2 1.40001 211.4 2.90001 219.4C3.59411 223.079 4.38458 226.806 5.17108 230.514C5.51769 232.148 5.86353 233.779 6.20001 235.4C6.27017 235.751 6.38955 236.151 6.52363 236.6C6.58065 236.791 6.64033 236.991 6.70001 237.2C8.40001 236.9 10.1 236.6 11.8 236.4C12.3 236.3 12.9 236.2 13.4 236.2H13.402C21.9013 236.2 30.3007 236.2 38.8 236.4C41.9704 236.475 45.0837 236.722 48.1831 236.967C49.1897 237.047 50.1949 237.126 51.2 237.2C53.5 237.3 54 236.8 54.1 234.5C54.15 233.35 54.1938 232.2 54.2375 231.05C54.3688 227.6 54.5 224.15 54.8 220.7C55.0632 218.002 55.4996 215.348 55.9383 212.679C56.1662 211.293 56.3948 209.902 56.6 208.5C56.7 207.4 57.2 206.7 58.4 206.9C60.2 207.2 60.9 206.1 61.5 204.7C66.1 194.8 73.4 187.8 83.7 184C106 175.8 130.5 189.9 134.7 213.3C135.1 215.6 135.3 218 135.4 220.4C135.693 228.311 135.891 236.317 136.086 244.232L136.1 244.8C136.2 247.4 136.6 247.7 139.1 247.7H141.1H521.9C526.619 247.7 531.293 247.523 535.982 247.346C538.348 247.257 540.719 247.167 543.1 247.1C547.9 246.9 552.7 246.7 557.5 246.6L588.7 245.7C593.65 245.55 598.575 245.375 603.5 245.2C608.425 245.025 613.35 244.85 618.3 244.7C621.45 244.6 624.625 244.5 627.8 244.4C630.975 244.3 634.15 244.2 637.3 244.1C642.3 243.95 647.3 243.775 652.3 243.6C657.3 243.425 662.3 243.25 667.3 243.1L686.5 242.5C689.1 242.4 691.6 242.2 694.1 242C686.291 241.707 678.388 241.51 670.575 241.314L670 241.3C665.55 241.15 661.125 241.025 656.7 240.9C652.275 240.775 647.85 240.65 643.4 240.5C638.85 240.35 634.275 240.225 629.7 240.1C625.125 239.975 620.55 239.85 616 239.7C611.55 239.55 607.125 239.425 602.7 239.3C598.275 239.175 593.85 239.05 589.4 238.9C584.85 238.75 580.275 238.625 575.7 238.5C571.125 238.375 566.55 238.25 562 238.1C557.55 237.95 553.125 237.825 548.7 237.7C544.275 237.575 539.85 237.45 535.4 237.3C530.85 237.15 526.275 237.025 521.7 236.9C517.125 236.775 512.55 236.65 508 236.5C504.05 236.4 500.125 236.275 496.2 236.15C492.275 236.025 488.35 235.9 484.4 235.8C479.5 235.7 474.7 235.6 469.8 235.4C469.325 235.4 468.85 235.337 468.276 235.262C468.125 235.242 467.967 235.221 467.8 235.2C468.302 234.531 468.874 234.561 469.398 234.589C469.501 234.595 469.602 234.6 469.7 234.6C473.25 234.5 476.775 234.4 480.3 234.3C483.825 234.2 487.35 234.1 490.9 234L531.7 232.8C535.95 232.65 540.175 232.525 544.4 232.4C548.625 232.275 552.85 232.15 557.1 232L597.3 230.8C605.4 230.5 613.6 230.2 621.7 230L662.5 228.8C675.171 228.404 687.744 228.008 700.315 227.612L700.7 227.6C701.3 227.6 701.8 227.5 702.4 227.2C702.1 227.2 701.775 227.175 701.45 227.15C701.125 227.125 700.8 227.1 700.5 227.1C692.75 226.95 684.975 226.775 677.2 226.6C669.425 226.425 661.65 226.25 653.9 226.1C648.05 225.95 642.225 225.825 636.4 225.7C630.575 225.575 624.75 225.45 618.9 225.3C613.05 225.15 607.225 225.025 601.4 224.9C595.575 224.775 589.75 224.65 583.9 224.5C578.05 224.35 572.175 224.225 566.3 224.1C560.425 223.975 554.55 223.85 548.7 223.7C542.9 223.55 537.1 223.425 531.3 223.3C525.5 223.175 519.7 223.05 513.9 222.9C508.55 222.8 503.175 222.675 497.8 222.55C492.425 222.425 487.05 222.3 481.7 222.2C481.237 222.2 480.8 222.174 480.376 222.148C479.976 222.124 479.588 222.1 479.2 222.1V221.6C479.8 221.5 480.4 221.4 481 221.4L508 220.5C512.487 220.347 516.947 220.168 521.395 219.99C525.671 219.818 529.935 219.647 534.2 219.5C538.3 219.3 542.5 219.1 546.6 219L574.2 218.1C586.2 217.6 598.2 217.1 610.2 216.7C619.6 216.3 629 216 638.4 215.7C642.7 215.55 647 215.375 651.3 215.2C655.6 215.025 659.9 214.85 664.2 214.7C666.35 214.6 668.525 214.525 670.7 214.45C672.875 214.375 675.05 214.3 677.2 214.2C681.75 214.05 686.325 213.9 690.9 213.75C695.475 213.6 700.05 213.45 704.6 213.3C706.6 213.25 708.6 213.175 710.6 213.1C712.6 213.025 714.6 212.95 716.6 212.9C716.9 212.9 717.2 212.8 717.6 212.5C717.4 212.5 717.2 212.475 717 212.45C716.8 212.425 716.6 212.4 716.4 212.4L716.399 212.4C700.799 212 685.199 211.6 669.6 211.1C664.85 210.95 660.125 210.8 655.4 210.65C650.675 210.5 645.95 210.35 641.2 210.2C636.85 210.05 632.525 209.925 628.2 209.8C623.875 209.675 619.55 209.55 615.2 209.4C610.75 209.25 606.275 209.125 601.8 209C597.325 208.875 592.85 208.75 588.4 208.6C583.95 208.45 579.475 208.325 575 208.2C570.525 208.075 566.05 207.95 561.6 207.8C557.8 207.7 554 207.575 550.2 207.45C546.4 207.325 542.6 207.2 538.8 207.1C531.389 206.897 524.003 206.668 516.63 206.44C509.479 206.218 502.339 205.997 495.2 205.8C494.3 205.8 493.5 205.7 492.6 205.2C493.1 205.1 493.7 205 494.2 205C497.805 204.805 501.504 204.705 505.114 204.608L505.4 204.6C510.951 204.45 516.477 204.3 522.003 204.15C527.527 204 533.051 203.85 538.6 203.7C543.9 203.55 549.2 203.375 554.5 203.2C559.8 203.025 565.1 202.85 570.4 202.7L570.958 202.679C576.065 202.486 581.086 202.297 586.2 202.2C589.45 202.1 592.725 202.025 596 201.95C599.275 201.875 602.55 201.8 605.8 201.7C611.15 201.55 616.475 201.375 621.8 201.2C627.125 201.025 632.45 200.85 637.8 200.7C641.05 200.6 644.325 200.525 647.6 200.45C650.875 200.375 654.15 200.3 657.4 200.2C662.75 200.05 668.075 199.875 673.4 199.7C678.725 199.525 684.05 199.35 689.4 199.2L689.958 199.179C695.065 198.986 700.086 198.797 705.2 198.7C708.45 198.6 711.675 198.525 714.9 198.45C718.125 198.375 721.35 198.3 724.6 198.2C726.409 198.2 728.128 198.019 729.928 197.829L730.2 197.8C722.689 197.507 715.083 197.31 707.567 197.115L707 197.1C702.7 196.95 698.4 196.825 694.1 196.7C689.8 196.575 685.5 196.45 681.2 196.3C677.3 196.2 673.4 196.075 669.5 195.95C665.6 195.825 661.7 195.7 657.8 195.6C652.95 195.45 648.125 195.3 643.3 195.15C638.475 195 633.65 194.85 628.8 194.7C624.9 194.6 621 194.475 617.1 194.35C613.2 194.225 609.3 194.1 605.4 194C591.6 193.5 577.9 193.1 564.2 192.7C555.201 192.5 546.203 192.2 537.204 191.9L537.2 191.9L536.627 191.885C529.113 191.69 521.509 191.493 514 191.2C512.6 191.15 511.2 191.075 509.8 191C508.4 190.925 507 190.85 505.6 190.8C505.2 190.8 504.7 190.7 504.3 190.4C504.55 190.4 504.775 190.375 505 190.35C505.225 190.325 505.45 190.3 505.7 190.3C509 190.1 512.2 190 515.5 189.9C521.25 189.75 526.975 189.6 532.7 189.45C538.425 189.3 544.15 189.15 549.9 189C556.75 188.8 563.575 188.6 570.4 188.4C577.225 188.2 584.05 188 590.9 187.8C595.15 187.65 599.375 187.525 603.6 187.4C607.825 187.275 612.05 187.15 616.3 187C630.283 186.6 644.166 186.201 658.049 185.801L658.1 185.8C662.5 185.65 666.9 185.525 671.3 185.4C675.7 185.275 680.1 185.15 684.5 185C698.292 184.6 711.983 184.201 725.675 183.801L725.7 183.8C730.1 183.7 734.5 183.5 738.9 183.1C738.55 183.1 738.225 183.075 737.9 183.05C737.575 183.025 737.25 183 736.9 183L705.1 182.4C699.05 182.25 692.975 182.125 686.9 182C680.825 181.875 674.75 181.75 668.7 181.6C662.65 181.45 656.575 181.325 650.5 181.2C644.425 181.075 638.35 180.95 632.3 180.8C626.25 180.65 620.225 180.525 614.2 180.4C608.175 180.275 602.15 180.15 596.1 180C590.05 179.85 584.025 179.725 578 179.6C571.975 179.475 565.95 179.35 559.9 179.2C553.8 179.05 547.7 178.925 541.6 178.8C535.5 178.675 529.4 178.55 523.3 178.4C520.5 178.3 517.7 178.2 514.9 177.8C514.963 177.779 515.021 177.758 515.077 177.738C515.288 177.663 515.463 177.6 515.7 177.6C519.25 177.45 522.825 177.3 526.4 177.15C529.975 177 533.55 176.85 537.1 176.7C541.71 176.504 546.296 176.332 550.87 176.16C555.622 175.982 560.361 175.804 565.1 175.6C569.1 175.4 573.1 175.2 577.1 175.1C581.55 174.95 585.975 174.8 590.4 174.65C594.825 174.5 599.25 174.35 603.7 174.2C615.7 173.8 627.6 173.3 639.5 172.8C648.7 172.4 657.9 172.1 667.1 171.8C671.45 171.65 675.775 171.475 680.1 171.3C684.425 171.125 688.75 170.95 693.1 170.8L693.646 170.773C697.556 170.582 701.382 170.396 705.3 170.3C709.75 170.15 714.175 170 718.6 169.85C723.025 169.7 727.45 169.55 731.9 169.4C739.6 169.1 747.2 168.8 754.9 168.4L748 168.1C739.35 167.9 730.725 167.7 722.1 167.5C713.475 167.3 704.85 167.1 696.2 166.9C681.588 166.508 666.88 166.212 652.264 165.917L651.4 165.9C645.65 165.75 639.925 165.625 634.2 165.5C628.475 165.375 622.75 165.25 617 165.1C611.25 164.95 605.525 164.825 599.8 164.7C594.075 164.575 588.35 164.45 582.6 164.3C576.95 164.15 571.275 164.025 565.6 163.9C559.925 163.775 554.25 163.65 548.6 163.5C545.65 163.45 542.675 163.375 539.7 163.3C536.725 163.225 533.75 163.15 530.8 163.1C530.081 163.1 529.442 163.019 528.739 162.93C528.661 162.92 528.581 162.91 528.5 162.9V162.5C528.9 162.4 529.4 162.3 529.9 162.3L555.7 161.4C560.1 161.25 564.5 161.075 568.9 160.9C573.3 160.725 577.7 160.55 582.1 160.4L582.648 160.374C586.758 160.183 590.783 159.996 594.9 159.9C599.55 159.75 604.225 159.6 608.9 159.45C613.575 159.3 618.25 159.15 622.9 159C635.299 158.6 647.699 158.1 660.098 157.6L660.1 157.6L687.7 156.7C692.186 156.547 696.647 156.368 701.095 156.19C705.371 156.018 709.636 155.847 713.9 155.7C718.1 155.5 722.3 155.3 726.5 155.2L754.1 154.3C758.4 154.2 762.7 154 767 153.7C766.467 153.667 765.933 153.622 765.4 153.578C764.333 153.489 763.267 153.4 762.2 153.4L735.2 152.8C729.9 152.65 724.6 152.525 719.3 152.4C714 152.275 708.7 152.15 703.4 152C698.15 151.85 692.925 151.725 687.7 151.6C682.475 151.475 677.25 151.35 672 151.2C666.7 151.05 661.4 150.925 656.1 150.8C650.8 150.675 645.5 150.55 640.2 150.4C634.9 150.25 629.6 150.125 624.3 150C619 149.875 613.7 149.75 608.4 149.6C603.05 149.45 597.725 149.325 592.4 149.2C587.075 149.075 581.75 148.95 576.4 148.8C571.1 148.65 565.8 148.525 560.5 148.4C555.2 148.275 549.9 148.15 544.6 148C543.4 147.9 542.2 147.8 541 147.3C541.2 147.3 541.4 147.275 541.6 147.25C541.8 147.225 542 147.2 542.2 147.2C546.25 147.05 550.325 146.9 554.4 146.75C558.475 146.6 562.55 146.45 566.6 146.3C571.6 146.1 576.6 145.925 581.6 145.75C586.6 145.575 591.6 145.4 596.6 145.2C600.9 145 605.3 144.8 609.6 144.7L638.4 143.8C651.596 143.4 664.693 142.9 677.789 142.4L677.8 142.4C680.75 142.3 683.725 142.2 686.7 142.1C689.675 142 692.65 141.9 695.6 141.8C700.25 141.65 704.875 141.475 709.5 141.3C714.125 141.125 718.75 140.95 723.4 140.8C727.8 140.6 732.2 140.4 736.6 140.3C741.45 140.15 746.275 140 751.1 139.85C755.925 139.7 760.75 139.55 765.6 139.4C767.1 139.333 768.6 139.278 770.1 139.222C773.1 139.111 776.1 139 779.1 138.8C778.433 138.767 777.767 138.722 777.1 138.678C775.767 138.589 774.433 138.5 773.1 138.5C768.25 138.4 763.375 138.3 758.5 138.2C753.625 138.1 748.75 138 743.9 137.9C738.15 137.75 732.425 137.625 726.7 137.5C720.975 137.375 715.25 137.25 709.5 137.1C703.85 136.95 698.175 136.825 692.5 136.7C686.825 136.575 681.15 136.45 675.5 136.3C669.85 136.15 664.175 136.025 658.5 135.9C652.825 135.775 647.15 135.65 641.5 135.5C635.75 135.35 630.025 135.225 624.3 135.1C618.575 134.975 612.85 134.85 607.1 134.7C601.45 134.55 595.825 134.425 590.2 134.3C584.575 134.175 578.95 134.05 573.3 133.9L573.297 133.9C567.298 133.8 561.299 133.7 555.3 133.5C554.6 133.5 553.8 133.4 553.1 133.3V132.9C553.6 132.8 554.1 132.7 554.6 132.7C558.85 132.55 563.125 132.4 567.4 132.25C571.675 132.1 575.95 131.95 580.2 131.8C584.686 131.647 589.147 131.468 593.595 131.29C597.871 131.118 602.136 130.947 606.4 130.8C609.25 130.7 612.125 130.6 615 130.5C617.875 130.4 620.75 130.3 623.6 130.2C628.15 130.05 632.675 129.875 637.2 129.7C641.725 129.525 646.25 129.35 650.8 129.2C655 129 659.2 128.8 663.4 128.7L691 127.8C703.597 127.4 716.094 126.9 728.592 126.4L728.6 126.4C731.35 126.3 734.125 126.2 736.9 126.1C739.675 126 742.45 125.9 745.2 125.8C749.786 125.647 754.347 125.468 758.895 125.29C763.271 125.118 767.636 124.947 772 124.8L772.289 124.791C778.695 124.594 785.196 124.394 791.6 124C791.067 123.967 790.533 123.922 790 123.878C788.933 123.789 787.867 123.7 786.8 123.7C779.85 123.55 772.925 123.375 766 123.2C759.075 123.025 752.15 122.85 745.2 122.7C740.15 122.55 735.075 122.425 730 122.3C724.925 122.175 719.85 122.05 714.8 121.9C709.75 121.75 704.725 121.625 699.7 121.5C694.675 121.375 689.65 121.25 684.6 121.1C679.45 120.95 674.275 120.825 669.1 120.7C663.925 120.575 658.75 120.45 653.6 120.3C648.55 120.15 643.525 120.025 638.5 119.9C633.475 119.775 628.45 119.65 623.4 119.5C618.2 119.35 613 119.225 607.8 119.1C602.6 118.975 597.4 118.85 592.2 118.7C584.1 118.4 576.1 118.2 568 118H565V117.6C565.7 117.55 566.375 117.475 567.05 117.4C567.725 117.325 568.4 117.25 569.1 117.2C573.4 117 577.8 116.8 582.1 116.7C587.05 116.55 592.025 116.4 597 116.25C601.975 116.1 606.95 115.95 611.9 115.8C616.787 115.647 621.647 115.469 626.495 115.291C631.171 115.119 635.836 114.947 640.5 114.8C642.6 114.75 644.7 114.675 646.8 114.6C648.9 114.525 651 114.45 653.1 114.4C663.2 114 673.2 113.7 683.3 113.4C688.05 113.25 692.775 113.075 697.5 112.9C702.225 112.725 706.95 112.55 711.7 112.4L712.252 112.375C716.56 112.184 720.784 111.996 725.1 111.9C730.05 111.75 734.975 111.6 739.9 111.45C744.825 111.3 749.75 111.15 754.7 111L756.091 110.948C768.921 110.465 781.664 109.986 794.5 109.6C796.63 109.533 798.715 109.555 800.815 109.578C801.87 109.589 802.93 109.6 804 109.6V109.1C801.2 109.05 798.4 108.975 795.6 108.9C792.8 108.825 790 108.75 787.2 108.7C781.95 108.55 776.675 108.425 771.4 108.3C766.125 108.175 760.85 108.05 755.6 107.9C750.45 107.75 745.275 107.625 740.1 107.5C734.925 107.375 729.75 107.25 724.6 107.1C719.35 106.95 714.075 106.825 708.8 106.7C703.525 106.575 698.25 106.45 693 106.3C687.75 106.15 682.525 106.025 677.3 105.9C672.075 105.775 666.85 105.65 661.6 105.5C656.45 105.35 651.275 105.225 646.1 105.1C640.925 104.975 635.75 104.85 630.6 104.7C625.3 104.55 620 104.425 614.7 104.3C609.4 104.175 604.1 104.05 598.8 103.9C595.55 103.8 592.325 103.7 589.1 103.6C585.875 103.5 582.65 103.4 579.4 103.3C578.7 103.2 578 103.1 577.3 102.8C577.439 102.8 577.6 102.778 577.772 102.755C577.971 102.729 578.186 102.7 578.4 102.7C582.45 102.55 586.475 102.4 590.5 102.25C594.525 102.1 598.55 101.95 602.6 101.8C607.6 101.65 612.6 101.475 617.6 101.3C622.6 101.125 627.6 100.95 632.6 100.8L632.601 100.8C637.001 100.6 641.4 100.4 645.8 100.3C650.65 100.15 655.525 100 660.4 99.85C665.275 99.7 670.15 99.55 675 99.4C688.2 99 701.3 98.5 714.4 98L732.4 97.4C737.15 97.25 741.875 97.075 746.6 96.9C751.325 96.725 756.05 96.55 760.8 96.4C762.8 96.35 764.8 96.275 766.8 96.2C768.8 96.125 770.8 96.05 772.8 96C782.9 95.6 792.9 95.3 803 95C804.533 94.9333 806.067 94.8778 807.6 94.8222C810.667 94.7111 813.733 94.6 816.8 94.4C816.267 94.3667 815.733 94.3222 815.2 94.2778C814.133 94.1889 813.067 94.1 812 94.1L789.2 93.5C784.65 93.35 780.125 93.225 775.6 93.1C771.075 92.975 766.55 92.85 762 92.7C757.45 92.55 752.925 92.425 748.4 92.3C743.875 92.175 739.35 92.05 734.8 91.9C730.25 91.75 725.675 91.625 721.1 91.5C716.525 91.375 711.95 91.25 707.4 91.1C702.85 90.95 698.325 90.825 693.8 90.7C689.275 90.575 684.75 90.45 680.2 90.3C675.65 90.15 671.125 90.025 666.6 89.9C662.075 89.775 657.55 89.65 653 89.5C648.45 89.35 643.925 89.225 639.4 89.1C634.875 88.975 630.35 88.85 625.8 88.7C621.25 88.55 616.725 88.425 612.2 88.3C607.675 88.175 603.15 88.05 598.6 87.9L591.4 87.6C591 87.6 590.5 87.5 590.1 87.2C591.25 87.15 592.4 87.075 593.55 87C594.7 86.925 595.85 86.85 597 86.8L616.8 86.2C622.1 86.05 627.4 85.875 632.7 85.7C638 85.525 643.3 85.35 648.6 85.2L649.156 85.1773C653.864 84.985 658.485 84.7962 663.2 84.7C668.65 84.55 674.075 84.4 679.5 84.25C684.925 84.1 690.35 83.95 695.8 83.8C700.95 83.65 706.075 83.475 711.2 83.3C716.325 83.125 721.45 82.95 726.6 82.8C729.95 82.7 733.275 82.6 736.6 82.5C739.925 82.4 743.25 82.3 746.6 82.2C757.6 81.8 768.6 81.4 779.6 81.1C783.05 81 786.475 80.9 789.9 80.8C793.325 80.7 796.75 80.6 800.2 80.5C809.5 80.2 818.7 79.9 828 79.5C827.381 79.4674 826.762 79.4242 826.14 79.3808C824.852 79.2909 823.548 79.2 822.2 79.2C815.5 79.05 808.8 78.875 802.1 78.7C795.4 78.525 788.7 78.35 782 78.2C771.802 78 761.603 77.7001 751.405 77.4002L751.4 77.4C746.45 77.25 741.475 77.125 736.5 77C731.525 76.875 726.55 76.75 721.6 76.6C716.5 76.45 711.4 76.325 706.3 76.2C701.2 76.075 696.1 75.95 691 75.8C686.05 75.65 681.075 75.525 676.1 75.4C671.125 75.275 666.15 75.15 661.2 75C656.05 74.85 650.925 74.725 645.8 74.6C640.675 74.475 635.55 74.35 630.4 74.2C622 73.9 613.6 73.7 605.2 73.5C604.2 73.5 603.2 73.4 602.2 73C602.484 72.9684 602.779 72.9268 603.077 72.8847C603.722 72.7936 604.384 72.7 605 72.7C609.5 72.5 614.1 72.3 618.6 72.2C623.55 72.05 628.525 71.9 633.5 71.75C638.475 71.6 643.45 71.45 648.4 71.3C661.797 70.9001 675.094 70.4002 688.391 69.9003L688.4 69.9C691.55 69.8 694.675 69.7 697.8 69.6C700.925 69.5 704.05 69.4 707.2 69.3C712.187 69.1474 717.147 68.9688 722.095 68.7907C726.871 68.6188 731.636 68.4474 736.4 68.3C740.9 68.1 745.5 67.9 750 67.8L780 66.9C793.6 66.5 807.1 66 820.6 65.5L820.603 65.4999C827.602 65.2999 834.601 65.1 841.6 64.8C840.4 64.75 839.225 64.7 838.05 64.65C836.875 64.6 835.7 64.55 834.5 64.5L809.3 63.9C804.95 63.8 800.575 63.675 796.2 63.55C791.825 63.425 787.45 63.3 783.1 63.2C777.65 63.05 772.175 62.9 766.7 62.75C761.225 62.6 755.75 62.45 750.3 62.3C745.85 62.2 741.425 62.075 737 61.95C732.575 61.825 728.15 61.7 723.7 61.6L690.7 60.7C685.75 60.55 680.775 60.425 675.8 60.3C670.825 60.175 665.85 60.05 660.9 59.9C656 59.75 651.1 59.625 646.2 59.5C641.3 59.375 636.4 59.25 631.5 59.1C629.1 59.05 626.7 58.975 624.3 58.9C621.9 58.825 619.5 58.75 617.1 58.7C616.661 58.7 616.168 58.6464 615.543 58.5785C615.315 58.5536 615.068 58.5268 614.8 58.5C615.61 57.7798 616.258 57.789 616.89 57.798C616.96 57.799 617.03 57.8 617.1 57.8L627.3 57.5L657.9 56.6C662.887 56.4474 667.847 56.2688 672.795 56.0907C677.571 55.9188 682.336 55.7474 687.1 55.6C690.15 55.5 693.225 55.4 696.3 55.3C699.375 55.2 702.45 55.1 705.5 55C710.587 54.8474 715.647 54.6689 720.695 54.4909C725.572 54.3189 730.436 54.1474 735.3 54L735.853 53.9765C740.361 53.7845 744.785 53.5961 749.3 53.5C754.35 53.35 759.425 53.2 764.5 53.05C769.575 52.9 774.65 52.75 779.7 52.6C793.3 52.2 806.9 51.7 820.5 51.2L839.1 50.6C840.767 50.5333 842.433 50.4778 844.1 50.4222C847.433 50.3111 850.767 50.2 854.1 50C850.55 49.9 847 49.825 843.45 49.75C839.9 49.675 836.35 49.6 832.8 49.5C827.3 49.35 821.8 49.225 816.3 49.1C810.8 48.975 805.3 48.85 799.8 48.7C794.35 48.55 788.875 48.425 783.4 48.3C777.925 48.175 772.45 48.05 767 47.9C761.45 47.75 755.875 47.625 750.3 47.5C744.725 47.375 739.15 47.25 733.6 47.1C728.15 46.95 722.725 46.825 717.3 46.7C711.875 46.575 706.45 46.45 701 46.3C695.45 46.15 689.925 46.025 684.4 45.9C678.875 45.775 673.35 45.65 667.8 45.5C662.3 45.35 656.8 45.225 651.3 45.1C645.8 44.975 640.3 44.85 634.8 44.7L634.701 44.6965C631.932 44.5976 629.066 44.4953 626.2 44.1C626.5 44 626.8 43.9 627.1 43.9C630.55 43.75 634.025 43.625 637.5 43.5C640.975 43.375 644.45 43.25 647.9 43.1C652.91 42.9035 657.896 42.7312 662.87 42.5592C668.022 42.3812 673.161 42.2035 678.3 42L695.1 41.4C699.787 41.2472 704.447 41.0684 709.095 40.8901C713.571 40.7184 718.036 40.5472 722.5 40.4C724.75 40.3 727.025 40.225 729.3 40.15C731.575 40.075 733.85 40 736.1 39.9L764.3 39C777.1 38.6 789.9 38.1 802.7 37.6C812.2 37.2 821.6 36.9 831.1 36.6C835.6 36.45 840.1 36.275 844.6 36.1C849.1 35.925 853.6 35.75 858.1 35.6C858.865 35.5753 859.625 35.5567 860.381 35.5382C862.688 35.4817 864.965 35.4259 867.3 35.2C865.45 35.15 863.575 35.075 861.7 35C859.825 34.925 857.95 34.85 856.1 34.8C849.6 34.6 843.1 34.425 836.6 34.25C830.1 34.075 823.6 33.9 817.1 33.7C811.85 33.55 806.575 33.4 801.3 33.25C796.025 33.1 790.75 32.95 785.5 32.8L750.1 31.9C740.1 31.7 730.1 31.4 720.1 31.1C715.35 30.95 710.575 30.825 705.8 30.7C701.025 30.575 696.25 30.45 691.5 30.3C686.75 30.15 682.025 30.025 677.3 29.9C672.575 29.775 667.85 29.65 663.1 29.5C659.45 29.4 655.775 29.275 652.1 29.15C648.425 29.025 644.75 28.9 641.1 28.8C640.96 28.78 640.82 28.764 640.68 28.748C640.12 28.684 639.56 28.62 639 28.3C640.012 28.2518 641.048 28.1803 642.096 28.108C643.221 28.0304 644.361 27.9518 645.5 27.9C648.65 27.8 651.825 27.7 655 27.6C658.175 27.5 661.35 27.4 664.5 27.3C669.45 27.15 674.375 26.975 679.3 26.8C684.225 26.625 689.15 26.45 694.1 26.3C699 26.1 704 25.9 708.9 25.8C714.05 25.65 719.225 25.5 724.4 25.35C729.575 25.2 734.75 25.05 739.9 24.9C753.534 24.5132 767.074 24.033 780.702 23.5496L782.1 23.5C785.25 23.4 788.425 23.3 791.6 23.2C794.775 23.1 797.95 23 801.1 22.9C806.187 22.7474 811.247 22.5689 816.295 22.3909C821.172 22.2189 826.036 22.0474 830.9 21.9C836.2 21.8 841.6 21.6 846.9 21.4C852.25 21.2 857.575 21.025 862.9 20.85C868.225 20.675 873.55 20.5 878.9 20.3C875.45 20.2 872 20.125 868.55 20.05C865.1 19.975 861.65 19.9 858.2 19.8C852.95 19.65 847.675 19.525 842.4 19.4C837.125 19.275 831.85 19.15 826.6 19C821.45 18.85 816.275 18.725 811.1 18.6C805.925 18.475 800.75 18.35 795.6 18.2C790.4 18.05 785.2 17.925 780 17.8C774.8 17.675 769.6 17.55 764.4 17.4C759.15 17.25 753.925 17.125 748.7 17C743.475 16.875 738.25 16.75 733 16.6C727.85 16.45 722.675 16.325 717.5 16.2C712.325 16.075 707.15 15.95 702 15.8C696.7 15.65 691.4 15.525 686.1 15.4C680.8 15.275 675.5 15.15 670.2 15C664.7 14.9 659.3 14.8 653.8 14.6C652.9 14.6 652.1 14.5 651.3 14.4V14C651.376 13.9873 651.451 13.9746 651.524 13.9621C652.029 13.8762 652.476 13.8 653 13.8C657.55 13.65 662.075 13.5 666.6 13.35C671.125 13.2 675.65 13.05 680.2 12.9C693.4 12.5 706.6 12 719.8 11.5C729.7 11.1 739.5 10.8 749.4 10.5C754.1 10.35 758.8 10.175 763.5 10C768.2 9.825 772.9 9.65 777.6 9.5L778.148 9.47447C782.258 9.28316 786.283 9.09574 790.4 9L819.8 8.10001C824.587 7.94724 829.347 7.76855 834.095 7.59033C838.671 7.41856 843.236 7.24724 847.8 7.10001C853.2 7.00001 858.6 6.80001 864 6.60001C873.3 6.30001 882.5 6.00001 891.8 5.60001C889.393 5.40741 886.892 5.30755 884.478 5.21113L884.2 5.20001C869.9 4.80001 855.7 4.39999 841.4 3.89999C835.15 3.69999 828.925 3.5 822.7 3.3C816.475 3.10001 810.25 2.90001 804 2.70001C798.389 2.50315 792.803 2.33051 787.229 2.15825C781.477 1.9805 775.739 1.80315 770 1.60001C758.249 1.20167 746.598 0.803328 734.946 0.404995L734.8 0.399994C734.267 0.399994 733.769 0.294782 733.265 0.188204C732.917 0.114815 732.567 0.0407789 732.2 0ZM423.7 218.3C423.8 218.5 423.8 218.7 423.8 218.9C402.226 219.971 380.628 221.066 359.019 222.162C336.255 223.316 313.477 224.471 290.7 225.6V225.7C312.25 226.45 333.825 227.2 355.4 227.95C376.975 228.7 398.55 229.45 420.1 230.2V230.7L419.548 230.748C417.447 230.931 415.423 231.108 413.4 231.2C408.9 231.45 404.375 231.7 399.85 231.95C395.325 232.2 390.8 232.45 386.3 232.7C382.16 232.944 378.02 233.163 373.891 233.383C369.544 233.613 365.209 233.844 360.9 234.1C352.8 234.5 344.6 235 336.4 235.5C330.4 235.9 324.5 236.2 318.6 236.5C315.65 236.65 312.725 236.825 309.8 237C306.875 237.175 303.95 237.35 301 237.5C299.013 237.601 297.038 237.725 295.066 237.848C291.183 238.091 287.313 238.334 283.4 238.4C272.029 238.666 260.614 238.844 249.213 239.021C243.469 239.11 237.729 239.2 232 239.3C222.15 239.45 212.275 239.575 202.4 239.7C192.525 239.825 182.65 239.95 172.8 240.1C164.7 240.3 156.7 240.4 148.6 240.5H147.6C145.6 240.5 144.8 239.7 144.7 237.6C144.6 233.3 144.5 229.1 144.3 224.8C144.225 223.417 144.192 222.033 144.16 220.655C144.105 218.347 144.05 216.054 143.8 213.8C142.8 203.7 138.9 194.7 132.1 187C131.1 185.9 130.001 184.801 128.901 183.701L128.9 183.7L128.1 182.9C127.4 182.1 127.3 181.2 127.7 180.3C128 179.4 128.8 178.8 129.8 178.8H147.5C147.628 179.185 147.798 179.569 147.955 179.928C148.044 180.128 148.128 180.321 148.2 180.5C149.6 183.7 151.9 185.7 155.4 186.1C156.8 186.3 158.2 186.3 159.6 186.3C174.837 186.3 190.063 186.289 205.285 186.278C235.719 186.256 266.137 186.233 296.6 186.3C303.085 186.375 309.515 186.616 315.972 186.858C318.177 186.941 320.385 187.024 322.6 187.1C327.1 187.3 331.7 187.5 336.2 187.6C350.1 188 363.9 188.4 377.8 188.9L412.6 190.1C416.45 190.25 420.325 190.375 424.2 190.5C428.075 190.625 431.95 190.75 435.8 190.9C436.5 190.9 437.1 191 437.7 191.1V191.5C437.65 191.5 437.625 191.525 437.6 191.55C437.575 191.575 437.55 191.6 437.5 191.6C437.427 191.615 437.356 191.629 437.287 191.643C436.881 191.727 436.527 191.8 436.1 191.8L436.096 191.8C390.297 194.1 344.499 196.4 298.7 198.8C320.6 199.75 342.475 200.725 364.35 201.7C386.225 202.675 408.1 203.65 430 204.6C430.1 204.8 430.1 204.9 430.1 205.1C429.9 205.133 429.7 205.178 429.5 205.222C429.1 205.311 428.7 205.4 428.3 205.4C420.3 205.8 412.4 206.2 404.5 206.7C396.7 207.1 388.8 207.6 381 208.1C375.2 208.4 369.5 208.7 363.8 209C355.9 209.4 347.9 209.9 339.9 210.4C334.317 210.699 328.834 210.998 323.351 211.297L323.3 211.3C320.45 211.45 317.625 211.625 314.8 211.8C311.975 211.975 309.15 212.15 306.3 212.3L306.154 212.308C302.3 212.505 298.351 212.708 294.5 213.3C316.05 214.15 337.575 214.975 359.1 215.8C380.625 216.625 402.15 217.45 423.7 218.3ZM530.3 12.7C530.2 12.9 530.2 13 530.2 13.2C513.655 14.0045 497.122 14.8213 480.601 15.6375C449.892 17.1546 419.225 18.6696 388.6 20.1V20.3L519.7 26.3V26.8C519.419 26.8351 519.151 26.8825 518.886 26.9293C518.396 27.0157 517.919 27.1 517.4 27.1C514.35 27.25 511.325 27.4 508.3 27.55C505.275 27.7 502.25 27.85 499.2 28C496.2 28.15 493.2 28.325 490.2 28.5C487.2 28.675 484.2 28.85 481.2 29C475.2 29.4 469.3 29.7 463.4 30C460.2 30.15 457 30.325 453.8 30.5C450.6 30.675 447.4 30.85 444.2 31C438.2 31.4 432.3 31.7 426.4 32C423.114 32.154 419.854 32.3344 416.607 32.5141C413.53 32.6844 410.465 32.854 407.4 33C404.4 33.2 401.4 33.35 398.4 33.5C395.4 33.65 392.4 33.8 389.4 34C379.232 34.688 369.123 34.6163 358.983 34.5444C355.859 34.5222 352.732 34.5 349.6 34.5H35.4C35.1333 34.5 34.8667 34.5111 34.6 34.5222C34.0667 34.5444 33.5333 34.5667 33 34.5C31.7 34.3 31.2 33.4 31.8 32.2C32 31.7 32.3 31.2 32.6 30.8C41.5 17.8 53.6 9.89999 69.2 7.39999C72.1 6.89999 75.1 6.70001 78 6.70001C111.274 6.70001 144.537 6.6889 177.793 6.67778C244.281 6.65556 310.741 6.63335 377.2 6.70001C382.853 6.70001 388.465 6.98238 394.088 7.2653C397.319 7.42784 400.553 7.59055 403.8 7.70001C407.8 7.90001 411.8 8.10001 415.8 8.20001L415.805 8.20016C428.203 8.60011 440.602 9.00006 453 9.5L484.2 10.7C494.8 11.1 505.3 11.5 515.8 11.9C517.8 12 519.8 12.075 521.8 12.15C523.8 12.225 525.8 12.3 527.8 12.4C528.2 12.45 528.625 12.5 529.05 12.55C529.475 12.6 529.9 12.65 530.3 12.7Z" fill="#F05A28"/>
<path d="M192.743 59.4336C192.743 59.7911 192.922 60.1487 192.922 60.8637V62.4726V65.5117L192.743 71.2322L192.565 81.9582L192.207 100.192C192.028 109.131 191.85 116.639 191.85 122.359C191.671 128.259 191.492 133.085 191.313 136.839C191.135 140.594 190.956 143.633 190.777 145.778C190.598 147.923 190.42 149.889 190.42 151.498L189.883 154.001H126.421L126.6 140.236H79.5843L67.7858 154.001H43.8311L122.131 59.4336H192.743ZM127.673 82.1369L92.6343 124.326H127.136C127.136 121.466 127.315 118.784 127.494 115.924C127.494 113.064 127.673 110.203 127.851 107.343V95.3657C127.851 91.0753 127.673 86.7849 127.673 82.1369Z" fill="white"/>
<path d="M214.371 154.001C210.617 154.001 208.115 152.75 206.684 150.247C205.254 147.744 204.718 144.705 204.718 140.772C204.718 138.27 204.897 135.409 205.612 132.37C206.327 129.331 207.042 126.292 207.936 123.253C208.83 120.214 209.902 117.175 210.975 114.136C212.047 111.276 212.941 108.416 214.014 105.555C216.159 99.8348 218.662 94.1143 221.522 88.5725C224.204 83.0308 227.243 78.0253 230.46 73.7349C233.678 69.4445 237.075 66.048 240.829 63.3665C244.404 60.8637 248.337 59.4336 252.27 59.4336H355.597C355.597 60.1487 355.776 60.685 355.776 61.0425C355.776 61.5788 355.954 61.9363 355.954 62.1151C355.954 64.0815 355.418 65.8692 354.703 67.6569C353.988 69.2657 353.273 70.6959 352.379 72.126C351.307 73.5561 350.413 74.8075 349.34 75.8801H289.275C288.917 76.2376 288.202 76.9527 287.487 78.0253C286.593 79.2767 285.52 80.8856 284.448 82.6732C283.197 84.6397 281.945 86.9636 280.515 89.4664C279.085 91.9691 277.834 94.6506 276.761 97.5108H333.966C333.966 98.2259 333.966 98.7622 333.966 99.1197C333.966 99.656 334.145 100.192 334.145 100.55C334.145 101.265 333.966 102.159 333.966 102.874C333.787 103.589 333.609 104.483 333.251 105.198C332.536 106.807 331.642 108.237 330.748 109.667C329.676 111.097 328.782 112.348 327.888 113.421H270.504C268.359 119.142 266.929 123.968 266.035 127.544C265.141 131.298 264.784 134.158 264.784 136.303L264.962 138.091H325.564C325.564 138.806 325.564 139.342 325.564 139.878C325.564 140.415 325.743 140.951 325.743 141.309C325.743 143.454 325.385 145.063 325.028 145.778C324.313 147.387 323.598 148.817 322.525 150.247C321.453 151.677 320.559 152.928 319.486 154.001H214.371Z" fill="white"/>
<path d="M368.733 59.4336H471.703C474.384 59.4336 477.602 59.6124 481.356 59.9699C485.11 60.3274 488.686 61.2213 492.082 62.2939C495.3 63.5452 498.16 65.3329 500.484 67.4781C502.808 69.8021 504.06 72.8411 504.06 76.4164C503.881 78.2041 503.345 80.8856 502.451 84.1034C501.378 87.4999 500.306 90.8965 498.875 94.4718C496.015 101.622 492.082 107.522 486.719 111.812C481.356 116.281 475.636 119.32 469.558 120.929L480.999 154.001H417.358L404.666 119.678L391.616 154.001H332.623L368.733 59.4336ZM421.648 75.3438L409.313 107.701C418.609 107.701 425.76 106.449 430.765 103.768C435.771 101.265 439.346 96.9745 441.491 91.254L442.743 87.4999C443.637 85.5335 444.173 83.7458 444.352 81.9582C444.53 80.3493 444.888 78.2041 445.245 75.3438H421.648Z" fill="white"/>
<path d="M505.902 105.555C508.226 99.656 510.728 93.9355 513.589 88.3938C516.449 82.852 519.488 77.8465 522.706 73.5561C525.924 69.2657 529.32 65.8692 532.896 63.3665C536.471 60.8637 540.404 59.4336 544.337 59.4336H651.596C655.172 59.4336 657.674 60.8637 659.283 63.3665C660.714 65.8692 661.429 69.2657 661.429 73.3774C661.25 78.0253 660.356 83.3883 658.926 89.2876C657.317 95.3656 655.351 101.444 653.027 107.879C650.703 113.957 648.021 119.678 645.161 125.22C642.301 130.761 639.083 135.588 635.865 139.878C632.647 144.169 629.072 147.744 625.497 150.247C621.742 152.75 617.988 154.001 614.055 154.001H506.617C502.863 154.001 500.36 152.75 498.93 150.247C497.5 147.744 496.785 144.526 496.785 140.594C496.785 135.231 497.857 129.51 499.824 123.074C501.611 116.818 503.757 110.918 505.902 105.555ZM576.515 138.091C576.693 138.091 577.408 137.018 578.66 135.231C579.732 133.443 581.162 131.119 582.771 128.259C584.201 125.577 585.81 122.538 587.598 119.142C589.207 115.745 590.637 112.348 592.067 109.131L594.212 103.946C595.464 100.371 596.536 96.7958 597.43 93.578C598.145 90.3602 598.86 87.3212 599.218 84.8184C599.575 82.3157 599.933 80.1705 600.112 78.3828C600.29 76.7739 600.469 75.7013 600.469 75.3438H582.056C581.699 75.7013 580.984 76.5952 579.911 78.2041C578.838 79.813 577.408 81.9582 575.978 84.4609C574.369 87.1424 572.76 90.1814 570.973 93.3992C569.185 96.617 567.755 100.014 566.682 103.589L564.537 108.952C562.034 115.745 560.247 121.466 559.174 125.756C558.102 130.225 557.744 133.622 557.744 135.946C557.744 137.376 557.744 138.091 557.923 138.091H576.515Z" fill="white"/>
<path d="M676.889 93.9355C676.532 92.5054 676.353 91.0753 676.174 89.8239C675.995 88.5725 675.995 87.3212 676.174 86.2486C676.174 84.8184 676.174 83.3883 676.532 81.7794C676.71 80.1705 677.247 78.3828 678.141 76.2376C679.034 73.7349 680.464 71.4109 682.252 69.2657C684.04 67.1206 686.185 65.3329 688.509 63.9028C690.833 62.4726 693.336 61.4 696.017 60.685C698.52 59.9699 701.201 59.4336 703.704 59.4336H790.406C790.406 59.9699 790.585 60.5062 790.585 60.8637C790.585 61.2213 790.763 61.7576 790.763 62.2939C790.763 63.0089 790.406 64.6178 789.691 67.1206C788.976 68.7295 788.261 70.1596 787.367 71.5897C786.294 73.0198 785.4 74.2712 784.328 75.3438H751.077C750.005 77.1315 749.647 79.4554 749.647 82.3157C749.647 83.5671 749.647 84.8184 749.826 86.2486C749.826 87.6787 750.005 89.2876 750.005 91.254L762.339 119.499C762.518 120.929 762.697 122.181 763.055 123.432C763.233 124.683 763.412 125.935 763.412 127.365C763.055 130.046 762.34 133.264 761.088 137.197C758.943 142.56 755.546 146.85 750.898 149.711C746.072 152.571 741.066 154.001 735.703 154.001H649.002C648.823 153.465 648.644 152.928 648.644 152.392C648.644 152.035 648.644 151.498 648.644 150.962C648.644 149.532 649.002 148.102 649.717 146.314C650.253 144.884 650.968 143.454 652.041 142.024C652.934 140.594 654.007 139.342 655.08 138.091H688.151C688.33 137.555 688.509 136.303 688.867 134.337C689.045 132.37 689.224 130.225 689.403 127.722V125.041C689.403 124.683 689.224 124.326 689.224 123.79C689.224 123.432 689.045 122.896 689.045 122.181L676.889 93.9355Z" fill="#231F20"/>
<path d="M803.966 59.4336H906.935C909.616 59.4336 912.834 59.6124 916.588 59.9699C920.342 60.3274 923.918 61.2213 927.314 62.2939C930.532 63.5452 933.392 65.3329 935.716 67.4781C938.04 69.8021 939.292 72.8411 939.292 76.4164C939.113 78.2041 938.577 80.8856 937.683 84.1034C936.61 87.4999 935.538 90.8965 934.107 94.4718C929.817 105.555 923.203 113.242 914.264 117.711C905.147 122.359 894.064 124.505 881.014 124.505H838.11L826.848 154.001H767.855L803.966 59.4336ZM856.88 75.3438L844.009 108.594C853.305 108.594 860.456 107.164 865.64 104.304C870.824 101.444 874.399 96.9745 876.545 91.254L877.796 87.4999C878.511 85.7123 879.047 83.9246 879.226 82.3157C879.226 80.8856 879.584 78.5616 880.299 75.3438H856.88Z" fill="#231F20"/>
<path d="M941.645 105.555C943.969 99.656 946.472 93.9355 949.332 88.3938C952.192 82.852 955.231 77.8465 958.449 73.5561C961.667 69.2657 965.063 65.8692 968.639 63.3665C972.214 60.8637 976.147 59.4336 980.08 59.4336H1087.34C1090.91 59.4336 1093.42 60.8637 1095.03 63.3665C1096.46 65.8692 1097.17 69.2657 1097.17 73.3774C1096.99 78.0253 1096.1 83.3883 1094.67 89.2876C1093.06 95.3656 1091.09 101.444 1088.77 107.879C1086.45 113.957 1083.76 119.678 1080.9 125.22C1078.04 130.761 1074.83 135.588 1071.61 139.878C1068.39 144.169 1064.82 147.744 1061.24 150.247C1057.49 152.75 1053.73 154.001 1049.8 154.001H942.36C938.606 154.001 936.103 152.75 934.673 150.247C933.243 147.744 932.528 144.526 932.528 140.594C932.528 135.231 933.6 129.51 935.567 123.074C937.355 116.818 939.5 110.918 941.645 105.555ZM1012.26 138.091C1012.44 138.091 1013.15 137.018 1014.4 135.231C1015.48 133.443 1016.91 131.119 1018.51 128.259C1019.94 125.577 1021.55 122.538 1023.34 119.142C1024.95 115.745 1026.38 112.348 1027.81 109.131L1029.96 103.946C1031.21 100.371 1032.28 96.7958 1033.17 93.578C1033.89 90.3602 1034.6 87.3212 1034.96 84.8184C1035.32 82.3157 1035.68 80.1705 1035.85 78.3828C1036.03 76.7739 1036.21 75.7013 1036.21 75.3438H1017.8C1017.44 75.7013 1016.73 76.5952 1015.65 78.2041C1014.58 79.813 1013.15 81.9582 1011.72 84.4609C1010.11 87.1424 1008.5 90.1814 1006.72 93.3992C1004.93 96.617 1003.5 100.014 1002.43 103.589L1000.28 108.952C997.778 115.745 995.99 121.466 994.917 125.756C993.845 130.225 993.487 133.622 993.487 135.946C993.487 137.376 993.487 138.091 993.666 138.091H1012.26Z" fill="#231F20"/>
<path d="M1192.25 154.001L1228.36 59.4336H1287.53L1257.5 138.091H1297.37C1297.37 138.806 1297.37 139.342 1297.37 139.878C1297.37 140.415 1297.54 140.951 1297.54 141.309C1297.54 143.454 1297.19 145.063 1296.83 145.778C1296.11 147.387 1295.4 148.817 1294.33 150.247C1293.25 151.677 1292.36 152.928 1291.29 154.001H1192.25Z" fill="#231F20"/>
<path d="M1321.89 154.001C1318.13 154.001 1315.63 152.75 1314.2 150.247C1312.77 147.744 1312.23 144.705 1312.23 140.772C1312.23 138.27 1312.41 135.409 1313.13 132.37C1313.84 129.331 1314.56 126.292 1315.45 123.253C1316.34 120.214 1317.42 117.175 1318.49 114.136C1319.56 111.276 1320.46 108.416 1321.53 105.555C1323.67 99.8348 1326.18 94.1143 1329.04 88.5725C1331.72 83.0308 1334.76 78.0253 1337.97 73.7349C1341.19 69.4445 1344.59 66.048 1348.34 63.3665C1351.92 60.8637 1355.85 59.4336 1359.78 59.4336H1463.11C1463.11 60.1487 1463.29 60.685 1463.29 61.0425C1463.29 61.5788 1463.47 61.9363 1463.47 62.1151C1463.47 64.0815 1462.93 65.8692 1462.22 67.6569C1461.5 69.2657 1460.79 70.6959 1459.89 72.126C1458.82 73.5561 1457.93 74.8075 1456.85 75.8801H1396.79C1396.43 76.2376 1395.72 76.9527 1395 78.0253C1394.11 79.2767 1393.03 80.8856 1391.96 82.6732C1390.71 84.6397 1389.46 86.9636 1388.03 89.4664C1386.6 91.9691 1385.35 94.6506 1384.27 97.5108H1441.48C1441.48 98.2259 1441.48 98.7622 1441.48 99.1197C1441.48 99.656 1441.66 100.192 1441.66 100.55C1441.66 101.265 1441.48 102.159 1441.48 102.874C1441.3 103.589 1441.12 104.483 1440.77 105.198C1440.05 106.807 1439.16 108.237 1438.26 109.667C1437.19 111.097 1436.3 112.348 1435.4 113.421H1378.02C1375.87 119.142 1374.44 123.968 1373.55 127.544C1372.66 131.298 1372.3 134.158 1372.3 136.303L1372.48 138.091H1433.08C1433.08 138.806 1433.08 139.342 1433.08 139.878C1433.08 140.415 1433.26 140.951 1433.26 141.309C1433.26 143.454 1432.9 145.063 1432.54 145.778C1431.83 147.387 1431.11 148.817 1430.04 150.247C1428.97 151.677 1428.07 152.928 1427 154.001H1321.89Z" fill="#231F20"/>
<path d="M1476.25 59.4336H1579.22C1581.9 59.4336 1585.12 59.6124 1588.87 59.9699C1592.62 60.3274 1596.2 61.2213 1599.6 62.2939C1602.81 63.5452 1605.67 65.3329 1608 67.4781C1610.32 69.8021 1611.57 72.8411 1611.57 76.4164C1611.39 78.2041 1610.86 80.8856 1609.96 84.1034C1608.89 87.4999 1607.82 90.8965 1606.39 94.4718C1603.53 101.622 1599.6 107.522 1594.23 111.812C1588.87 116.281 1583.15 119.32 1577.07 120.929L1588.51 154.001H1524.87L1512.18 119.678L1499.13 154.001H1440.14L1476.25 59.4336ZM1529.16 75.3438L1516.83 107.701C1526.12 107.701 1533.27 106.449 1538.28 103.768C1543.28 101.265 1546.86 96.9745 1549.01 91.254L1550.26 87.4999C1551.15 85.5335 1551.69 83.7458 1551.87 81.9582C1552.04 80.3493 1552.4 78.2041 1552.76 75.3438H1529.16Z" fill="#231F20"/>
<path d="M1596.61 148.996L1602.15 134.873C1602.33 134.158 1602.87 133.622 1603.58 132.907C1604.3 132.37 1605.19 131.834 1606.27 131.298C1607.16 130.94 1608.05 130.583 1609.13 130.225C1610.2 129.868 1611.09 129.689 1611.81 129.689H1627.72C1628.97 129.689 1630.4 130.225 1631.83 131.119C1633.26 132.013 1633.97 133.085 1633.97 134.158L1628.25 148.996C1627.72 150.068 1626.47 151.32 1624.32 152.392C1622.18 153.465 1620.21 154.001 1618.6 154.001H1602.69C1601.26 154.001 1599.83 153.643 1598.58 152.571C1597.15 151.498 1596.61 150.604 1596.61 149.532V148.996Z" fill="#231F20"/>
<path d="M1674.22 59.4336H1777.19C1779.87 59.4336 1783.09 59.6124 1786.84 59.9699C1790.59 60.3274 1794.17 61.2213 1797.57 62.2939C1800.78 63.5452 1803.64 65.3329 1805.97 67.4781C1808.29 69.8021 1809.54 72.8411 1809.54 76.4164C1809.36 78.2041 1808.83 80.8856 1807.93 84.1034C1806.86 87.4999 1805.79 90.8965 1804.36 94.4718C1801.5 101.622 1797.57 107.522 1792.2 111.812C1786.84 116.281 1781.12 119.32 1775.04 120.929L1786.48 154.001H1722.84L1710.15 119.678L1697.1 154.001H1638.11L1674.22 59.4336ZM1727.13 75.3438L1714.8 107.701C1724.09 107.701 1731.24 106.449 1736.25 103.768C1741.25 101.265 1744.83 96.9745 1746.98 91.254L1748.23 87.4999C1749.12 85.5335 1749.66 83.7458 1749.84 81.9582C1750.01 80.3493 1750.37 78.2041 1750.73 75.3438H1727.13Z" fill="#231F20"/>
<path d="M1862.87 138.091H1886.65L1916.68 59.4336H1976.03L1939.92 154.001H1811.21C1807.1 154.001 1803.88 153.107 1801.73 151.141C1799.59 149.174 1798.51 146.314 1798.69 142.381C1798.69 141.487 1798.87 140.236 1799.23 138.627C1799.59 137.018 1800.12 135.052 1800.84 132.728L1828.9 59.4336H1888.26L1860.9 130.94C1860.19 134.337 1860.01 135.767 1860.01 135.231C1860.01 137.197 1860.9 138.091 1862.87 138.091Z" fill="#231F20"/>
<path d="M1126.38 74.9102L1103.68 137.657L1099.34 149.294C1098.57 151.363 1100.1 153.567 1102.3 153.567H1155.61C1156.93 153.567 1158.11 152.746 1158.58 151.508L1163.75 137.657L1187.16 74.9102L1191.51 63.2739C1192.28 61.2045 1190.75 59 1188.54 59H1134.52C1133.2 59 1132.02 59.821 1131.55 61.0594L1126.38 74.9102Z" fill="#231F20"/>
<path d="M93.3766 255.976C92.0766 255.676 90.7766 255.376 89.4766 255.176C74.7766 252.276 63.4766 240.276 61.3766 225.576C58.6766 207.076 70.7765 189.876 88.6765 185.876C109.377 181.276 128.177 195.376 131.377 214.476C134.577 233.876 121.577 252.176 102.277 255.376C101.277 255.576 100.377 255.776 99.3766 255.976C97.3766 255.976 95.3766 255.976 93.3766 255.976ZM96.8766 197.276C83.3766 197.476 74.1766 208.676 74.3766 220.176C74.5766 232.576 84.6765 242.676 97.2766 242.476C110.477 242.276 119.777 231.176 119.477 219.476C119.277 207.276 109.177 197.176 96.8766 197.276Z" fill="#F05A28"/>
<path d="M96.9764 200.777C107.576 200.777 116.076 209.377 115.976 219.977C115.876 230.477 107.276 238.977 96.7764 238.877C85.2764 238.777 77.6764 229.277 77.7764 219.577C77.9764 209.377 86.5764 200.577 96.9764 200.777ZM114.376 217.977C114.376 217.177 113.676 216.377 112.876 216.477C112.076 216.477 111.376 217.277 111.376 218.077C111.376 218.777 112.076 219.477 112.776 219.477C113.676 219.477 114.376 218.877 114.376 217.977ZM82.3764 221.177C82.3764 220.277 81.6764 219.677 80.7764 219.777C79.9764 219.877 79.3764 220.477 79.3764 221.177C79.3764 221.977 80.1764 222.777 80.8764 222.677C81.7764 222.777 82.3764 222.077 82.3764 221.177ZM112.676 227.377C112.676 226.577 111.976 225.877 111.076 225.877C110.276 225.877 109.576 226.677 109.676 227.477C109.776 228.277 110.376 228.877 111.076 228.877C111.976 228.877 112.676 228.177 112.676 227.377ZM84.7764 211.177C84.7764 210.277 84.0764 209.677 83.1764 209.777C82.4764 209.877 81.7764 210.477 81.7764 211.177C81.7764 211.977 82.5764 212.677 83.2764 212.677C84.1764 212.777 84.8764 212.077 84.7764 211.177ZM84.8764 232.077C85.6764 232.077 86.3764 231.477 86.3764 230.577C86.3764 229.877 85.7764 229.177 85.0764 229.077C84.2764 228.977 83.4764 229.677 83.4764 230.477C83.3764 231.277 84.0764 232.077 84.8764 232.077ZM100.376 202.677C99.5764 202.677 98.8764 203.477 98.8764 204.277C98.8764 205.077 99.6764 205.777 100.476 205.677C101.276 205.577 101.876 204.977 101.876 204.277C101.876 203.377 101.276 202.677 100.376 202.677ZM91.7764 205.177C91.6764 204.377 90.9764 203.777 90.0764 203.777C89.2764 203.877 88.7764 204.377 88.7764 205.277C88.7764 206.077 89.4764 206.877 90.2764 206.777C91.1764 206.777 91.8764 205.877 91.7764 205.177ZM108.876 207.477C108.076 207.477 107.376 208.177 107.276 208.977C107.276 209.777 107.976 210.477 108.776 210.477C109.576 210.377 110.076 209.977 110.176 209.077C110.376 208.277 109.676 207.577 108.876 207.477ZM95.0764 235.677C95.0764 234.777 94.4764 234.177 93.5764 234.177C92.7764 234.177 92.1764 234.777 92.0764 235.577C91.9764 236.377 92.6764 237.177 93.4764 237.177C94.3764 237.177 95.0764 236.477 95.0764 235.677ZM105.476 234.277C105.476 233.477 104.676 232.777 103.876 232.877C103.076 232.977 102.376 233.777 102.476 234.577C102.576 235.377 103.176 235.877 103.976 235.877C104.876 235.777 105.476 235.077 105.476 234.277Z" fill="#F05A28"/>
</svg>
