<svg width="32" height="32" viewBox="0 0 32 32" fill="none" xmlns="http://www.w3.org/2000/svg">
<path d="M4.99955 6C3.35455 6 1.99955 7.355 1.99955 9V18.8359C1.98192 18.9433 1.98192 19.0528 1.99955 19.1602V23C1.99955 24.645 3.35455 26 4.99955 26H13.3329C13.5981 26 13.8524 25.8946 14.04 25.7071C14.2275 25.5195 14.3329 25.2652 14.3329 25C14.3329 24.0679 15.0674 23.3333 15.9996 23.3333C16.9317 23.3333 17.6662 24.0679 17.6662 25C17.6662 25.2652 17.7716 25.5195 17.9591 25.7071C18.1467 25.8946 18.401 26 18.6662 26H26.9996C28.6446 26 29.9996 24.645 29.9996 23V19.1641C30.0172 19.0567 30.0172 18.9472 29.9996 18.8398V9C29.9996 7.355 28.6446 6 26.9996 6H4.99955ZM4.99955 8H26.9996C27.5639 8 27.9996 8.43567 27.9996 9V18H3.99955V9C3.99955 8.43567 4.43522 8 4.99955 8ZM5.99955 9.33333C5.63155 9.33333 5.33289 9.632 5.33289 10V16C5.33289 16.368 5.63155 16.6667 5.99955 16.6667H7.99955C8.36755 16.6667 8.66622 16.368 8.66622 16V10C8.66622 9.632 8.36755 9.33333 7.99955 9.33333H5.99955ZM11.9996 9.33333C11.6316 9.33333 11.3329 9.632 11.3329 10V16C11.3329 16.368 11.6316 16.6667 11.9996 16.6667H13.9996C14.3676 16.6667 14.6662 16.368 14.6662 16V10C14.6662 9.632 14.3676 9.33333 13.9996 9.33333H11.9996ZM17.9996 9.33333C17.6316 9.33333 17.3329 9.632 17.3329 10V16C17.3329 16.368 17.6316 16.6667 17.9996 16.6667H19.9996C20.3676 16.6667 20.6662 16.368 20.6662 16V10C20.6662 9.632 20.3676 9.33333 19.9996 9.33333H17.9996ZM23.9996 9.33333C23.6316 9.33333 23.3329 9.632 23.3329 10V16C23.3329 16.368 23.6316 16.6667 23.9996 16.6667H25.9996C26.3676 16.6667 26.6662 16.368 26.6662 16V10C26.6662 9.632 26.3676 9.33333 25.9996 9.33333H23.9996ZM3.99955 20H27.9996V23C27.9996 23.5643 27.5639 24 26.9996 24H26.6662V23C26.6681 22.8662 26.6432 22.7333 26.5928 22.6093C26.5424 22.4853 26.4677 22.3726 26.3729 22.278C26.2782 22.1834 26.1655 22.1088 26.0414 22.0586C25.9173 22.0084 25.7844 21.9836 25.6506 21.9857C25.3856 21.9898 25.1331 22.099 24.9485 22.2892C24.764 22.4793 24.6624 22.735 24.6662 23V24H23.3329V23C23.3348 22.8662 23.3098 22.7333 23.2595 22.6093C23.2091 22.4853 23.1343 22.3726 23.0396 22.278C22.9449 22.1834 22.8322 22.1088 22.7081 22.0586C22.584 22.0084 22.4511 21.9836 22.3173 21.9857C22.0523 21.9898 21.7998 22.099 21.6152 22.2892C21.4306 22.4793 21.3291 22.735 21.3329 23V24H19.4618C19.0155 22.478 17.6588 21.3333 15.9996 21.3333C14.3404 21.3333 12.9836 22.478 12.5373 24H10.6662V23C10.6681 22.8662 10.6432 22.7333 10.5928 22.6093C10.5424 22.4853 10.4677 22.3726 10.3729 22.278C10.2782 22.1834 10.1655 22.1088 10.0414 22.0586C9.91734 22.0084 9.78444 21.9836 9.65059 21.9857C9.38561 21.9898 9.13309 22.099 8.94852 22.2892C8.76395 22.4793 8.66242 22.735 8.66622 23V24H7.33289V23C7.33481 22.8662 7.30984 22.7333 7.25946 22.6093C7.20909 22.4853 7.13433 22.3726 7.03961 22.278C6.9449 22.1834 6.83216 22.1088 6.70808 22.0586C6.584 22.0084 6.4511 21.9836 6.31726 21.9857C6.05227 21.9898 5.79976 22.099 5.61519 22.2892C5.43062 22.4793 5.32909 22.735 5.33289 23V24H4.99955C4.43522 24 3.99955 23.5643 3.99955 23V20Z" fill="#1D88DD"/>
</svg>
