<svg width="26" height="26" viewBox="0 0 26 26" fill="none" xmlns="http://www.w3.org/2000/svg">
<path d="M18.3951 15.5037C18.0433 15.2974 17.6108 15.3017 17.2607 15.5097L15.4875 16.5662C15.0905 16.8028 14.5948 16.7751 14.2308 16.4908C13.6016 15.9994 12.5885 15.1726 11.7071 14.2912C10.8257 13.4098 9.99887 12.3967 9.50747 11.7675C9.2232 11.4035 9.19547 10.9077 9.43207 10.5108L10.4885 8.7376C10.6974 8.38747 10.6991 7.95153 10.4929 7.59967L7.89114 3.1554C7.63894 2.72553 7.138 2.51407 6.65354 2.6328C6.18294 2.7472 5.57194 3.02627 4.93147 3.6676C2.926 5.67307 1.86087 9.05567 9.4026 16.5974C16.9443 24.1391 20.3261 23.0749 22.3324 21.0685C22.9746 20.4263 23.2528 19.8145 23.3681 19.343C23.4851 18.8594 23.2771 18.3619 22.8481 18.1106C21.7769 17.484 19.4663 16.1311 18.3951 15.5037Z" fill="white"/>
</svg>
