<svg width="22" height="22" viewBox="0 0 22 22" fill="none" xmlns="http://www.w3.org/2000/svg">
<path d="M18.2952 19.6318L12.3216 13.6582C11.8531 14.0402 11.2944 14.3368 10.6455 14.5482C9.99659 14.7595 9.33022 14.8652 8.64634 14.8652C6.87311 14.8652 5.37961 14.2579 4.16585 13.0433C2.95209 11.8287 2.34521 10.348 2.34521 8.60128C2.34521 6.85453 2.95251 5.37386 4.16709 4.15928C5.38166 2.94469 6.86233 2.3374 8.6091 2.3374C10.3559 2.3374 11.8365 2.94469 13.0511 4.15928C14.2657 5.37386 14.873 6.85529 14.873 8.60358C14.873 9.27937 14.7724 9.92791 14.5712 10.5492C14.3701 11.1705 14.0658 11.746 13.6584 12.2756L19.6702 18.2569L18.2952 19.6318ZM8.61673 12.9402C9.83131 12.9402 10.8568 12.5198 11.6933 11.6791C12.5297 10.8384 12.948 9.81248 12.948 8.60128C12.948 7.39009 12.5302 6.36414 11.6946 5.52344C10.8591 4.68275 9.83356 4.2624 8.61808 4.2624C7.3941 4.2624 6.36346 4.68275 5.52616 5.52344C4.68885 6.36414 4.27019 7.39009 4.27019 8.60128C4.27019 9.81248 4.68885 10.8384 5.52616 11.6791C6.36346 12.5198 7.39365 12.9402 8.61673 12.9402Z" fill="white"/>
</svg>
