<!-- icon666.com - MILLIONS vector ICONS FREE --><svg id="Capa_1" enable-background="new 0 0 510 510" viewBox="0 0 510 510" xmlns="http://www.w3.org/2000/svg"><g><path  fill="#f05a28"  d="m255 225c-57.898 0-105 47.103-105 105s47.102 105 105 105 105-47.103 105-105-47.103-105-105-105zm0 180c-41.356 0-75-33.645-75-75s33.644-75 75-75c41.355 0 75 33.645 75 75s-33.645 75-75 75z"></path><path  fill="#f05a28"  d="m417.369 240.039c-3.892.111-7.418-1.742-9.423-4.968-32.123-51.657-89.133-85.071-152.946-85.071-63.817 0-120.825 33.418-152.946 85.071-2.005 3.226-5.514 5.068-9.422 4.968-50.509-1.523-92.632 39.228-92.632 89.961 0 50.731 42.123 91.486 92.631 89.961 3.904-.093 7.418 1.742 9.423 4.968 32.123 51.657 89.132 85.071 152.946 85.071 63.817 0 120.825-33.418 152.946-85.071 2.005-3.225 5.522-5.05 9.422-4.968 50.509 1.523 92.632-39.228 92.632-89.961 0-50.731-42.123-91.486-92.631-89.961zm.885 149.936c-14.481-.428-28.188 6.896-35.784 19.112-27.613 44.403-75.264 70.913-127.47 70.913s-99.857-26.51-127.47-70.913c-7.387-11.878-20.553-19.13-34.585-19.13-39.411 0-62.945-29.261-62.945-59.957 0-33.597 27.803-60.945 61.746-59.975 14.507.414 28.188-6.896 35.784-19.112 27.613-44.403 75.264-70.913 127.47-70.913s99.857 26.51 127.47 70.913c7.597 12.215 21.285 19.53 35.785 19.112 33.955-.972 61.745 26.393 61.745 59.975 0 33.597-27.803 60.946-61.746 59.975z"></path><path  fill="#f05a28"  d="m405 315h30v30h-30z"></path><path  fill="#f05a28"  d="m75 315h30v30h-30z"></path><path  fill="#f05a28"  d="m435 150c41.355 0 75-33.645 75-75s-33.645-75-75-75-75 33.645-75 75 33.644 75 75 75zm0-120c24.814 0 45 20.187 45 45s-20.186 45-45 45-45-20.187-45-45 20.186-45 45-45z"></path><path  fill="#f05a28"  d="m60 195h30v-105h30v-90h-90v90h30zm0-165h30v30h-30z"></path></g></svg>