<!-- icon666.com - MILLIONS vector ICONS FREE --><svg version="1.1" id="Capa_1" xmlns="http://www.w3.org/2000/svg" xmlns:xlink="http://www.w3.org/1999/xlink" x="0px" y="0px" viewBox="0 0 511.2 511.2" style="enable-background:new 0 0 511.2 511.2;" xml:space="preserve"><g><g><g><path fill="#f05a28" d="M344,318.8c2.4-4,2.4-8.8-1.6-11.2c-3.2-2.4-8.8-2.4-11.2,1.6c-33.6,43.2-84.8,68.8-140,68.8c-96,0-174.4-79.2-174.4-176 S95.2,26,192,26c41.6,0,82.4,15.2,114.4,42.4c3.2,3.2,8.8,2.4,12-0.8c3.2-3.2,2.4-8.8-0.8-12C282.4,26,237.6,10,192,10 C86.4,10,0,96.4,0,202s85.6,192,191.2,192C251.2,394,307.2,366.8,344,318.8z"></path><path fill="#f05a28" d="M497.6,437.2L372,327.6l-48.8,53.6L452,491.6c7.2,6.4,16,9.6,25.6,9.6c8.8,0,16.8-3.2,22.4-8c7.2-6.4,11.2-16,11.2-26.4 C511.2,455.6,506.4,444.4,497.6,437.2z M489.6,480.4c-6.4,5.6-18.4,4.8-26.4-1.6l-116-99.2l26.4-29.6l113.6,100 c4.8,4,8,10.4,8,17.6C495.2,472.4,492.8,477.2,489.6,480.4z"></path><path fill="#f05a28" d="M279.2,119.6c3.2,3.2,8,3.2,11.2,0c3.2-3.2,3.2-8,0-11.2C264.8,81.2,229.6,66,192,66c-75.2,0-136,60.8-136,136 s60.8,136,136,136c28.8,0,56-8.8,79.2-25.6c3.2-2.4,4.8-7.2,1.6-11.2c-2.4-3.2-7.2-4.8-11.2-1.6c-20,14.4-44,22.4-69.6,22.4 c-66.4,0-120-53.6-120-120S125.6,82,192,82C225.6,82,256,95.6,279.2,119.6z"></path><path fill="#f05a28" d="M321.6,88.4l8,8c1.6,1.6,4,2.4,5.6,2.4c1.6,0,4-0.8,5.6-2.4c3.2-3.2,3.2-8.8,0-12l-7.2-8c-3.2-3.2-8.8-3.2-12,0 C318.4,79.6,318.4,85.2,321.6,88.4z"></path><polygon fill="#f05a28" points="91.2,435.6 80,446.8 68.8,435.6 57.6,446.8 68.8,458 57.6,469.2 68.8,480.4 80,469.2 91.2,480.4 102.4,469.2 91.2,458 102.4,446.8 "></polygon><path fill="#f05a28" d="M196,98c-15.2,0-28,12.8-28,28v76c-15.2,9.6-24,25.6-24,44c0,28.8,23.2,52,52,52s52-23.2,52-52c0-17.6-8.8-34.4-24-44 v-76C224,110.8,211.2,98,196,98z M232,246c0,20-16,36-36,36s-36-16-36-36c0-13.6,7.2-25.6,20-32c2.4-1.6,4-4,4-7.2V178h8v-16h-8 v-8h8v-16h-8v-12c0-6.4,5.6-12,12-12c6.4,0,12,5.6,12,12v80.8c0,3.2,1.6,5.6,4,7.2C224.8,220.4,232,232.4,232,246z"></path><circle fill="#f05a28" cx="196" cy="246" r="12"></circle><path fill="#f05a28" d="M320.8,132.4c-5.6-1.6-11.2-2.4-16.8-2.4c-31.2,0-56,24.8-56,56s24.8,56,56,56h144c0.8,0,0.8,0,1.6,0 c28-5.6,46.4-28,46.4-55.2c0-31.2-24.8-56.8-56-56.8c-8,0-16,1.6-23.2,4.8c-9.6-17.6-28-28.8-48.8-28.8 C348.8,106,330.4,116.4,320.8,132.4z M332,146c6.4-14.4,20.8-24,36.8-24c16.8,0,32,10.4,37.6,27.2c0.8,2.4,2.4,4,4.8,4.8 c2.4,0.8,4.8,0.8,7.2-0.8c5.6-4.8,13.6-7.2,21.6-7.2c22.4,0,40,18.4,40,40c0,20-12.8,35.2-32.8,40H304c-22.4,0-40-17.6-40-40 c0-22.4,17.6-40,40-40c5.6,0,11.2,1.6,16.8,4c1.6,0.8,4,0.8,6.4,0C329.6,149.2,331.2,147.6,332,146z"></path><rect  fill="#f05a28" x="320" y="250" width="16" height="16"></rect><rect  fill="#f05a28" x="320" y="274" width="16" height="16"></rect><rect  fill="#f05a28" x="368" y="250" width="16" height="16"></rect><rect  fill="#f05a28" x="368" y="274" width="16" height="16"></rect><rect  fill="#f05a28" x="368" y="298" width="16" height="16"></rect><rect  fill="#f05a28" x="416" y="250" width="16" height="16"></rect><rect  fill="#f05a28" x="416" y="274" width="16" height="16"></rect><rect  fill="#f05a28" x="416" y="298" width="16" height="16"></rect><path fill="#f05a28" d="M432,210h16c4.8,0,8-3.2,8-8s-3.2-8-8-8h-16c-4.8,0-8,3.2-8,8S427.2,210,432,210z"></path><path fill="#f05a28" d="M184,442h-24c-4.8,0-8,3.2-8,8s3.2,8,8,8h24c4.8,0,8-3.2,8-8S188.8,442,184,442z"></path><path fill="#f05a28" d="M248,426c0-4.8-3.2-8-8-8h-24c-4.8,0-8,3.2-8,8s3.2,8,8,8h24C244.8,434,248,430.8,248,426z"></path><path fill="#f05a28" d="M360,458h-32v-16c0-4.8-3.2-8-8-8h-40c-4.8,0-8,3.2-8,8v16h-24c-4.8,0-8,3.2-8,8s3.2,8,8,8h32c4.8,0,8-3.2,8-8v-16h24v16 c0,4.8,3.2,8,8,8h40c4.8,0,8-3.2,8-8S364.8,458,360,458z"></path></g></g></g></svg>