<svg width="26" height="26" viewBox="0 0 26 26" fill="none" xmlns="http://www.w3.org/2000/svg">
<path d="M12.9215 4.604C9.48042 4.604 6.2833 4.84917 4.45898 5.23031C4.4551 5.23134 4.45122 5.23239 4.44735 5.23348C3.07291 5.54146 1.77872 6.52596 1.50627 8.06771L1.50521 8.07406C1.2959 9.31665 1.08203 10.9365 1.08203 13.2707C1.08203 15.6005 1.29663 17.1773 1.56128 18.4853C1.84041 19.9815 3.10473 20.9958 4.50024 21.3079C4.50692 21.3097 4.51362 21.3115 4.52034 21.3132C6.42433 21.6883 9.5312 21.9373 12.9722 21.9373C16.4133 21.9373 19.5218 21.6883 21.4263 21.3132C21.433 21.3115 21.4397 21.3097 21.4464 21.3079C22.8208 20.9999 24.115 20.0154 24.3874 18.4736C24.3882 18.4698 24.3889 18.4659 24.3896 18.462C24.5957 17.1941 24.8627 15.5758 24.9154 13.2379C24.9154 13.2319 24.9154 13.2259 24.9154 13.2199C24.9154 10.8807 24.6476 9.25079 24.3864 7.9598C24.1095 6.46034 22.8437 5.4433 21.4464 5.13086C21.425 5.12611 21.4035 5.12223 21.3818 5.11922C19.5238 4.85802 16.3631 4.604 12.9215 4.604ZM10.9167 9.20923C11.1173 9.20508 11.3247 9.25254 11.5197 9.36263L16.1799 11.9958C16.9659 12.44 16.9659 13.5607 16.1799 14.0049L11.5197 16.6381C10.7402 17.0779 9.7688 16.5208 9.7688 15.6331V10.3666C9.7688 9.70077 10.3148 9.22167 10.9167 9.20923Z" fill="white"/>
</svg>
