<svg width="72" height="72" viewBox="0 0 72 72" fill="none" xmlns="http://www.w3.org/2000/svg">
<path d="M18.75 6C15.0285 6 12 9.0285 12 12.75V59.25C12 62.9715 15.0285 66 18.75 66H53.25C56.9715 66 60 62.9715 60 59.25V30H42.75C39.0285 30 36 26.9715 36 23.25V6H18.75ZM26.25 37.5H45.75C46.992 37.5 48 38.508 48 39.75C48 40.992 46.992 42 45.75 42H26.25C25.008 42 24 40.992 24 39.75C24 38.508 25.008 37.5 26.25 37.5ZM26.2354 48H39.7295C40.9715 48 41.9795 49.0065 41.9795 50.25C41.981 51.3885 41.1351 52.331 40.0371 52.4795L39.7324 52.5H26.2383C24.9963 52.5 23.9883 51.492 23.9883 50.25C23.9883 49.1115 24.8327 48.169 25.9307 48.0205L26.2354 48Z" fill="#1D88DD"/>
<path opacity="0.4" d="M40.5 7.31836V23.25C40.5 24.4905 41.5095 25.5 42.75 25.5H58.6816L40.5 7.31836Z" fill="#1D88DD"/>
</svg>
