<svg width="1393" height="141" viewBox="0 0 1393 141" fill="none" xmlns="http://www.w3.org/2000/svg">
<path d="M0.428711 135.728H-0.571289V136.728H0.428711V135.728ZM0.428711 84.6045V83.6045H-0.571289V84.6045H0.428711ZM21.0098 57.4316L20.0153 57.327L20.0152 57.3276L21.0098 57.4316ZM26.7227 3.15918V2.15918H25.8224L25.7282 3.05449L26.7227 3.15918ZM114.247 3.15918H115.247V2.15918H114.247V3.15918ZM114.247 84.6045H113.247V85.6045H114.247V84.6045ZM126.479 84.6045H127.479V83.6045H126.479V84.6045ZM126.479 135.728V136.728H127.479V135.728H126.479ZM90.7363 135.728H89.7363V136.728H90.7363V135.728ZM90.7363 115H91.7363V114H90.7363V115ZM36.1709 115V114H35.1709V115H36.1709ZM36.1709 135.728V136.728H37.1709V135.728H36.1709ZM47.377 84.6045L46.6618 83.9056L45.0014 85.6045H47.377V84.6045ZM78.3584 84.6045V85.6045H79.3584V84.6045H78.3584ZM78.3584 33.5547H79.3584V32.5547H78.3584V33.5547ZM59.2422 33.5547V32.5547H58.3287L58.2463 33.4645L59.2422 33.5547ZM57.4844 52.9639L56.4884 52.8737L56.4884 52.8746L57.4844 52.9639ZM55.0674 69.7363L54.0945 69.5047L54.0926 69.5132L55.0674 69.7363ZM52.0645 78.5986L51.199 78.0976L51.194 78.1062L51.1892 78.1149L52.0645 78.5986ZM1.42871 135.728V84.6045H-0.571289V135.728H1.42871ZM0.428711 85.6045H1.89355V83.6045H0.428711V85.6045ZM1.89355 85.6045C6.60778 85.6045 10.9219 82.6435 14.8615 77.2079L13.2421 76.0342C9.46674 81.2432 5.67543 83.6045 1.89355 83.6045V85.6045ZM14.8615 77.2079C18.8357 71.7245 21.2075 65.1554 22.0043 57.5357L20.0152 57.3276C19.2495 64.6493 16.9826 70.8732 13.2421 76.0342L14.8615 77.2079ZM22.0043 57.5363L27.7172 3.26386L25.7282 3.05449L20.0153 57.327L22.0043 57.5363ZM26.7227 4.15918H114.247V2.15918H26.7227V4.15918ZM113.247 3.15918V84.6045H115.247V3.15918H113.247ZM114.247 85.6045H126.479V83.6045H114.247V85.6045ZM125.479 84.6045V135.728H127.479V84.6045H125.479ZM126.479 134.728H90.7363V136.728H126.479V134.728ZM91.7363 135.728V115H89.7363V135.728H91.7363ZM90.7363 114H36.1709V116H90.7363V114ZM35.1709 115V135.728H37.1709V115H35.1709ZM36.1709 134.728H0.428711V136.728H36.1709V134.728ZM47.377 85.6045H78.3584V83.6045H47.377V85.6045ZM79.3584 84.6045V33.5547H77.3584V84.6045H79.3584ZM78.3584 32.5547H59.2422V34.5547H78.3584V32.5547ZM58.2463 33.4645L56.4885 52.8737L58.4803 53.0541L60.2381 33.6449L58.2463 33.4645ZM56.4884 52.8746C55.8554 59.9344 55.055 65.4709 54.0946 69.5047L56.0402 69.9679C57.0329 65.7986 57.8438 60.1535 58.4804 53.0532L56.4884 52.8746ZM54.0926 69.5132C53.1704 73.5418 52.1957 76.376 51.199 78.0976L52.9299 79.0997C54.0816 77.1103 55.1089 74.0363 56.0422 69.9595L54.0926 69.5132ZM51.1892 78.1149C50.2211 79.8667 48.7224 81.797 46.6618 83.9056L48.0921 85.3034C50.2307 83.1152 51.857 81.0415 52.9397 79.0823L51.1892 78.1149ZM168.373 113.315L168.001 114.243L168.003 114.244L168.373 113.315ZM148.598 100.864L147.907 101.587L147.91 101.59L148.598 100.864ZM135.414 82.041L134.499 82.4438L134.502 82.4511L135.414 82.041ZM135.414 35.8984L134.502 35.4883L134.501 35.4912L135.414 35.8984ZM168.373 4.77051L168.74 5.70061L168.743 5.69939L168.373 4.77051ZM217.152 4.77051L216.78 5.6986L216.787 5.7014L217.152 4.77051ZM250.111 35.8984L249.197 36.3035L249.2 36.3108L250.111 35.8984ZM250.111 82.041L249.198 81.6332L249.197 81.636L250.111 82.041ZM237.001 100.864L237.689 101.59L237.692 101.587L237.001 100.864ZM217.152 113.315L216.782 112.387L216.78 112.387L217.152 113.315ZM174.086 40.5127L173.386 39.7988L173.382 39.8022L174.086 40.5127ZM192.836 116.93C184.365 116.93 176.336 115.414 168.743 112.387L168.003 114.244C175.839 117.369 184.12 118.93 192.836 118.93V116.93ZM168.745 112.387C161.186 109.354 154.704 105.269 149.285 100.138L147.91 101.59C153.527 106.909 160.228 111.125 168.001 114.243L168.745 112.387ZM149.289 100.141C143.868 94.9609 139.547 88.7942 136.326 81.6309L134.502 82.4511C137.824 89.8387 142.292 96.2207 147.907 101.587L149.289 100.141ZM136.329 81.6383C133.163 74.4427 131.58 66.8651 131.58 58.8965H129.58C129.58 67.1388 131.22 74.9909 134.499 82.4438L136.329 81.6383ZM131.58 58.8965C131.58 50.9278 133.163 43.4009 136.327 36.3057L134.501 35.4912C131.22 42.8491 129.58 50.6542 129.58 58.8965H131.58ZM136.326 36.3085C139.547 29.1461 143.867 23.0051 149.285 17.8746L147.91 16.4223C142.293 21.741 137.824 28.1 134.502 35.4883L136.326 36.3085ZM149.285 17.8746C154.702 12.745 161.183 8.68504 168.74 5.70061L168.006 3.84041C160.231 6.91067 153.528 11.1027 147.91 16.4223L149.285 17.8746ZM168.743 5.69939C176.336 2.67183 184.365 1.15625 192.836 1.15625V-0.84375C184.12 -0.84375 175.839 0.716839 168.003 3.84163L168.743 5.69939ZM192.836 1.15625C201.258 1.15625 209.236 2.67156 216.78 5.69858L217.525 3.84244C209.736 0.717112 201.504 -0.84375 192.836 -0.84375V1.15625ZM216.787 5.7014C224.393 8.6861 230.897 12.746 236.313 17.8746L237.689 16.4223C232.07 11.1017 225.341 6.90961 217.518 3.83961L216.787 5.7014ZM236.313 17.8746C241.73 23.0039 246.025 29.1432 249.197 36.3034L251.026 35.4934C247.752 28.1029 243.307 21.7422 237.689 16.4223L236.313 17.8746ZM249.2 36.3108C252.412 43.405 254.019 50.9301 254.019 58.8965H256.019C256.019 50.652 254.354 42.845 251.022 35.486L249.2 36.3108ZM254.019 58.8965C254.019 66.8629 252.412 74.4387 249.198 81.6332L251.024 82.4488C254.354 74.9949 256.019 67.141 256.019 58.8965H254.019ZM249.197 81.636C246.025 88.797 241.729 94.9621 236.31 100.141L237.692 101.587C243.308 96.2196 247.752 89.8358 251.026 82.446L249.197 81.636ZM236.313 100.138C230.896 105.268 224.39 109.353 216.782 112.387L217.523 114.244C225.344 111.126 232.071 106.91 237.689 101.59L236.313 100.138ZM216.78 112.387C209.236 115.414 201.258 116.93 192.836 116.93V118.93C201.504 118.93 209.736 117.369 217.525 114.243L216.78 112.387ZM192.836 86.1172C200.463 86.1172 206.944 83.505 212.216 78.2838L210.809 76.8627C205.925 81.7001 199.955 84.1172 192.836 84.1172V86.1172ZM212.216 78.2838C217.491 73.0601 220.13 66.6002 220.13 58.9697H218.13C218.13 66.0853 215.691 72.0278 210.809 76.8627L212.216 78.2838ZM220.13 58.9697C220.13 51.4328 217.488 45.023 212.216 39.8022L210.809 41.2232C215.694 46.0609 218.13 51.9558 218.13 58.9697H220.13ZM212.216 39.8022C206.944 34.581 200.463 31.9688 192.836 31.9688V33.9688C199.955 33.9688 205.925 36.3858 210.809 41.2232L212.216 39.8022ZM192.836 31.9688C185.209 31.9688 178.705 34.5808 173.386 39.7988L174.786 41.2266C179.721 36.386 185.717 33.9688 192.836 33.9688V31.9688ZM173.382 39.8022C168.111 45.023 165.469 51.4328 165.469 58.9697H167.469C167.469 51.9558 169.905 46.0609 174.79 41.2232L173.382 39.8022ZM165.469 58.9697C165.469 66.6002 168.108 73.0601 173.382 78.2838L174.79 76.8627C169.908 72.0278 167.469 66.0853 167.469 58.9697H165.469ZM173.382 78.2838C178.656 83.5063 185.162 86.1172 192.836 86.1172V84.1172C185.666 84.1172 179.673 81.6988 174.79 76.8627L173.382 78.2838ZM331.996 58.2373L331.166 57.679L330.769 58.2696L331.197 58.8385L331.996 58.2373ZM374.696 115V116H376.7L375.495 114.399L374.696 115ZM329.14 115L328.31 115.558L328.607 116H329.14V115ZM300.136 71.8604L300.966 71.3024L300.668 70.8604H300.136V71.8604ZM298.891 71.8604V70.8604H297.891V71.8604H298.891ZM298.891 115V116H299.891V115H298.891ZM262.929 115H261.929V116H262.929V115ZM262.929 3.15918V2.15918H261.929V3.15918H262.929ZM298.891 3.15918H299.891V2.15918H298.891V3.15918ZM298.891 48.7158H297.891V49.7158H298.891V48.7158ZM299.696 48.7158V49.7158H300.258L300.55 49.2362L299.696 48.7158ZM327.455 3.15918V2.15918H326.893L326.601 2.63884L327.455 3.15918ZM369.057 3.15918L369.886 3.71744L370.935 2.15918H369.057V3.15918ZM331.197 58.8385L373.897 115.601L375.495 114.399L332.795 57.6362L331.197 58.8385ZM374.696 114H329.14V116H374.696V114ZM329.97 114.442L300.966 71.3024L299.306 72.4183L328.31 115.558L329.97 114.442ZM300.136 70.8604H298.891V72.8604H300.136V70.8604ZM297.891 71.8604V115H299.891V71.8604H297.891ZM298.891 114H262.929V116H298.891V114ZM263.929 115V3.15918H261.929V115H263.929ZM262.929 4.15918H298.891V2.15918H262.929V4.15918ZM297.891 3.15918V48.7158H299.891V3.15918H297.891ZM298.891 49.7158H299.696V47.7158H298.891V49.7158ZM300.55 49.2362L328.309 3.67952L326.601 2.63884L298.842 48.1955L300.55 49.2362ZM327.455 4.15918H369.057V2.15918H327.455V4.15918ZM368.227 2.60092L331.166 57.679L332.826 58.7956L369.886 3.71744L368.227 2.60092ZM382.094 115.22L381.094 115.233L381.104 115.993L381.839 116.187L382.094 115.22ZM381.654 81.1621L381.848 80.1811L380.638 79.9418L380.654 81.175L381.654 81.1621ZM403.407 81.3818L403.811 82.2968L403.822 82.2918L403.833 82.2867L403.407 81.3818ZM406.63 78.4521L407.553 78.8368L407.567 78.803L407.579 78.7684L406.63 78.4521ZM406.776 78.0127L407.725 78.3289L407.849 77.958L407.688 77.6015L406.776 78.0127ZM373.012 3.15918V2.15918H371.464L372.1 3.57036L373.012 3.15918ZM412.562 3.15918L413.496 2.79938L413.249 2.15918H412.562V3.15918ZM429.848 47.9834L428.915 48.3432L429.848 50.7627L430.781 48.3432L429.848 47.9834ZM447.133 3.15918V2.15918H446.447L446.2 2.79938L447.133 3.15918ZM486.61 3.15918L487.521 3.57305L488.163 2.15918H486.61V3.15918ZM453.578 75.8154L454.488 76.2302L454.488 76.2293L453.578 75.8154ZM444.203 93.1006L443.368 92.5497L443.365 92.5556L444.203 93.1006ZM433.29 106.284L432.6 105.56L432.596 105.564L433.29 106.284ZM419.521 115.073L419.164 114.139L419.157 114.142L419.521 115.073ZM402.602 117.076C396.255 117.076 389.505 116.139 382.349 114.253L381.839 116.187C389.136 118.11 396.058 119.076 402.602 119.076V117.076ZM383.094 115.207L382.654 81.1492L380.654 81.175L381.094 115.233L383.094 115.207ZM381.46 82.1431C385.983 83.0378 391.227 83.4805 397.182 83.4805V81.4805C391.32 81.4805 386.212 81.0442 381.848 80.1811L381.46 82.1431ZM397.182 83.4805C399.762 83.4805 401.986 83.102 403.811 82.2968L403.004 80.4669C401.509 81.1265 399.581 81.4805 397.182 81.4805V83.4805ZM403.833 82.2867C405.619 81.4462 406.934 80.3217 407.553 78.8368L405.707 78.0675C405.349 78.9263 404.516 79.7549 402.981 80.477L403.833 82.2867ZM407.579 78.7684L407.725 78.3289L405.828 77.6965L405.681 78.1359L407.579 78.7684ZM407.688 77.6015L373.923 2.748L372.1 3.57036L405.865 78.4239L407.688 77.6015ZM373.012 4.15918H412.562V2.15918H373.012V4.15918ZM411.629 3.51898L428.915 48.3432L430.781 47.6236L413.496 2.79938L411.629 3.51898ZM430.781 48.3432L448.066 3.51898L446.2 2.79938L428.915 47.6236L430.781 48.3432ZM447.133 4.15918H486.61V2.15918H447.133V4.15918ZM485.7 2.74531L452.668 75.4016L454.488 76.2293L487.521 3.57305L485.7 2.74531ZM452.668 75.4006C449.657 82.005 446.557 87.7193 443.369 92.5497L445.038 93.6514C448.295 88.7162 451.444 82.9071 454.488 76.2302L452.668 75.4006ZM443.365 92.5556C440.232 97.3749 436.644 101.709 432.6 105.56L433.98 107.008C438.139 103.047 441.826 98.5919 445.042 93.6456L443.365 92.5556ZM432.596 105.564C428.638 109.379 424.162 112.235 419.165 114.139L419.876 116.008C425.133 114.005 429.837 111.001 433.984 107.004L432.596 105.564ZM419.157 114.142C414.159 116.093 408.644 117.076 402.602 117.076V119.076C408.864 119.076 414.628 118.057 419.884 116.005L419.157 114.142ZM623.72 3.15918L624.713 3.04404L624.611 2.15918H623.72V3.15918ZM636.684 115V116H637.806L637.677 114.885L636.684 115ZM600.355 115L599.361 115.102L599.453 116H600.355V115ZM595.229 64.9023L596.223 64.8005L596.131 63.9023H595.229V64.9023ZM594.203 64.9023V63.9023H593.526L593.274 64.5317L594.203 64.9023ZM574.208 115V116H574.886L575.137 115.371L574.208 115ZM551.869 115L550.95 115.395L551.211 116H551.869V115ZM530.336 64.9023L531.255 64.5075L530.995 63.9023H530.336V64.9023ZM529.311 64.9023V63.9023H528.394L528.314 64.815L529.311 64.9023ZM524.916 115V116H525.832L525.912 115.087L524.916 115ZM488.661 115L487.668 114.885L487.539 116H488.661V115ZM501.552 3.15918V2.15918H500.66L500.558 3.04468L501.552 3.15918ZM537.587 3.15918L538.521 2.80318L538.276 2.15918H537.587V3.15918ZM562.196 67.7588L561.262 68.1148L561.507 68.7588H562.196V67.7588ZM563.075 67.7588V68.7588H563.764L564.01 68.1148L563.075 67.7588ZM587.685 3.15918V2.15918H586.995L586.75 2.80318L587.685 3.15918ZM622.726 3.27432L635.69 115.115L637.677 114.885L624.713 3.04404L622.726 3.27432ZM636.684 114H600.355V116H636.684V114ZM601.35 114.898L596.223 64.8005L594.234 65.0042L599.361 115.102L601.35 114.898ZM595.229 63.9023H594.203V65.9023H595.229V63.9023ZM593.274 64.5317L573.279 114.629L575.137 115.371L595.132 65.273L593.274 64.5317ZM574.208 114H551.869V116H574.208V114ZM552.788 114.605L531.255 64.5075L529.417 65.2972L550.95 115.395L552.788 114.605ZM530.336 63.9023H529.311V65.9023H530.336V63.9023ZM528.314 64.815L523.92 114.913L525.912 115.087L530.307 64.9897L528.314 64.815ZM524.916 114H488.661V116H524.916V114ZM489.655 115.115L502.545 3.27368L500.558 3.04468L487.668 114.885L489.655 115.115ZM501.552 4.15918H537.587V2.15918H501.552V4.15918ZM536.652 3.51517L561.262 68.1148L563.131 67.4028L538.521 2.80318L536.652 3.51517ZM562.196 68.7588H563.075V66.7588H562.196V68.7588ZM564.01 68.1148L588.619 3.51517L586.75 2.80318L562.141 67.4028L564.01 68.1148ZM587.685 4.15918H623.72V2.15918H587.685V4.15918ZM645.399 115H644.399V116H645.399V115ZM645.399 3.15918V2.15918H644.399V3.15918H645.399ZM721.132 3.15918H722.132V2.15918H721.132V3.15918ZM721.132 35.0928V36.0928H722.132V35.0928H721.132ZM681.288 35.0928V34.0928H680.288V35.0928H681.288ZM681.288 45.8594H680.288V46.8594H681.288V45.8594ZM715.492 45.8594H716.492V44.8594H715.492V45.8594ZM715.492 72.373V73.373H716.492V72.373H715.492ZM681.288 72.373V71.373H680.288V72.373H681.288ZM681.288 83.0664H680.288V84.0664H681.288V83.0664ZM721.864 83.0664H722.864V82.0664H721.864V83.0664ZM721.864 115V116H722.864V115H721.864ZM646.399 115V3.15918H644.399V115H646.399ZM645.399 4.15918H721.132V2.15918H645.399V4.15918ZM720.132 3.15918V35.0928H722.132V3.15918H720.132ZM721.132 34.0928H681.288V36.0928H721.132V34.0928ZM680.288 35.0928V45.8594H682.288V35.0928H680.288ZM681.288 46.8594H715.492V44.8594H681.288V46.8594ZM714.492 45.8594V72.373H716.492V45.8594H714.492ZM715.492 71.373H681.288V73.373H715.492V71.373ZM680.288 72.373V83.0664H682.288V72.373H680.288ZM681.288 84.0664H721.864V82.0664H681.288V84.0664ZM720.864 83.0664V115H722.864V83.0664H720.864ZM721.864 114H645.399V116H721.864V114ZM731.386 115H730.386V116H731.386V115ZM731.386 3.15918V2.15918H730.386V3.15918H731.386ZM767.274 3.15918H768.274V2.15918H767.274V3.15918ZM767.274 43.0762H766.274V44.0762H767.274V43.0762ZM797.963 43.0762V44.0762H798.963V43.0762H797.963ZM797.963 3.15918V2.15918H796.963V3.15918H797.963ZM833.998 3.15918H834.998V2.15918H833.998V3.15918ZM833.998 115V116H834.998V115H833.998ZM797.963 115H796.963V116H797.963V115ZM797.963 75.0098H798.963V74.0098H797.963V75.0098ZM767.274 75.0098V74.0098H766.274V75.0098H767.274ZM767.274 115V116H768.274V115H767.274ZM732.386 115V3.15918H730.386V115H732.386ZM731.386 4.15918H767.274V2.15918H731.386V4.15918ZM766.274 3.15918V43.0762H768.274V3.15918H766.274ZM767.274 44.0762H797.963V42.0762H767.274V44.0762ZM798.963 43.0762V3.15918H796.963V43.0762H798.963ZM797.963 4.15918H833.998V2.15918H797.963V4.15918ZM832.998 3.15918V115H834.998V3.15918H832.998ZM833.998 114H797.963V116H833.998V114ZM798.963 115V75.0098H796.963V115H798.963ZM797.963 74.0098H767.274V76.0098H797.963V74.0098ZM766.274 75.0098V115H768.274V75.0098H766.274ZM767.274 114H731.386V116H767.274V114ZM868.495 115H867.495V116H868.495V115ZM868.495 35.0928H869.495V34.0928H868.495V35.0928ZM840.81 35.0928H839.81V36.0928H840.81V35.0928ZM840.81 3.15918V2.15918H839.81V3.15918H840.81ZM931.19 3.15918H932.19V2.15918H931.19V3.15918ZM931.19 35.0928V36.0928H932.19V35.0928H931.19ZM904.311 35.0928V34.0928H903.311V35.0928H904.311ZM904.311 115V116H905.311V115H904.311ZM869.495 115V35.0928H867.495V115H869.495ZM868.495 34.0928H840.81V36.0928H868.495V34.0928ZM841.81 35.0928V3.15918H839.81V35.0928H841.81ZM840.81 4.15918H931.19V2.15918H840.81V4.15918ZM930.19 3.15918V35.0928H932.19V3.15918H930.19ZM931.19 34.0928H904.311V36.0928H931.19V34.0928ZM903.311 35.0928V115H905.311V35.0928H903.311ZM904.311 114H868.495V116H904.311V114ZM1013.51 115L1012.55 115.276L1012.76 116H1013.51V115ZM1008.53 97.6416L1009.5 97.3658L1009.29 96.6416H1008.53V97.6416ZM975.282 97.6416V96.6416H974.529L974.321 97.3658L975.282 97.6416ZM970.302 115V116H971.055L971.263 115.276L970.302 115ZM932.582 115L931.639 114.667L931.168 116H932.582V115ZM972.133 3.15918V2.15918H971.426L971.19 2.82578L972.133 3.15918ZM1013.22 3.15918L1014.16 2.82578L1013.93 2.15918H1013.22V3.15918ZM1052.77 115V116H1054.19L1053.72 114.667L1052.77 115ZM983.778 68.1982L982.817 67.9232L982.452 69.1982H983.778V68.1982ZM1000.04 68.1982V69.1982H1001.36L1001 67.9232L1000.04 68.1982ZM992.348 41.3184L993.309 41.0433L993.102 40.3184H992.348V41.3184ZM991.469 41.3184V40.3184H990.715L990.507 41.0433L991.469 41.3184ZM1014.48 114.724L1009.5 97.3658L1007.57 97.9174L1012.55 115.276L1014.48 114.724ZM1008.53 96.6416H975.282V98.6416H1008.53V96.6416ZM974.321 97.3658L969.341 114.724L971.263 115.276L976.243 97.9174L974.321 97.3658ZM970.302 114H932.582V116H970.302V114ZM933.525 115.333L973.076 3.49258L971.19 2.82578L931.639 114.667L933.525 115.333ZM972.133 4.15918H1013.22V2.15918H972.133V4.15918ZM1012.28 3.49258L1051.83 115.333L1053.72 114.667L1014.16 2.82578L1012.28 3.49258ZM1052.77 114H1013.51V116H1052.77V114ZM983.778 69.1982H1000.04V67.1982H983.778V69.1982ZM1001 67.9232L993.309 41.0433L991.386 41.5934L999.077 68.4733L1001 67.9232ZM992.348 40.3184H991.469V42.3184H992.348V40.3184ZM990.507 41.0433L982.817 67.9232L984.74 68.4733L992.43 41.5934L990.507 41.0433ZM1139.2 140.488H1138.2V141.488H1139.2V140.488ZM1139.2 115H1140.2V114H1139.2V115ZM1058.92 115H1057.92V116H1058.92V115ZM1058.92 3.15918V2.15918H1057.92V3.15918H1058.92ZM1094.81 3.15918H1095.81V2.15918H1094.81V3.15918ZM1094.81 84.6045H1093.81V85.6045H1094.81V84.6045ZM1123.45 84.6045V85.6045H1124.45V84.6045H1123.45ZM1123.45 3.15918V2.15918H1122.45V3.15918H1123.45ZM1159.19 3.15918H1160.19V2.15918H1159.19V3.15918ZM1159.19 84.6045H1158.19V85.6045H1159.19V84.6045ZM1174.94 84.6045H1175.94V83.6045H1174.94V84.6045ZM1174.94 140.488V141.488H1175.94V140.488H1174.94ZM1140.2 140.488V115H1138.2V140.488H1140.2ZM1139.2 114H1058.92V116H1139.2V114ZM1059.92 115V3.15918H1057.92V115H1059.92ZM1058.92 4.15918H1094.81V2.15918H1058.92V4.15918ZM1093.81 3.15918V84.6045H1095.81V3.15918H1093.81ZM1094.81 85.6045H1123.45V83.6045H1094.81V85.6045ZM1124.45 84.6045V3.15918H1122.45V84.6045H1124.45ZM1123.45 4.15918H1159.19V2.15918H1123.45V4.15918ZM1158.19 3.15918V84.6045H1160.19V3.15918H1158.19ZM1159.19 85.6045H1174.94V83.6045H1159.19V85.6045ZM1173.94 84.6045V140.488H1175.94V84.6045H1173.94ZM1174.94 139.488H1139.2V141.488H1174.94V139.488ZM1254.85 3.15918V2.15918H1254.28L1253.99 2.64178L1254.85 3.15918ZM1291.54 3.15918H1292.54V2.15918H1291.54V3.15918ZM1291.54 115V116H1292.54V115H1291.54ZM1255.65 115L1254.65 114.991L1254.64 116H1255.65V115ZM1256.17 59.5557L1257.17 59.5649L1257.2 56.2082L1255.33 59.0007L1256.17 59.5557ZM1219.18 115V116H1219.71L1220.01 115.555L1219.18 115ZM1182.7 115H1181.7V116H1182.7V115ZM1182.7 3.15918V2.15918H1181.7V3.15918H1182.7ZM1218.45 3.15918H1219.45V2.15918H1218.45V3.15918ZM1218.45 63.3643H1217.45V66.9509L1219.3 63.8817L1218.45 63.3643ZM1254.85 4.15918H1291.54V2.15918H1254.85V4.15918ZM1290.54 3.15918V115H1292.54V3.15918H1290.54ZM1291.54 114H1255.65V116H1291.54V114ZM1256.65 115.009L1257.17 59.5649L1255.17 59.5464L1254.65 114.991L1256.65 115.009ZM1255.33 59.0007L1218.35 114.445L1220.01 115.555L1257 60.1106L1255.33 59.0007ZM1219.18 114H1182.7V116H1219.18V114ZM1183.7 115V3.15918H1181.7V115H1183.7ZM1182.7 4.15918H1218.45V2.15918H1182.7V4.15918ZM1217.45 3.15918V63.3643H1219.45V3.15918H1217.45ZM1219.3 63.8817L1255.7 3.67658L1253.99 2.64178L1217.59 62.8469L1219.3 63.8817ZM1392.03 3.15918H1393.03V2.15918H1392.03V3.15918ZM1392.03 115V116H1393.03V115H1392.03ZM1356.07 115H1355.07V116H1356.07V115ZM1356.07 79.1113H1357.07V78.1113H1356.07V79.1113ZM1355.04 79.1113V78.1113H1354.46L1354.17 78.6246L1355.04 79.1113ZM1335.05 115V116H1335.64L1335.92 115.487L1335.05 115ZM1296.52 115L1295.67 114.483L1294.75 116H1296.52V115ZM1321.42 73.7646L1322.28 74.2816L1322.83 73.3704L1321.89 72.8781L1321.42 73.7646ZM1308.39 61.6797L1307.52 62.1846L1307.53 62.1942L1308.39 61.6797ZM1315.79 14.292L1316.46 15.0256L1316.47 15.0233L1315.79 14.292ZM1356.07 50.9863V51.9863H1357.07V50.9863H1356.07ZM1356.07 33.5547H1357.07V32.5547H1356.07V33.5547ZM1340.83 35.9717L1341.5 36.7191L1341.5 36.714L1341.51 36.7088L1340.83 35.9717ZM1340.91 48.6426L1340.24 49.3889L1340.25 49.394L1340.25 49.3989L1340.91 48.6426ZM1346.91 4.15918H1392.03V2.15918H1346.91V4.15918ZM1391.03 3.15918V115H1393.03V3.15918H1391.03ZM1392.03 114H1356.07V116H1392.03V114ZM1357.07 115V79.1113H1355.07V115H1357.07ZM1356.07 78.1113H1355.04V80.1113H1356.07V78.1113ZM1354.17 78.6246L1334.17 114.513L1335.92 115.487L1355.92 79.598L1354.17 78.6246ZM1335.05 114H1296.52V116H1335.05V114ZM1297.38 115.517L1322.28 74.2816L1320.57 73.2477L1295.67 114.483L1297.38 115.517ZM1321.89 72.8781C1316.43 70.0284 1312.22 66.1246 1309.25 61.1652L1307.53 62.1942C1310.71 67.4887 1315.19 71.6416 1320.96 74.6512L1321.89 72.8781ZM1309.25 61.1748C1306.33 56.1789 1304.85 50.2078 1304.85 43.2227H1302.85C1302.85 50.4953 1304.39 56.8289 1307.52 62.1846L1309.25 61.1748ZM1304.85 43.2227C1304.85 31.5567 1308.73 22.1897 1316.46 15.0256L1315.11 13.5584C1306.92 21.1404 1302.85 31.0605 1302.85 43.2227H1304.85ZM1316.47 15.0233C1324.21 7.80391 1334.33 4.15918 1346.91 4.15918V2.15918C1333.91 2.15918 1323.28 5.93633 1315.1 13.5606L1316.47 15.0233ZM1357.07 50.9863V33.5547H1355.07V50.9863H1357.07ZM1356.07 32.5547H1347.72V34.5547H1356.07V32.5547ZM1347.72 32.5547C1344.69 32.5547 1342.13 33.4233 1340.16 35.2345L1341.51 36.7088C1343.05 35.2974 1345.09 34.5547 1347.72 34.5547V32.5547ZM1340.17 35.2243C1338.17 37.0007 1337.2 39.3867 1337.2 42.2705H1339.2C1339.2 39.8809 1339.98 38.0676 1341.5 36.7191L1340.17 35.2243ZM1337.2 42.2705C1337.2 45.1637 1338.2 47.5696 1340.24 49.3889L1341.57 47.8963C1340 46.4929 1339.2 44.6507 1339.2 42.2705H1337.2ZM1340.25 49.3989C1342.27 51.1468 1344.84 51.9863 1347.87 51.9863V49.9863C1345.23 49.9863 1343.15 49.2634 1341.56 47.8862L1340.25 49.3989ZM1347.87 51.9863H1356.07V49.9863H1347.87V51.9863Z" fill="url(#paint0_linear_51_1528)"/>
<defs>
<linearGradient id="paint0_linear_51_1528" x1="698.5" y1="-13" x2="698.5" y2="137" gradientUnits="userSpaceOnUse">
<stop stop-color="#232938"/>
<stop offset="1" stop-color="#232938" stop-opacity="0"/>
</linearGradient>
</defs>
</svg>
