<svg width="26" height="26" viewBox="0 0 26 26" fill="none" xmlns="http://www.w3.org/2000/svg">
<path d="M3.95731 19.9065C3.57561 19.9065 3.24935 19.774 2.97852 19.509C2.70768 19.244 2.57227 18.919 2.57227 18.534C2.57227 18.149 2.70926 17.8211 2.98326 17.5502C3.25727 17.2794 3.58512 17.144 3.96681 17.144C4.34853 17.144 4.67195 17.2809 4.93707 17.5546C5.2022 17.8284 5.33477 18.1535 5.33477 18.53C5.33477 18.924 5.20276 19.252 4.93875 19.5138C4.67474 19.7756 4.3476 19.9065 3.95731 19.9065ZM3.95731 14.3815C3.57561 14.3815 3.24935 14.2446 2.97852 13.9709C2.70768 13.6973 2.57227 13.3723 2.57227 12.9959C2.57227 12.6196 2.70926 12.2961 2.98326 12.0252C3.25727 11.7544 3.58512 11.619 3.96681 11.619C4.34853 11.619 4.67195 11.7558 4.93707 12.0295C5.2022 12.3032 5.33477 12.6282 5.33477 13.0045C5.33477 13.3808 5.20276 13.7044 4.93875 13.9752C4.67474 14.2461 4.3476 14.3815 3.95731 14.3815ZM3.95731 8.82939C3.57561 8.82939 3.24935 8.69691 2.97852 8.43195C2.70768 8.16696 2.57227 7.84196 2.57227 7.45695C2.57227 7.07191 2.70926 6.74398 2.98326 6.47314C3.25727 6.20231 3.58512 6.06689 3.96681 6.06689C4.34853 6.06689 4.67195 6.20378 4.93707 6.47756C5.2022 6.75134 5.33477 7.07644 5.33477 7.45288C5.33477 7.84695 5.20276 8.17488 4.93875 8.43669C4.67474 8.69849 4.3476 8.82939 3.95731 8.82939ZM8.12435 19.8252V17.2523H23.4264V19.8252H8.12435ZM8.12435 14.2731V11.7273H23.4264V14.2731H8.12435ZM8.12435 8.74814V6.17523H23.4264V8.74814H8.12435Z" fill="white"/>
</svg>
