<!-- icon666.com - MILLIONS vector ICONS FREE --><svg id="Capa_1" enable-background="new 0 0 512 512" viewBox="0 0 512 512" xmlns="http://www.w3.org/2000/svg"><path d="m492 336h-56v-140c0-11.046-8.954-20-20-20h-60v-140c0-11.046-8.954-20-20-20h-160c-11.046 0-20 8.954-20 20v140h-60c-11.046 0-20 8.954-20 20v140h-56c-11.046 0-20 8.954-20 20v80c0 11.046 8.954 20 20 20h16v20c0 11.046 8.954 20 20 20h80c11.046 0 20-8.954 20-20v-20h40v20c0 11.046 8.954 20 20 20h80c5.305 0 10.392-2.107 14.142-5.858 3.751-3.751 5.858-8.838 5.858-14.142v-20h40v20c0 11.046 8.954 20 20 20h80c11.046 0 20-8.954 20-20v-20h16c11.046 0 20-8.954 20-20v-80c0-11.046-8.954-20-20-20zm-96 0h-120v-120h40v20c0 11.046 8.954 20 20 20s20-8.954 20-20v-20h40zm-160-280v20c0 11.046 8.954 20 20 20s20-8.954 20-20v-20h40v120h-120v-120zm-120 160h40v20c0 11.046 8.954 20 20 20s20-8.954 20-20v-20h40v120h-120zm356 200h-16c-11.046 0-20 8.954-20 20v20h-40v-20c0-11.046-8.954-20-20-20h-80.001c-5.305 0-10.392 2.107-14.143 5.858-3.75 3.751-5.857 8.838-5.857 14.143v20h-40v-20c0-11.046-8.954-20-20-20h-80c-11.046 0-20 8.954-20 20v20h-39.999v-20c0-11.046-8.954-20-20-20h-16v-40h432z"></path></svg>