<svg width="50" height="51" viewBox="0 0 50 51" fill="none" xmlns="http://www.w3.org/2000/svg">
<circle cx="25" cy="25.8379" r="24.25" stroke="#28323F" stroke-width="1.5"/>
<path d="M29.5648 27.9565C29.267 27.782 28.9011 27.7856 28.6048 27.9616L27.1044 28.8556C26.7686 29.0558 26.3491 29.0323 26.0411 28.7918C25.5087 28.376 24.6514 27.6764 23.9056 26.9306C23.1598 26.1848 22.4602 25.3275 22.0444 24.7951C21.8039 24.4871 21.7804 24.0676 21.9806 23.7318L22.8746 22.2314C23.0513 21.9351 23.0528 21.5662 22.8782 21.2685L20.6768 17.508C20.4634 17.1442 20.0395 16.9653 19.6296 17.0658C19.2314 17.1626 18.7144 17.3987 18.1724 17.9414C16.4755 19.6383 15.5742 22.5005 21.9557 28.882C28.3372 35.2634 31.1986 34.3629 32.8963 32.6652C33.4397 32.1218 33.6751 31.6041 33.7726 31.2052C33.8716 30.796 33.6956 30.375 33.3326 30.1624C32.4262 29.6322 30.4712 28.4874 29.5648 27.9565Z" fill="white"/>
</svg>
