<svg width="32" height="32" viewBox="0 0 32 32" fill="none" xmlns="http://www.w3.org/2000/svg">
<path d="M8.98462 3.31897C8.71963 3.32311 8.46712 3.43226 8.28255 3.62244C8.09798 3.81263 7.99644 4.0683 8.00025 4.33329V6.20439C7.16185 6.50844 6.50873 7.16156 6.20467 7.99996H4.33358C4.20107 7.99809 4.0695 8.02257 3.94654 8.07198C3.82357 8.12139 3.71165 8.19476 3.61728 8.2878C3.52291 8.38084 3.44797 8.49172 3.39682 8.61397C3.34568 8.73623 3.31934 8.86743 3.31934 8.99996C3.31934 9.13248 3.34568 9.26369 3.39682 9.38595C3.44797 9.5082 3.52291 9.61908 3.61728 9.71212C3.71165 9.80516 3.82357 9.87852 3.94654 9.92794C4.0695 9.97735 4.20107 10.0018 4.33358 9.99996H6.00025V12.6666H4.33358C4.20107 12.6648 4.0695 12.6892 3.94654 12.7386C3.82357 12.7881 3.71165 12.8614 3.61728 12.9545C3.52291 13.0475 3.44797 13.1584 3.39682 13.2806C3.34568 13.4029 3.31934 13.5341 3.31934 13.6666C3.31934 13.7992 3.34568 13.9304 3.39682 14.0526C3.44797 14.1749 3.52291 14.2857 3.61728 14.3788C3.71165 14.4718 3.82357 14.5452 3.94654 14.5946C4.0695 14.644 4.20107 14.6685 4.33358 14.6666H6.00025V17.3333H4.33358C4.20107 17.3314 4.0695 17.3559 3.94654 17.4053C3.82357 17.4547 3.71165 17.5281 3.61728 17.6211C3.52291 17.7142 3.44797 17.825 3.39682 17.9473C3.34568 18.0696 3.31934 18.2008 3.31934 18.3333C3.31934 18.4658 3.34568 18.597 3.39682 18.7193C3.44797 18.8415 3.52291 18.9524 3.61728 19.0455C3.71165 19.1385 3.82357 19.2119 3.94654 19.2613C4.0695 19.3107 4.20107 19.3352 4.33358 19.3333H6.00025V22H4.33358C4.20107 21.9981 4.0695 22.0226 3.94654 22.072C3.82357 22.1214 3.71165 22.1948 3.61728 22.2878C3.52291 22.3808 3.44797 22.4917 3.39682 22.614C3.34568 22.7362 3.31934 22.8674 3.31934 23C3.31934 23.1325 3.34568 23.2637 3.39682 23.3859C3.44797 23.5082 3.52291 23.6191 3.61728 23.7121C3.71165 23.8052 3.82357 23.8785 3.94654 23.9279C4.0695 23.9774 4.20107 24.0018 4.33358 24H6.20467C6.50873 24.8384 7.16185 25.4915 8.00025 25.7955V27.6666C7.99837 27.7991 8.02285 27.9307 8.07227 28.0537C8.12168 28.1766 8.19504 28.2886 8.28808 28.3829C8.38113 28.4773 8.492 28.5522 8.61426 28.6034C8.73652 28.6545 8.86772 28.6809 9.00025 28.6809C9.13277 28.6809 9.26397 28.6545 9.38623 28.6034C9.50849 28.5522 9.61936 28.4773 9.71241 28.3829C9.80545 28.2886 9.87881 28.1766 9.92822 28.0537C9.97764 27.9307 10.0021 27.7991 10.0002 27.6666V26H12.6669V27.6666C12.665 27.7991 12.6895 27.9307 12.7389 28.0537C12.7883 28.1766 12.8617 28.2886 12.9548 28.3829C13.0478 28.4773 13.1587 28.5522 13.2809 28.6034C13.4032 28.6545 13.5344 28.6809 13.6669 28.6809C13.7994 28.6809 13.9306 28.6545 14.0529 28.6034C14.1752 28.5522 14.286 28.4773 14.3791 28.3829C14.4721 28.2886 14.5455 28.1766 14.5949 28.0537C14.6443 27.9307 14.6688 27.7991 14.6669 27.6666V26H17.3336V27.6666C17.3317 27.7991 17.3562 27.9307 17.4056 28.0537C17.455 28.1766 17.5284 28.2886 17.6214 28.3829C17.7145 28.4773 17.8253 28.5522 17.9476 28.6034C18.0698 28.6545 18.2011 28.6809 18.3336 28.6809C18.4661 28.6809 18.5973 28.6545 18.7196 28.6034C18.8418 28.5522 18.9527 28.4773 19.0457 28.3829C19.1388 28.2886 19.2121 28.1766 19.2616 28.0537C19.311 27.9307 19.3355 27.7991 19.3336 27.6666V26H22.0002V27.6666C21.9984 27.7991 22.0229 27.9307 22.0723 28.0537C22.1217 28.1766 22.195 28.2886 22.2881 28.3829C22.3811 28.4773 22.492 28.5522 22.6143 28.6034C22.7365 28.6545 22.8677 28.6809 23.0002 28.6809C23.1328 28.6809 23.264 28.6545 23.3862 28.6034C23.5085 28.5522 23.6194 28.4773 23.7124 28.3829C23.8055 28.2886 23.8788 28.1766 23.9282 28.0537C23.9776 27.9307 24.0021 27.7991 24.0002 27.6666V25.7955C24.8386 25.4915 25.4918 24.8384 25.7958 24H27.6669C27.7994 24.0018 27.931 23.9774 28.054 23.9279C28.1769 23.8785 28.2888 23.8052 28.3832 23.7121C28.4776 23.6191 28.5525 23.5082 28.6037 23.3859C28.6548 23.2637 28.6812 23.1325 28.6812 23C28.6812 22.8674 28.6548 22.7362 28.6037 22.614C28.5525 22.4917 28.4776 22.3808 28.3832 22.2878C28.2888 22.1948 28.1769 22.1214 28.054 22.072C27.931 22.0226 27.7994 21.9981 27.6669 22H26.0002V19.3333H27.6669C27.7994 19.3352 27.931 19.3107 28.054 19.2613C28.1769 19.2119 28.2888 19.1385 28.3832 19.0455C28.4776 18.9524 28.5525 18.8415 28.6037 18.7193C28.6548 18.597 28.6812 18.4658 28.6812 18.3333C28.6812 18.2008 28.6548 18.0696 28.6037 17.9473C28.5525 17.825 28.4776 17.7142 28.3832 17.6211C28.2888 17.5281 28.1769 17.4547 28.054 17.4053C27.931 17.3559 27.7994 17.3314 27.6669 17.3333H26.0002V14.6666H27.6669C27.7994 14.6685 27.931 14.644 28.054 14.5946C28.1769 14.5452 28.2888 14.4718 28.3832 14.3788C28.4776 14.2857 28.5525 14.1749 28.6037 14.0526C28.6548 13.9304 28.6812 13.7992 28.6812 13.6666C28.6812 13.5341 28.6548 13.4029 28.6037 13.2806C28.5525 13.1584 28.4776 13.0475 28.3832 12.9545C28.2888 12.8614 28.1769 12.7881 28.054 12.7386C27.931 12.6892 27.7994 12.6648 27.6669 12.6666H26.0002V9.99996H27.6669C27.7994 10.0018 27.931 9.97735 28.054 9.92794C28.1769 9.87852 28.2888 9.80516 28.3832 9.71212C28.4776 9.61908 28.5525 9.5082 28.6037 9.38595C28.6548 9.26369 28.6812 9.13248 28.6812 8.99996C28.6812 8.86743 28.6548 8.73623 28.6037 8.61397C28.5525 8.49172 28.4776 8.38084 28.3832 8.2878C28.2888 8.19476 28.1769 8.12139 28.054 8.07198C27.931 8.02257 27.7994 7.99809 27.6669 7.99996H25.7958C25.4918 7.16156 24.8386 6.50844 24.0002 6.20439V4.33329C24.0021 4.20078 23.9776 4.06922 23.9282 3.94625C23.8788 3.82328 23.8055 3.71136 23.7124 3.61699C23.6194 3.52262 23.5085 3.44768 23.3862 3.39654C23.264 3.34539 23.1328 3.31905 23.0002 3.31905C22.8677 3.31905 22.7365 3.34539 22.6143 3.39654C22.492 3.44768 22.3811 3.52262 22.2881 3.61699C22.195 3.71136 22.1217 3.82328 22.0723 3.94625C22.0229 4.06922 21.9984 4.20078 22.0002 4.33329V5.99996H19.3336V4.33329C19.3355 4.20078 19.311 4.06922 19.2616 3.94625C19.2121 3.82328 19.1388 3.71136 19.0457 3.61699C18.9527 3.52262 18.8418 3.44768 18.7196 3.39654C18.5973 3.34539 18.4661 3.31905 18.3336 3.31905C18.2011 3.31905 18.0698 3.34539 17.9476 3.39654C17.8253 3.44768 17.7145 3.52262 17.6214 3.61699C17.5284 3.71136 17.455 3.82328 17.4056 3.94625C17.3562 4.06922 17.3317 4.20078 17.3336 4.33329V5.99996H14.6669V4.33329C14.6688 4.20078 14.6443 4.06922 14.5949 3.94625C14.5455 3.82328 14.4721 3.71136 14.3791 3.61699C14.286 3.52262 14.1752 3.44768 14.0529 3.39654C13.9306 3.34539 13.7994 3.31905 13.6669 3.31905C13.5344 3.31905 13.4032 3.34539 13.2809 3.39654C13.1587 3.44768 13.0478 3.52262 12.9548 3.61699C12.8617 3.71136 12.7883 3.82328 12.7389 3.94625C12.6895 4.06922 12.665 4.20078 12.6669 4.33329V5.99996H10.0002V4.33329C10.0022 4.19945 9.9772 4.06658 9.92682 3.94257C9.87644 3.81855 9.80168 3.70591 9.70697 3.61132C9.61226 3.51673 9.49952 3.44211 9.37544 3.39189C9.25136 3.34168 9.11846 3.31688 8.98462 3.31897ZM9.1604 7.99996H13.5028C13.6102 8.01759 13.7197 8.01759 13.8271 7.99996H18.1695C18.2769 8.01759 18.3864 8.01759 18.4937 7.99996H22.8362C22.9011 8.01076 22.967 8.01512 23.0328 8.01298C23.5661 8.03182 23.969 8.43525 23.9872 8.96871C23.9854 9.03278 23.9898 9.09688 24.0002 9.16012V13.5026C23.9826 13.6099 23.9826 13.7194 24.0002 13.8268V18.1692C23.9826 18.2766 23.9826 18.3861 24.0002 18.4934V22.8359C23.9894 22.9008 23.9851 22.9667 23.9872 23.0325C23.9684 23.5658 23.565 23.9687 23.0315 23.9869C22.9674 23.9851 22.9033 23.9895 22.8401 24H18.4976C18.3903 23.9823 18.2808 23.9823 18.1734 24H13.831C13.7236 23.9823 13.6141 23.9823 13.5068 24H9.16431C9.09936 23.9892 9.0335 23.9848 8.96769 23.9869C8.43443 23.9681 8.03146 23.5647 8.01327 23.0312C8.01507 22.9671 8.01071 22.903 8.00025 22.8398V18.4974C8.01788 18.39 8.01788 18.2805 8.00025 18.1731V13.8307C8.01788 13.7233 8.01788 13.6138 8.00025 13.5065V9.16402C8.01105 9.09907 8.01541 9.03321 8.01327 8.96741C8.03211 8.43415 8.43553 8.03118 8.969 8.01298C9.03307 8.01478 9.09716 8.01042 9.1604 7.99996ZM10.3336 9.33329C10.0684 9.33329 9.81401 9.43865 9.62647 9.62619C9.43893 9.81372 9.33358 10.0681 9.33358 10.3333C9.33358 10.5985 9.43893 10.8529 9.62647 11.0404C9.81401 11.2279 10.0684 11.3333 10.3336 11.3333C10.5988 11.3333 10.8531 11.2279 11.0407 11.0404C11.2282 10.8529 11.3336 10.5985 11.3336 10.3333C11.3336 10.0681 11.2282 9.81372 11.0407 9.62619C10.8531 9.43865 10.5988 9.33329 10.3336 9.33329ZM21.6669 20.6666C21.4017 20.6666 21.1473 20.772 20.9598 20.9595C20.7723 21.1471 20.6669 21.4014 20.6669 21.6666C20.6669 21.9318 20.7723 22.1862 20.9598 22.3737C21.1473 22.5613 21.4017 22.6666 21.6669 22.6666C21.9321 22.6666 22.1865 22.5613 22.374 22.3737C22.5616 22.1862 22.6669 21.9318 22.6669 21.6666C22.6669 21.4014 22.5616 21.1471 22.374 20.9595C22.1865 20.772 21.9321 20.6666 21.6669 20.6666Z" fill="#1D88DD"/>
</svg>
