<!-- icon666.com - MILLIONS vector ICONS FREE --><svg id="Layer_1" viewBox="0 0 512 512" xmlns="http://www.w3.org/2000/svg"><path  fill="#f05a28"  d="m509.856 486.786-82.443-142.795c27.678-35.952 44.165-80.942 44.165-129.719 0-117.48-95.578-213.058-213.058-213.058s-213.059 95.578-213.059 213.058c0 47.076 15.358 90.628 41.313 125.93l-84.63 146.584c-3.462 5.996-2.674 13.539 1.952 18.69 3.104 3.457 7.464 5.311 11.909 5.311 2.18-.001 4.381-.446 6.465-1.367l87.511-38.691 38.786 35.813c3.573 3.299 8.448 4.797 13.259 4.063 4.807-.73 9.021-3.607 11.452-7.818l45.677-79.115c12.764 2.394 25.918 3.66 39.365 3.66 11.847 0 23.465-.988 34.791-2.856l45.212 78.312c2.432 4.211 6.646 7.088 11.452 7.818 4.807.731 9.687-.764 13.259-4.063l38.786-35.813 87.511 38.691c2.084.921 4.284 1.367 6.465 1.367 4.445-.001 8.805-1.854 11.909-5.311 4.625-5.152 5.413-12.695 1.951-18.691zm-354.085-17.332-31.801-29.361c-4.686-4.327-11.492-5.455-17.323-2.879l-52.278 23.114 54.561-94.5c21.967 21.686 48.609 38.641 78.26 49.207zm-78.31-255.182c0-99.836 81.223-181.059 181.059-181.059s181.059 81.223 181.059 181.059-81.224 181.059-181.059 181.059-181.059-81.223-181.059-181.059zm327.892 222.942c-5.83-2.577-12.638-1.447-17.324 2.879l-31.8 29.361-30.58-52.968c29.883-9.946 56.846-26.339 79.229-47.527l52.753 91.369zm-81.629-189.512 66.121-47.846c5.624-4.069 7.982-11.303 5.837-17.906-2.143-6.593-8.286-11.056-15.217-11.056-.01 0-.021 0-.03 0l-81.616.156-25.073-77.67c-2.133-6.607-8.284-11.085-15.227-11.085s-13.094 4.479-15.227 11.085l-25.07 77.671-81.618-.156c-.01 0-.02 0-.03 0-6.93 0-13.074 4.463-15.217 11.056-2.146 6.604.213 13.837 5.838 17.907l66.122 47.845-25.372 77.574c-2.158 6.599.186 13.837 5.803 17.918 5.616 4.08 13.226 4.073 18.834-.019l65.938-48.1 65.938 48.1c2.809 2.05 6.118 3.074 9.429 3.074 3.3 0 6.601-1.019 9.404-3.056 5.617-4.081 7.961-11.319 5.803-17.918zm-55.775 14.644c-2.81-2.05-6.119-3.074-9.43-3.074s-6.62 1.024-9.43 3.074l-35.322 25.767 13.592-41.557c2.162-6.609-.193-13.859-5.827-17.936l-35.422-25.631 43.723.084h.03c6.941-.001 13.094-4.478 15.227-11.085l13.431-41.608 13.431 41.608c2.134 6.608 8.285 11.085 15.227 11.085h.03l43.722-.084-35.421 25.631c-5.634 4.076-7.989 11.326-5.827 17.936l13.591 41.558z"></path></svg>