<svg width="22" height="22" viewBox="0 0 22 22" fill="none" xmlns="http://www.w3.org/2000/svg">
<path d="M18.2957 19.6318L12.3221 13.6582C11.8536 14.0402 11.2949 14.3368 10.646 14.5482C9.99708 14.7595 9.3307 14.8652 8.64682 14.8652C6.87359 14.8652 5.3801 14.2579 4.16634 13.0433C2.95258 11.8287 2.3457 10.348 2.3457 8.60128C2.3457 6.85453 2.95299 5.37386 4.16758 4.15928C5.38215 2.94469 6.86282 2.3374 8.60958 2.3374C10.3563 2.3374 11.837 2.94469 13.0516 4.15928C14.2662 5.37386 14.8735 6.85529 14.8735 8.60358C14.8735 9.27937 14.7729 9.92791 14.5717 10.5492C14.3706 11.1705 14.0663 11.746 13.6589 12.2756L19.6707 18.2569L18.2957 19.6318ZM8.61722 12.9402C9.8318 12.9402 10.8573 12.5198 11.6938 11.6791C12.5302 10.8384 12.9485 9.81248 12.9485 8.60128C12.9485 7.39009 12.5307 6.36414 11.6951 5.52344C10.8596 4.68275 9.83405 4.2624 8.61857 4.2624C7.39459 4.2624 6.36395 4.68275 5.52665 5.52344C4.68934 6.36414 4.27068 7.39009 4.27068 8.60128C4.27068 9.81248 4.68934 10.8384 5.52665 11.6791C6.36395 12.5198 7.39414 12.9402 8.61722 12.9402Z" fill="#687494"/>
</svg>
