<svg width="26" height="26" viewBox="0 0 26 26" fill="none" xmlns="http://www.w3.org/2000/svg">
<path d="M22.9472 7.8328C22.9856 7.712 23.0039 7.6 22.9989 7.5C22.9864 7.2104 22.7789 7 22.2906 7H20.1089C19.5581 7 19.3039 7.32 19.1556 7.6408C19.1556 7.6408 17.7956 10.328 16.2282 12.1C15.7198 12.6128 15.4615 12.6 15.1865 12.6C15.039 12.6 14.6665 12.4288 14.6665 11.9592V7.8112C14.6665 7.256 14.5223 7 14.0565 7H10.1824C9.84324 7 9.66658 7.256 9.66658 7.5128C9.66658 8.0464 10.4149 8.1744 10.4999 9.6696V12.568C10.4999 13.272 10.3724 13.4 10.0974 13.4C9.35575 13.4 7.89577 11 6.91828 7.8544C6.70662 7.2352 6.49495 7 5.94413 7H3.74166C3.10583 7 3 7.2992 3 7.6192C3 8.196 3.49999 11.3144 6.22912 14.9C8.20826 17.5 10.8157 19 13.124 19C14.5223 19 14.6657 18.6584 14.6657 18.1248V15.7472C14.6665 15.1064 14.819 15 15.264 15C15.5815 15 16.229 15.2 17.479 16.6C18.9206 18.2144 19.1823 19 20.0089 19H22.1906C22.6972 19 22.9881 18.796 22.9997 18.4C23.0022 18.2992 22.9872 18.1864 22.9531 18.0608C22.7914 17.6 22.0497 16.4736 21.1248 15.4C20.6123 14.8056 20.1064 14.2168 19.8739 13.8968C19.7181 13.688 19.6589 13.5408 19.6664 13.4C19.6739 13.252 19.7539 13.1112 19.8739 12.9144C19.8523 12.9144 22.6722 9.1136 22.9472 7.8328Z" fill="white"/>
</svg>
