<svg width="22" height="22" viewBox="0 0 22 22" fill="none" xmlns="http://www.w3.org/2000/svg">
<path d="M10.5494 20.7854C8.97167 20.7854 7.63281 20.2449 6.53281 19.1638C5.43281 18.0827 4.88281 16.767 4.88281 15.2167V5.11045C4.88281 3.97971 5.27462 3.02098 6.05823 2.23427C6.84186 1.44756 7.79848 1.0542 8.92811 1.0542C10.0614 1.0542 11.0226 1.45047 11.8117 2.243C12.6008 3.03554 12.9953 3.99899 12.9953 5.13337V14.2794C12.9953 14.9678 12.7591 15.552 12.2867 16.0321C11.8143 16.5121 11.2294 16.7521 10.5318 16.7521C9.82135 16.7521 9.23698 16.5039 8.77865 16.0073C8.32031 15.5108 8.09115 14.8974 8.09115 14.1671V5.06462H9.5349V14.2313C9.5349 14.5525 9.63028 14.8161 9.82106 15.0222C10.0118 15.2283 10.2526 15.3313 10.5432 15.3313C10.8339 15.3313 11.0746 15.2321 11.2654 15.0337C11.4562 14.8352 11.5516 14.5831 11.5516 14.2771V5.11045C11.5516 4.39239 11.2957 3.77746 10.7839 3.26566C10.272 2.75385 9.64948 2.49795 8.91615 2.49795C8.19809 2.49795 7.57934 2.75385 7.0599 3.26566C6.54045 3.77746 6.28073 4.39239 6.28073 5.11045V15.2648C6.28073 16.4318 6.70087 17.4107 7.54115 18.2014C8.38142 18.9922 9.38212 19.3875 10.5432 19.3875C11.7196 19.3875 12.7241 18.9864 13.5568 18.1841C14.3894 17.3818 14.8057 16.39 14.8057 15.2088V5.06462H16.2266V15.1938C16.2266 16.7441 15.6748 18.0636 14.5713 19.1523C13.4677 20.2411 12.1271 20.7854 10.5494 20.7854Z" fill="#1D88DD"/>
</svg>
