<svg width="26" height="26" viewBox="0 0 26 26" fill="none" xmlns="http://www.w3.org/2000/svg">
<path d="M13.0031 12.729C13.5251 12.729 13.9711 12.5431 14.3413 12.1714C14.7114 11.7997 14.8965 11.3528 14.8965 10.8308C14.8965 10.3088 14.7106 9.86268 14.3389 9.49255C13.9671 9.12241 13.5203 8.93734 12.9982 8.93734C12.4762 8.93734 12.0302 9.12321 11.66 9.49496C11.2899 9.86668 11.1048 10.3136 11.1048 10.8356C11.1048 11.3576 11.2907 11.8037 11.6624 12.1738C12.0342 12.5439 12.481 12.729 13.0031 12.729ZM13.0007 23.8332C10.0937 21.3596 7.92253 19.062 6.48711 16.9405C5.05169 14.8189 4.33398 12.8554 4.33398 11.0498C4.33398 8.3415 5.20516 6.18386 6.94753 4.57692C8.68989 2.96998 10.7076 2.1665 13.0007 2.1665C15.2937 2.1665 17.3114 2.96998 19.0538 4.57692C20.7961 6.18386 21.6673 8.3415 21.6673 11.0498C21.6673 12.8554 20.9496 14.8189 19.5142 16.9405C18.0788 19.062 15.9076 21.3596 13.0007 23.8332Z" fill="white"/>
</svg>
