<svg width="22" height="22" viewBox="0 0 22 22" fill="none" xmlns="http://www.w3.org/2000/svg">
<path d="M11.0033 10.771C11.445 10.771 11.8225 10.6137 12.1357 10.2992C12.4489 9.98463 12.6055 9.6065 12.6055 9.16479C12.6055 8.72309 12.4482 8.34565 12.1336 8.03245C11.8191 7.71926 11.441 7.56266 10.9993 7.56266C10.5576 7.56266 10.1801 7.71994 9.86693 8.03449C9.55373 8.34903 9.39714 8.72716 9.39714 9.16887C9.39714 9.61056 9.55441 9.98801 9.86897 10.3012C10.1835 10.6144 10.5616 10.771 11.0033 10.771ZM11.0013 20.1668C8.54158 18.0738 6.70443 16.1297 5.48984 14.3345C4.27526 12.5394 3.66797 10.8779 3.66797 9.35016C3.66797 7.0585 4.40512 5.2328 5.87943 3.87308C7.35373 2.51336 9.06102 1.8335 11.0013 1.8335C12.9416 1.8335 14.6489 2.51336 16.1232 3.87308C17.5975 5.2328 18.3346 7.0585 18.3346 9.35016C18.3346 10.8779 17.7273 12.5394 16.5128 14.3345C15.2982 16.1297 13.461 18.0738 11.0013 20.1668Z" fill="white"/>
</svg>
