<svg width="280" height="48" viewBox="0 0 280 48" fill="none" xmlns="http://www.w3.org/2000/svg">
<path d="M23.0279 17.4757H31.4166C32.0805 17.4757 32.8047 17.536 33.4685 17.7171C34.1324 17.8378 34.7962 18.0792 35.3997 18.3206C36.0032 18.6223 36.6067 18.9844 37.0896 19.4069C37.6327 19.8293 38.0552 20.3121 38.4173 20.8553L40.1071 23.3297C40.2278 22.9072 40.3485 22.4848 40.5899 22.1226C40.8916 21.5191 41.3141 21.0363 41.7365 20.4328L42.0383 20.0707C47.5905 12.5873 49.401 10.1129 54.9533 2.68981C55.1343 2.44841 55.3757 2.20701 55.6171 2.02596C55.8585 1.84491 56.0999 1.66386 56.4017 1.54315C56.7034 1.42245 57.0052 1.30175 57.2466 1.2414C57.5483 1.18105 57.8501 1.1207 58.1518 1.1207H70.5237C70.8254 1.1207 71.1272 1.18105 71.3686 1.2414C71.6703 1.30175 71.9117 1.4828 72.1531 1.66385C72.3342 1.78455 72.4549 1.90526 72.5756 2.02596C72.6963 2.14666 72.817 2.32771 72.8773 2.50876L72.9981 2.81051C72.9981 2.87086 73.0584 2.93121 73.0584 2.99156C73.1188 3.17261 73.1188 3.41402 73.1188 3.59507C73.1188 3.89682 73.0584 4.13822 72.9981 4.43997C72.9377 4.68138 72.7566 4.92278 72.5756 5.16418L60.3848 22.0019C60.2641 22.1227 60.1434 22.2433 60.0227 22.4244C59.902 22.5451 59.7813 22.6658 59.6003 22.7262C59.3589 22.9072 59.1175 22.9676 58.8761 23.0883C58.6347 23.1486 58.3329 23.209 58.0915 23.209C58.0312 23.209 57.9708 23.209 57.9105 23.209L72.2738 43.0039V43.0642C72.3342 43.1849 72.3946 43.3056 72.3946 43.4263C72.5153 43.7281 72.5756 44.0299 72.5756 44.2713C72.5756 44.4523 72.5756 44.6334 72.5153 44.8748C72.4549 45.0558 72.3945 45.2369 72.2738 45.4179C72.2135 45.599 72.0928 45.7197 71.9721 45.9007C71.8514 46.0214 71.7307 46.2025 71.5496 46.2628C71.3082 46.4439 71.0065 46.5646 70.7651 46.6853C70.4633 46.7456 70.2219 46.806 69.9202 46.806H57.5483C57.2466 46.806 56.9448 46.7456 56.6431 46.6853C56.3413 46.6249 56.0396 46.5042 55.7982 46.3835C55.4964 46.2628 55.255 46.0818 55.0136 45.9007C54.7722 45.7197 54.5308 45.4783 54.3498 45.2369L53.5652 44.2109L44.8748 32.5029C44.8748 32.9254 44.7541 33.4082 44.6334 33.8306C44.4523 34.3738 44.2109 34.8566 43.9092 35.3394L38.3569 43.547C37.9948 44.0902 37.5724 44.573 37.0292 44.9955C36.5464 45.4179 35.9429 45.78 35.3394 46.0818C34.7359 46.3835 34.072 46.5646 33.4082 46.6853C32.7443 46.806 32.0805 46.9267 31.3563 46.9267H4.62103C4.37962 46.9267 4.13822 46.8663 3.89682 46.806C3.65542 46.7456 3.41402 46.6249 3.17262 46.5042C2.99156 46.3835 2.81051 46.2628 2.62946 46.1421C2.44841 45.9611 2.32771 45.8404 2.20701 45.599C2.08631 45.4179 2.02596 45.1765 1.96561 44.9351C1.90526 44.6937 1.84491 44.4523 1.84491 44.2713C1.84491 44.0299 1.90526 43.7885 1.96561 43.547C2.02596 43.3056 2.14666 43.1246 2.26736 42.8832C3.83647 40.1674 5.82803 33.891 9.56976 33.891H26.6489L27.7956 32.1408L26.7696 30.5717L18.6827 30.6321C17.1136 30.6321 13.9753 30.5717 12.4666 30.2096C11.8027 30.0889 11.1389 29.8475 10.5354 29.6061C9.93186 29.3043 9.32836 28.9422 8.84556 28.5198C8.3024 28.0973 7.87995 27.6145 7.51785 27.0714L1.72421 18.562V18.5016C1.4828 18.1395 1.3621 17.7171 1.2414 17.355C1.06035 16.8118 1 16.2687 1 15.7255C1 15.1824 1.06035 14.6392 1.2414 14.096C1.3621 13.7339 1.54315 13.3115 1.72421 12.9494V12.889L7.4575 4.37962C7.8196 3.83647 8.24205 3.35367 8.78521 2.93121C9.26801 2.50876 9.87151 2.14666 10.475 1.84491C11.0785 1.54315 11.7424 1.3621 12.4062 1.2414C13.0701 1.1207 13.7339 1 14.4581 1H43.6074C43.9092 1 44.1506 1.06035 44.4523 1.1207C45.599 1.42245 46.3232 2.32771 46.3232 3.53472C46.3232 3.77612 46.2628 4.07787 46.2025 4.31927C46.1421 4.56068 46.0214 4.80208 45.8404 5.04348L45.4783 5.58663L41.2537 11.8631L41.0123 12.1648C40.8313 12.4062 40.5899 12.6476 40.3485 12.889C40.1071 13.0701 39.8053 13.2511 39.5639 13.4322C39.2622 13.5529 38.9604 13.6736 38.6587 13.7339C38.3569 13.7943 38.0552 13.8546 37.7534 13.8546H19.2258L18.0792 15.6048L19.2258 17.2946L23.0279 17.4757Z" stroke="white" stroke-width="0.8504" stroke-miterlimit="22.9256"/>
<path d="M22.2435 19.2261C22.4245 19.1054 22.7263 18.9847 23.028 18.9847H31.4167C32.6237 18.9847 33.7704 19.2261 34.736 19.7089C35.762 20.1917 36.6069 20.8555 37.15 21.7004L42.7023 29.9081C43.1851 30.6323 43.4265 31.4168 43.4265 32.2014C43.4265 32.9859 43.1851 33.7705 42.7023 34.4947L37.15 42.642C36.6069 43.4869 35.762 44.1508 34.736 44.6336C33.7704 45.1164 32.6237 45.3578 31.4167 45.3578H4.62115C4.3194 45.3578 4.078 45.2974 3.89694 45.1767C3.71589 45.056 3.59519 44.9353 3.47449 44.8146C3.35379 44.6336 3.35379 44.4525 3.35379 44.2715C3.35379 44.0904 3.41414 43.849 3.53484 43.6076L7.57832 36.4863C7.75937 36.1845 8.06112 35.8828 8.42323 35.7017C8.78533 35.5207 9.14743 35.4 9.56988 35.4H26.8301C27.0112 35.4 27.1922 35.3396 27.3733 35.2793C27.5543 35.2189 27.675 35.0982 27.7957 34.9775L29.4252 32.6238C29.4855 32.5031 29.5459 32.3824 29.5459 32.2617C29.5459 32.0807 29.4855 31.96 29.4252 31.8996L27.7957 29.546L27.2526 28.7011L26.8301 28.0372L24.9592 25.2007L22.1228 20.8555C21.9417 20.6141 21.8814 20.3727 21.8814 20.1313C21.8814 19.9503 21.9417 19.7692 22.0021 19.6485C22.0021 19.4071 22.1228 19.2864 22.2435 19.2261ZM23.2694 20.3124L25.9852 24.4162L27.8561 27.2527L28.2785 27.9165L28.8217 28.7614L30.4511 31.1151C30.6925 31.4168 30.7529 31.8393 30.7529 32.2014C30.7529 32.5635 30.6322 32.986 30.4511 33.2877L28.8217 35.6414C28.6406 35.9431 28.2785 36.1845 27.9164 36.3656C27.5543 36.5466 27.1319 36.6673 26.7698 36.6673H9.56988C9.38883 36.6673 9.20778 36.7277 9.08708 36.788C8.90603 36.8484 8.78533 36.9691 8.72498 37.0898L4.74185 44.0904H31.3564C32.3823 44.0904 33.348 43.9094 34.1325 43.4869C34.9171 43.1248 35.5809 42.5817 36.0034 41.9782L41.5556 33.7705C41.9177 33.2877 42.0384 32.7445 42.0384 32.2014C42.0384 31.6582 41.8574 31.1151 41.5556 30.6323L36.1241 22.3643C35.7016 21.7004 35.0378 21.2176 34.2532 20.8555C33.4083 20.4934 32.4427 20.252 31.4771 20.252H23.2694V20.3124ZM49.1598 15.0619C47.4096 17.4155 45.6594 19.8296 43.8489 22.1229C43.1851 22.9678 42.7023 23.6316 42.7023 24.3558C42.7023 25.0197 43.1851 25.6835 43.7886 26.4681C43.9093 26.5888 44.03 26.7699 44.211 27.0113L56.6432 43.6076C56.7036 43.7283 56.8846 43.849 57.0657 43.9094C57.2467 44.0301 57.4881 44.0301 57.6692 44.0301H69.7393L55.738 24.7179L49.1598 15.0619ZM43.1851 20.9762L48.1338 14.3377C48.2545 14.1566 48.4356 14.0359 48.5563 13.9152C48.7373 13.7945 48.9787 13.7342 49.1598 13.7342C49.4012 13.7342 49.5822 13.7945 49.7633 13.9152C49.9443 14.0359 50.065 14.1566 50.1857 14.3377L56.7036 23.9937L70.9463 43.6076C71.1273 43.849 71.1877 44.0904 71.1877 44.3318C71.1877 44.5129 71.1273 44.6336 71.067 44.7543C71.0066 44.875 70.8859 44.9957 70.7652 45.1164C70.5842 45.2371 70.2824 45.3578 69.9807 45.3578H57.6088C57.2467 45.3578 56.8243 45.2371 56.4622 45.056C56.1001 44.875 55.738 44.6336 55.5569 44.3318L43.2454 27.7355C43.1247 27.6148 43.004 27.4337 42.823 27.2527C42.0384 26.2871 41.4349 25.5025 41.4349 24.3558C41.4349 23.1488 42.0988 22.3643 42.8833 21.3383L43.1851 20.9762ZM58.2123 3.89705C58.0313 3.89705 57.8502 3.9574 57.6088 4.01775C57.4278 4.0781 57.2467 4.1988 57.1864 4.3195L52.4187 10.7166C52.3583 10.8373 52.298 10.958 52.298 11.0787C52.298 11.1994 52.298 11.3805 52.3583 11.4408L58.2727 20.3727L70.2221 3.8367H58.2123V3.89705ZM57.0657 2.87109C57.4278 2.69004 57.8502 2.56934 58.2123 2.56934H70.5238C70.8256 2.56934 71.1273 2.62969 71.3084 2.81074C71.4291 2.93144 71.5498 2.99179 71.6101 3.17284C71.6705 3.29354 71.7308 3.47459 71.7308 3.59529C71.7308 3.8367 71.6705 4.0781 71.4894 4.3195L59.2986 21.1573C59.1779 21.278 59.0572 21.3987 58.9365 21.5194C58.7555 21.6401 58.5141 21.7004 58.2727 21.7004C58.0313 21.7004 57.7899 21.6401 57.6088 21.459C57.4881 21.3383 57.3674 21.2176 57.2467 21.0969L51.3324 12.1047C51.091 11.803 51.0306 11.3805 51.0306 11.0184C51.0306 10.5959 51.1513 10.2338 51.3927 9.93209L56.1604 3.53494C56.3415 3.29354 56.7036 3.05214 57.0657 2.87109ZM14.5186 3.89705C13.4927 3.89705 12.5271 4.0781 11.7425 4.50055C10.9579 4.86265 10.2941 5.40581 9.87164 6.00931L4.3194 14.217C3.95729 14.6998 3.83659 15.2429 3.83659 15.7861C3.83659 16.3292 4.01764 16.8724 4.3194 17.3552L9.87164 25.5628C10.2941 26.2267 10.9579 26.7095 11.7425 27.0716C12.5874 27.4337 13.553 27.6751 14.5186 27.6751H22.7866C22.3038 27.0113 15.5446 16.8724 15.5446 16.8724C15.3032 16.5706 15.2428 16.1482 15.2428 15.7861C15.2428 15.424 15.3635 15.0015 15.5446 14.6998L17.174 12.3461C17.3551 12.0444 17.7172 11.803 18.0793 11.6219C18.4414 11.4408 18.8639 11.3201 19.226 11.3201H37.9346C38.1156 11.3201 38.2967 11.2598 38.4777 11.1994C38.6588 11.1391 38.7795 11.0184 38.9002 10.8977L43.6075 4.01775H14.5186V3.89705ZM11.139 3.29354C12.1046 2.81074 13.2513 2.56934 14.4583 2.56934H43.6075C43.9093 2.56934 44.211 2.62969 44.3921 2.81074C44.5128 2.93144 44.6335 3.05214 44.6938 3.17284C44.7542 3.29354 44.8145 3.47459 44.8145 3.65565C44.8145 3.89705 44.7542 4.13845 44.5731 4.37985L39.7451 11.5616C39.564 11.8633 39.2019 12.1047 38.8398 12.2858C38.4777 12.4668 38.0553 12.5875 37.6932 12.5875H18.9846C18.8035 12.5875 18.6224 12.6479 18.4414 12.7082C18.2603 12.7686 18.1396 12.8893 18.0189 13.01L16.3895 15.3636C16.3291 15.4843 16.2688 15.605 16.2688 15.7257C16.2688 15.9068 16.3291 16.0275 16.3895 16.0878L23.8126 27.132C23.9936 27.3734 24.054 27.6148 24.054 27.8562C24.054 28.0372 23.9936 28.1579 23.9333 28.339C23.8729 28.4597 23.7522 28.5804 23.6315 28.7011C23.4505 28.8218 23.1487 28.9425 22.847 28.9425H14.3979C13.1909 28.9425 12.0443 28.7011 11.0786 28.2183C10.0527 27.7355 9.20778 27.0716 8.66463 26.2267L3.11239 18.019C2.62958 17.2948 2.38818 16.5103 2.38818 15.7257C2.38818 14.9412 2.62958 14.1566 3.11239 13.4324L8.66463 5.22476C9.32848 4.4402 10.1734 3.77634 11.139 3.29354Z" fill="white"/>
<path d="M49.1598 15.0619C47.4096 17.4155 45.6594 19.8296 43.8489 22.1229C43.1851 22.9678 42.7023 23.6316 42.7023 24.3558C42.7023 25.0197 43.1851 25.6835 43.7886 26.4681C43.9093 26.5888 44.03 26.7699 44.211 27.0113L56.6432 43.6076C56.7036 43.7283 56.8846 43.849 57.0657 43.9094C57.2467 44.0301 57.4881 44.0301 57.6692 44.0301H69.7393L55.738 24.7179L49.1598 15.0619Z" fill="white"/>
<path d="M58.2123 3.89705C58.0313 3.89705 57.8502 3.9574 57.6088 4.01775C57.4278 4.0781 57.2467 4.1988 57.1864 4.3195L52.4187 10.7166C52.3583 10.8373 52.298 10.958 52.298 11.0787C52.298 11.1994 52.298 11.3805 52.3583 11.4408L58.2727 20.3727L70.2221 3.8367H58.2123V3.89705Z" fill="white"/>
<path d="M23.2694 20.3124L25.9852 24.4162L27.8561 27.2527L28.2785 27.9165L28.8217 28.7614L30.4511 31.1151C30.6925 31.4168 30.7529 31.8393 30.7529 32.2014C30.7529 32.5635 30.6322 32.986 30.4511 33.2877L28.8217 35.6414C28.6406 35.9431 28.2785 36.1845 27.9164 36.3656C27.5543 36.5466 27.1319 36.6673 26.7698 36.6673H9.56988C9.38883 36.6673 9.20778 36.7277 9.08708 36.788C8.90603 36.8484 8.78533 36.9691 8.72498 37.0898L4.74185 44.0904H31.3564C32.3823 44.0904 33.348 43.9094 34.1325 43.4869C34.9171 43.1248 35.5809 42.5817 36.0034 41.9782L41.5556 33.7705C41.9177 33.2877 42.0384 32.7445 42.0384 32.2014C42.0384 31.6582 41.8574 31.1151 41.5556 30.6323L36.1241 22.3643C35.7016 21.7004 35.0378 21.2176 34.2532 20.8555C33.4083 20.4934 32.4427 20.252 31.4771 20.252H23.2694V20.3124Z" fill="white"/>
<path d="M14.5186 3.89705C13.4927 3.89705 12.5271 4.0781 11.7425 4.50055C10.9579 4.86265 10.2941 5.40581 9.87164 6.00931L4.3194 14.217C3.95729 14.6998 3.83659 15.2429 3.83659 15.7861C3.83659 16.3292 4.01764 16.8724 4.3194 17.3552L9.87164 25.5628C10.2941 26.2267 10.9579 26.7095 11.7425 27.0716C12.5874 27.4337 13.553 27.6751 14.5186 27.6751H22.7866C22.3038 27.0113 15.5446 16.8724 15.5446 16.8724C15.3032 16.5706 15.2428 16.1482 15.2428 15.7861C15.2428 15.424 15.3635 15.0015 15.5446 14.6998L17.174 12.3461C17.3551 12.0444 17.7172 11.803 18.0793 11.6219C18.4414 11.4408 18.8639 11.3201 19.226 11.3201H37.9346C38.1156 11.3201 38.2967 11.2598 38.4777 11.1994C38.6588 11.1391 38.7795 11.0184 38.9002 10.8977L43.6075 4.01775H14.5186V3.89705Z" fill="white"/>
<path d="M94.0001 29.7267C93.8191 29.7267 93.6984 29.6663 93.638 29.4853C93.5777 29.3646 93.5777 29.1835 93.5777 29.0025C93.5777 28.7611 93.6984 28.58 93.8794 28.3386C94.1208 28.0972 94.3622 27.9162 94.664 27.7351C94.9657 27.5541 95.2071 27.4937 95.3882 27.4937C95.4485 27.4937 95.5089 27.4937 95.5089 27.5541C95.5089 27.7351 95.4485 27.8558 95.3278 27.9765C95.2071 28.0972 95.0864 28.2783 94.9054 28.399C94.7847 28.5197 94.664 28.7007 94.5433 28.8818C94.4829 29.0025 94.4226 29.1835 94.3019 29.3646C94.3019 29.5456 94.1812 29.6663 94.0001 29.7267ZM90.8619 39.5035C90.5601 39.5035 90.4395 39.3828 90.4395 39.1414C90.4395 39.0207 90.4394 38.8396 90.4998 38.7189C90.8015 37.8136 91.1033 37.0894 91.2844 36.4859C91.4654 35.8824 91.6465 35.46 91.7672 35.0979C91.8879 34.7358 91.9482 34.4944 92.0085 34.3133C92.0689 34.1323 92.0689 34.0116 92.0689 33.8909C92.0689 33.8305 92.0689 33.7702 92.0085 33.7702C92.0085 33.7702 91.9482 33.7098 91.9482 33.6495C91.9482 33.5891 91.9482 33.5288 92.0085 33.3477C92.3103 32.5028 92.6121 31.8993 92.8535 31.5372C93.0949 31.2354 93.457 31.0544 93.9398 31.0544C94.1208 31.0544 94.2415 31.1147 94.2415 31.2354C94.1208 31.5372 93.8794 31.9597 93.5173 32.5632C93.2156 33.1667 92.8535 33.9512 92.4914 34.8565C92.1293 35.7617 91.8275 36.7877 91.5258 37.9947C91.5258 38.055 91.5258 38.1154 91.5258 38.1757C91.5258 38.3568 91.5861 38.4171 91.7672 38.4171C91.8275 38.4171 92.0086 38.3568 92.1896 38.2361C92.3707 38.1154 92.5517 37.9947 92.7931 37.9343C92.9742 37.8136 93.1552 37.7533 93.2156 37.7533C93.3363 37.7533 93.3966 37.7533 93.3966 37.8136C93.3966 37.874 93.2759 38.055 93.0949 38.2361C92.8535 38.4171 92.6121 38.5982 92.3103 38.7793C92.0085 38.9603 91.7068 39.1414 91.4654 39.2621C91.224 39.4431 90.9826 39.5035 90.8619 39.5035ZM95.3278 39.5638C95.1468 39.5638 95.0261 39.5035 94.9657 39.3828C94.9054 39.2621 94.845 39.1414 94.845 38.9603C94.845 38.6586 94.9054 38.3568 95.0261 37.9343C95.1468 37.5119 95.2675 37.2101 95.3278 36.9084C95.6296 35.9428 95.9313 34.9772 96.1124 34.1323C96.3538 33.2874 96.5348 32.5632 96.6555 31.9597C96.5952 31.9597 96.4141 32.02 96.052 32.02C95.7503 32.02 95.4485 32.0804 95.2071 32.0804C94.9054 32.0804 94.7243 32.02 94.7243 31.8993C94.7243 31.7786 94.845 31.6579 95.0261 31.5372C95.2071 31.4165 95.3882 31.3561 95.4485 31.3561H96.8366L96.8969 31.0544C96.9573 30.8733 96.9573 30.7526 96.9573 30.6923C96.9573 30.6319 96.9573 30.5716 96.8969 30.5112C96.8969 30.5112 96.8366 30.4509 96.8366 30.3905C96.8366 30.3302 96.8366 30.2698 96.8969 30.1491C97.078 29.5456 97.259 29.0628 97.4401 28.7611C97.6211 28.4593 97.8022 28.2179 97.9833 28.0972C98.1643 27.9765 98.4661 27.9162 98.7678 27.9162C99.0092 27.9162 99.0696 27.9765 99.1299 28.0972C99.0696 28.2783 98.8885 28.7007 98.6471 29.2439C98.4057 29.8474 98.1039 30.5716 97.8022 31.3561H99.9145C100.337 31.3561 100.518 31.4165 100.518 31.4768C100.518 31.5372 100.397 31.6579 100.216 31.7183C100.035 31.7786 99.7334 31.839 99.4317 31.839C99.1299 31.8993 98.7678 31.8993 98.4661 31.8993C98.1643 31.8993 97.8626 31.8993 97.6212 31.8993C97.4401 32.4425 97.259 33.046 97.0176 33.7702C96.7762 34.4944 96.5952 35.1582 96.3538 35.8824C96.1727 36.6066 95.9917 37.2101 95.871 37.7533C95.8106 38.055 95.7503 38.2361 95.7503 38.3568C95.7503 38.5982 95.8106 38.7189 95.9917 38.7189C96.1727 38.7189 96.3538 38.6586 96.5952 38.4775C96.8366 38.3568 97.0176 38.1757 97.259 37.9343C97.4401 37.7533 97.6815 37.5722 97.8022 37.3912C97.9832 37.2705 98.104 37.1498 98.1643 37.1498C98.2247 37.1498 98.285 37.2101 98.285 37.2705C98.285 37.3308 98.285 37.4515 98.2247 37.5722C98.1643 37.6929 98.1039 37.7533 98.0436 37.7533C97.9229 37.874 97.7418 37.9947 97.5004 38.1757C97.259 38.3568 97.0177 38.5982 96.7762 38.7793C96.4745 38.9603 96.2331 39.1414 95.9917 39.3224C95.7503 39.4431 95.5692 39.5638 95.3278 39.5638ZM104.742 39.8052C104.622 39.8052 104.441 39.6845 104.26 39.5035C104.079 39.3224 104.018 39.1414 104.018 38.9603C104.018 38.9 104.018 38.9 104.018 38.9C104.32 38.1757 104.501 37.5119 104.682 36.848C104.863 36.1842 104.924 35.5203 104.924 34.7961C104.924 33.8305 104.803 33.1667 104.622 32.8046C104.441 32.4425 104.199 32.2614 104.018 32.2614C103.958 32.2614 103.898 32.3218 103.717 32.4425C103.596 32.5632 103.475 32.6235 103.354 32.6235C103.294 32.6235 103.294 32.6235 103.294 32.5632C103.294 32.4425 103.354 32.2614 103.535 32.02C103.717 31.839 103.898 31.6579 104.139 31.4768C104.38 31.2958 104.561 31.2354 104.682 31.2354C104.924 31.2354 105.105 31.4165 105.225 31.7183C105.346 32.02 105.467 32.4425 105.467 32.8649C105.527 33.3477 105.527 33.7702 105.527 34.253C105.527 34.6151 105.527 34.9168 105.527 35.2789C105.527 35.5807 105.527 35.8221 105.467 36.0031C105.527 35.8221 105.708 35.5807 105.889 35.2186C106.07 34.8565 106.312 34.434 106.613 34.0116C106.915 33.5891 107.157 33.1667 107.458 32.7442C107.76 32.3218 108.001 32.02 108.243 31.7183C108.484 31.4769 108.665 31.2958 108.786 31.2958C108.907 31.1147 109.027 31.0544 109.208 31.0544C109.51 31.0544 109.631 31.2354 109.631 31.5372C109.631 31.5975 109.631 31.6579 109.631 31.7183C109.631 31.7786 109.631 31.839 109.631 31.8993C109.631 31.9597 109.631 32.02 109.691 32.1407C109.752 32.2614 109.752 32.3821 109.812 32.5632C109.933 32.8649 109.993 33.2874 110.114 33.7702C110.234 34.253 110.355 34.7358 110.476 35.2186C110.596 35.7014 110.717 36.1238 110.778 36.4256C110.838 36.7877 110.898 36.9084 110.898 36.9084C110.959 36.9084 111.079 36.7877 111.26 36.5463C111.441 36.3049 111.622 35.9428 111.864 35.5807C112.105 35.1582 112.286 34.7358 112.528 34.3133C112.769 33.8305 112.95 33.4081 113.071 32.9253C113.192 32.5028 113.312 32.0804 113.312 31.7786C113.312 31.6579 113.312 31.5372 113.252 31.4165C113.192 31.2958 113.192 31.1751 113.192 30.994C113.192 30.813 113.252 30.6319 113.433 30.5112C113.614 30.3905 113.735 30.3302 113.795 30.3302C113.916 30.3302 114.036 30.3905 114.157 30.5716C114.218 30.6923 114.278 30.8733 114.338 31.1147C114.399 31.2958 114.399 31.4768 114.399 31.5975C114.399 31.6579 114.338 31.839 114.157 32.2011C113.976 32.5632 113.795 32.9856 113.554 33.5288C113.312 34.0719 113.011 34.6754 112.648 35.2789C112.286 35.8824 111.985 36.4859 111.562 37.0894C111.381 37.3912 111.26 37.5722 111.2 37.7533C111.14 37.9343 111.079 38.055 111.019 38.1757C110.959 38.2964 110.959 38.4775 110.898 38.6586C110.838 38.8396 110.778 39.081 110.657 39.3828C110.596 39.5035 110.536 39.5035 110.415 39.5035C110.295 39.5035 110.114 39.4431 109.993 39.2621C109.872 39.081 109.752 38.9 109.752 38.7793C109.752 38.7189 109.752 38.5982 109.752 38.5378C109.752 38.4171 109.752 38.3568 109.752 38.2361C109.752 37.4515 109.631 36.5463 109.45 35.5203C109.269 34.4944 108.967 33.4684 108.545 32.4425C108.303 32.5632 108.062 32.8649 107.76 33.2874C107.458 33.7098 107.157 34.253 106.794 34.8565C106.493 35.46 106.131 36.0635 105.889 36.667C105.587 37.2705 105.346 37.874 105.165 38.3568C104.984 38.9 104.924 39.2621 104.924 39.5035C104.924 39.6845 104.863 39.8052 104.742 39.8052ZM115.243 39.8052C114.881 39.8052 114.58 39.6845 114.338 39.3828C114.097 39.081 113.976 38.6585 113.976 37.9947C113.976 37.874 113.976 37.6929 113.976 37.5119C113.976 37.3308 114.036 37.1498 114.036 36.9687C114.097 36.7273 114.157 36.3652 114.278 35.8824C114.399 35.3996 114.58 34.9168 114.821 34.3737C115.062 33.8305 115.304 33.2874 115.545 32.8046C115.847 32.3218 116.149 31.8993 116.45 31.5975C116.813 31.2958 117.175 31.1147 117.537 31.1147H117.657C117.657 30.9337 117.718 30.7526 117.839 30.6319C117.959 30.5112 118.14 30.3905 118.321 30.3905C118.502 30.3905 118.623 30.5112 118.683 30.813C118.744 31.0544 118.804 31.3561 118.864 31.6579C118.925 31.9597 118.985 32.2614 119.106 32.5028C119.227 32.7442 119.347 32.8649 119.589 32.9253C119.89 32.9856 120.011 33.046 120.011 33.1667C120.011 33.2874 119.89 33.4081 119.589 33.5288C119.468 33.5891 119.408 33.5891 119.287 33.5891C119.227 33.5891 119.106 33.5891 119.046 33.5891C119.046 34.4944 118.925 35.3393 118.683 36.0635C118.442 36.7877 118.08 37.4515 117.657 37.9947C117.235 38.5378 116.813 38.9603 116.39 39.2621C116.028 39.6242 115.606 39.8052 115.243 39.8052ZM115.545 39.1414C115.787 39.1414 116.088 39.0207 116.45 38.7189C116.813 38.4171 117.114 37.9947 117.416 37.5119C117.718 36.9687 118.02 36.3652 118.201 35.7014C118.442 35.0375 118.502 34.3133 118.502 33.5288C118.382 33.4684 118.261 33.2874 118.14 33.1063C118.02 32.8649 117.959 32.6839 117.839 32.4425C117.778 32.2614 117.657 32.1407 117.597 32.1407C117.416 32.1407 117.175 32.2614 116.933 32.5632C116.692 32.8649 116.511 33.1667 116.269 33.5891C116.028 34.0116 115.847 34.434 115.666 34.9168C115.485 35.3996 115.304 35.8221 115.183 36.2445C115.062 36.667 114.942 36.9687 114.942 37.2101C114.942 37.3912 114.881 37.5722 114.881 37.6929C114.881 37.8136 114.881 37.9947 114.881 38.1154C114.942 38.7793 115.183 39.1414 115.545 39.1414ZM119.468 39.5035C119.408 39.5035 119.347 39.4431 119.287 39.3828C119.287 39.0207 119.347 38.6586 119.408 38.3568C119.528 38.055 119.649 37.874 119.77 37.8136C119.951 37.0894 120.132 36.4859 120.192 36.0635C120.313 35.641 120.373 35.3393 120.434 35.1582C120.494 34.9772 120.494 34.7961 120.554 34.6754C120.554 34.5547 120.615 34.434 120.675 34.253C120.675 34.1926 120.735 34.1323 120.735 34.0719C120.735 34.0116 120.735 33.9512 120.735 33.9512C120.735 33.8305 120.735 33.7702 120.675 33.7702C120.675 33.7702 120.615 33.7098 120.615 33.5891C120.615 33.5891 120.615 33.5288 120.615 33.4684C120.615 33.4081 120.615 33.4081 120.675 33.3477C120.916 32.4425 121.158 31.839 121.339 31.5372C121.58 31.1751 121.942 31.0544 122.365 31.0544C122.546 31.0544 122.667 31.1147 122.667 31.2354C122.606 31.4165 122.425 31.839 122.184 32.3821C121.942 32.9253 121.701 33.5891 121.46 34.3133C121.218 35.0375 120.977 35.7617 120.796 36.5463C120.916 36.3049 121.097 36.0031 121.339 35.5807C121.58 35.1582 121.882 34.6754 122.244 34.1926C122.606 33.7098 122.968 33.227 123.33 32.7442C123.693 32.3218 124.115 31.8993 124.477 31.5975C124.839 31.2958 125.201 31.1751 125.503 31.1751C125.684 31.1751 125.805 31.2354 125.865 31.3561C125.925 31.4768 125.986 31.6579 125.986 31.839C125.986 32.02 125.925 32.2614 125.865 32.5028C125.805 32.7442 125.684 32.9856 125.503 33.227C125.382 33.3477 125.262 33.5288 125.081 33.6495C124.9 33.8305 124.718 33.8909 124.598 33.8909C124.537 33.8909 124.477 33.8305 124.477 33.7702C124.477 33.7098 124.537 33.5891 124.598 33.4081C124.658 33.227 124.718 33.046 124.779 32.8649C124.839 32.6839 124.9 32.5632 124.9 32.4425C124.9 32.3218 124.839 32.3218 124.779 32.3218C124.537 32.3218 124.175 32.5632 123.813 32.9856C123.391 33.4081 123.029 33.9512 122.546 34.6754C122.123 35.3996 121.701 36.1238 121.279 36.9084C120.916 37.6929 120.554 38.4775 120.373 39.2017C120.313 39.3224 120.132 39.4431 119.951 39.5638C119.77 39.4431 119.589 39.5035 119.468 39.5035ZM125.081 39.8052C124.96 39.8052 124.96 39.7449 124.96 39.6242C124.96 39.5638 125.02 39.4431 125.081 39.2017C125.744 37.5119 126.348 35.8221 126.891 34.1323C127.434 32.4425 127.977 30.6923 128.521 29.0025C128.581 28.8214 128.581 28.7007 128.581 28.6404C128.581 28.58 128.581 28.5197 128.521 28.5197C128.521 28.5197 128.46 28.4593 128.46 28.399C128.46 28.3386 128.46 28.2783 128.521 28.0972C128.762 27.4937 128.943 27.0713 129.064 26.7092C129.245 26.4074 129.426 26.166 129.607 26.0453C129.788 25.9246 130.09 25.8643 130.391 25.8643C130.572 25.8643 130.693 25.9246 130.693 26.0453C130.15 27.1316 129.667 28.1576 129.245 29.1232C128.822 30.0888 128.46 31.0544 128.098 32.02C127.736 32.9856 127.434 34.0719 127.133 35.2789C127.133 35.2789 127.253 35.1582 127.555 34.9168C127.857 34.6754 128.158 34.3737 128.581 34.0116C129.003 33.6495 129.365 33.2874 129.788 32.9253C130.21 32.5632 130.572 32.2614 130.874 31.9597C131.176 31.6579 131.357 31.5372 131.417 31.4768C131.598 31.2958 131.779 31.2354 131.961 31.1147C132.142 31.0544 132.262 30.994 132.323 30.994C132.383 30.994 132.443 30.994 132.443 31.0544C132.443 31.2354 132.262 31.4165 131.84 31.7183C131.357 32.02 130.874 32.3218 130.452 32.7442C130.029 33.1063 129.607 33.5288 129.245 33.8909C128.883 34.253 128.641 34.6151 128.4 34.9168C128.219 35.2186 128.098 35.3996 128.098 35.5203C128.098 35.8221 128.158 36.1238 128.279 36.4859C128.4 36.848 128.581 37.2101 128.762 37.5119C128.943 37.874 129.184 38.1757 129.365 38.4775C129.547 38.7793 129.728 38.9603 129.909 39.081C130.21 39.3224 130.331 39.5035 130.331 39.6242C130.331 39.6845 130.271 39.7449 130.15 39.7449C129.909 39.7449 129.667 39.6242 129.365 39.3828C129.064 39.1414 128.822 38.8396 128.581 38.4775C128.34 38.1154 128.098 37.7533 127.857 37.3308C127.615 36.9687 127.434 36.6066 127.253 36.3049C127.072 36.0031 126.951 35.8221 126.891 35.7014C126.831 35.8221 126.77 36.0031 126.65 36.3652C126.529 36.667 126.469 37.0291 126.348 37.3912C126.227 37.7533 126.107 38.055 126.046 38.3568C125.986 38.6586 125.925 38.8396 125.925 38.9603C125.925 39.0207 125.865 39.1414 125.744 39.2621C125.624 39.3828 125.443 39.5035 125.322 39.6242C125.322 39.7449 125.201 39.8052 125.081 39.8052ZM131.417 39.7449C131.297 39.7449 131.236 39.6845 131.116 39.6242C131.055 39.5035 130.995 39.4431 130.995 39.3224C130.995 39.1414 131.055 39.081 131.236 39.081C131.417 39.081 131.659 39.0207 132.021 38.9603C132.383 38.9 132.745 38.7793 133.107 38.6586C133.469 38.5379 133.831 38.4171 134.073 38.2361C134.375 38.055 134.495 37.874 134.495 37.6929C134.495 37.5119 134.375 37.3308 134.194 37.1498C134.012 36.9687 133.711 36.7877 133.409 36.5463C133.107 36.3652 132.805 36.1238 132.504 35.9428C132.202 35.7014 131.961 35.5203 131.719 35.2789C131.538 35.0375 131.417 34.7961 131.417 34.4944C131.417 34.3737 131.417 34.253 131.478 34.1323C131.538 34.0116 131.598 33.8909 131.659 33.7702C132.081 33.227 132.564 32.8046 133.047 32.4425C133.53 32.0804 134.012 31.8389 134.495 31.6579C134.918 31.4768 135.28 31.3561 135.521 31.2354C135.582 31.2354 135.702 31.1751 135.763 31.1751C135.883 31.1751 135.944 31.1147 136.064 31.1147C136.245 31.1147 136.426 31.1751 136.608 31.2958C136.789 31.4165 136.849 31.6579 136.849 31.9597C136.849 32.0804 136.789 32.2614 136.668 32.5028C136.547 32.7442 136.426 32.9253 136.306 33.1667C136.185 33.4081 136.004 33.5891 135.883 33.7098C135.763 33.8305 135.642 33.9512 135.521 33.9512C135.461 33.9512 135.461 33.8909 135.461 33.8305C135.461 33.7098 135.521 33.5288 135.582 33.3477C135.642 33.1667 135.763 32.9253 135.823 32.7442C135.883 32.5632 135.944 32.3821 135.944 32.2614C135.944 32.02 135.823 31.9597 135.582 31.9597C135.461 31.9597 135.34 31.9597 135.219 32.02C135.099 32.02 134.978 32.0804 134.857 32.0804C134.797 32.0804 134.616 32.1407 134.375 32.2614C134.133 32.3821 133.892 32.5028 133.59 32.6839C133.288 32.8649 133.107 33.046 132.866 33.2874C132.685 33.5288 132.564 33.7702 132.564 34.0116C132.564 34.1926 132.624 34.3133 132.685 34.434C132.866 34.7961 133.107 35.0375 133.409 35.2186C133.711 35.3996 134.012 35.5807 134.314 35.7617C134.616 35.8824 134.857 36.0635 135.099 36.2445C135.28 36.4256 135.401 36.667 135.401 37.0291C135.401 37.3912 135.28 37.6929 134.978 38.055C134.676 38.3568 134.314 38.6585 133.892 38.9C133.469 39.1414 133.047 39.3224 132.564 39.5035C132.081 39.6845 131.719 39.7449 131.417 39.7449Z" fill="white"/>
<path d="M95.0261 21.64C93.5777 21.64 92.4914 21.2175 91.6465 20.433C90.8619 19.6484 90.4395 18.5017 90.4395 17.0533H93.0949C93.0949 17.7172 93.2759 18.2603 93.638 18.6828C94.0001 19.0449 94.4829 19.2863 95.0864 19.2863H97.259C97.8625 19.2863 98.285 19.1656 98.6471 18.9242C99.0092 18.6828 99.1903 18.381 99.1903 17.9586V17.2947C99.1903 16.6309 98.7075 16.2688 97.8022 16.0877L94.1812 15.4842C92.9742 15.3032 92.1293 14.9411 91.5258 14.3376C90.9222 13.7944 90.6205 13.0702 90.6205 12.2253V11.139C90.6205 10.4751 90.8016 9.81129 91.1637 9.32848C91.5258 8.78533 92.0689 8.36288 92.7328 8.12147C93.3966 7.81972 94.2415 7.69902 95.1468 7.69902H97.3798C98.2247 7.69902 99.0092 7.88007 99.6127 8.24218C100.277 8.60428 100.759 9.08708 101.121 9.75094C101.484 10.4148 101.665 11.139 101.665 11.9839H99.0092C99.0092 11.4407 98.8885 11.0183 98.5868 10.6562C98.285 10.2941 97.8626 10.1734 97.3798 10.1734H95.1468C94.6036 10.1734 94.1812 10.2941 93.8191 10.5355C93.457 10.7769 93.3363 11.0786 93.3363 11.5011V12.0443C93.3363 12.7081 93.7587 13.1306 94.664 13.2513L98.285 13.8548C99.492 14.0358 100.397 14.4583 101.001 14.9411C101.604 15.4842 101.966 16.1481 101.966 16.993V18.2603C101.966 18.9242 101.785 19.5881 101.363 20.1312C101.001 20.6744 100.458 21.0968 99.7334 21.3986C99.0696 21.7003 98.2247 21.821 97.3194 21.821H95.0261V21.64ZM107.519 21.64C106.674 21.64 105.95 21.4589 105.346 21.1572C104.682 20.8554 104.199 20.433 103.837 19.8898C103.475 19.3467 103.294 18.6828 103.294 17.9586V15.4239C103.294 14.6393 103.475 13.9755 103.837 13.372C104.199 12.7685 104.682 12.346 105.346 11.9839C106.01 11.6821 106.734 11.5011 107.519 11.5011H109.088C110.355 11.5011 111.381 11.8632 112.105 12.5874C112.89 13.3116 113.252 14.2169 113.252 15.4239V17.4758H106.01V17.9586C106.01 18.381 106.131 18.7431 106.432 18.9846C106.734 19.226 107.096 19.407 107.579 19.407H109.088C109.571 19.407 109.933 19.2863 110.174 19.1053C110.476 18.9242 110.596 18.6224 110.596 18.3207H113.252C113.252 18.9846 113.071 19.5277 112.709 20.0709C112.347 20.5537 111.864 20.9761 111.2 21.2779C110.536 21.5796 109.812 21.7003 109.027 21.7003H107.519V21.64ZM110.596 15.6049V15.4239C110.596 14.9411 110.476 14.5186 110.174 14.2169C109.872 13.9151 109.51 13.7341 109.088 13.7341H107.519C107.036 13.7341 106.674 13.9151 106.372 14.2169C106.07 14.5186 105.95 15.0014 105.95 15.4842V15.5446H110.596V15.6049ZM115.062 11.6821H117.537V12.9495C117.778 12.5874 118.14 12.2857 118.623 12.0443C119.106 11.8029 119.589 11.6821 120.072 11.6821H121.399V13.9755H120.072C119.408 13.9755 118.804 14.1565 118.382 14.579C117.959 15.0014 117.718 15.5446 117.718 16.2084V21.4589H115.062V11.6821ZM126.77 21.5193C126.408 21.5193 126.046 21.3986 125.805 21.2175C125.563 21.0365 125.322 20.6744 125.141 20.2519L121.761 11.7425H124.537L126.831 18.5017H126.891L129.245 11.7425H132.021L128.098 21.5193H126.77ZM136.728 21.64C135.883 21.64 135.159 21.4589 134.556 21.1572C133.892 20.8554 133.409 20.433 133.047 19.8898C132.685 19.3467 132.504 18.6828 132.504 17.9586V15.4239C132.504 14.6393 132.685 13.9755 133.047 13.372C133.409 12.7685 133.892 12.346 134.556 11.9839C135.219 11.6821 135.944 11.5011 136.728 11.5011H138.297C139.565 11.5011 140.591 11.8632 141.315 12.5874C142.099 13.3116 142.462 14.2169 142.462 15.4239V17.4758H135.219V17.9586C135.219 18.381 135.34 18.7431 135.642 18.9846C135.944 19.226 136.306 19.407 136.789 19.407H138.297C138.78 19.407 139.142 19.2863 139.384 19.1053C139.685 18.9242 139.806 18.6224 139.806 18.3207H142.462C142.462 18.9846 142.28 19.5277 141.918 20.0709C141.556 20.5537 141.073 20.9761 140.41 21.2779C139.746 21.5796 139.022 21.7003 138.237 21.7003H136.728V21.64ZM139.866 15.6049V15.4239C139.866 14.9411 139.746 14.5186 139.444 14.2169C139.142 13.9151 138.78 13.7341 138.358 13.7341H136.789C136.306 13.7341 135.944 13.9151 135.642 14.2169C135.34 14.5186 135.219 15.0014 135.219 15.4842V15.5446H139.866V15.6049ZM144.272 11.6821H146.746V12.9495C146.988 12.5874 147.35 12.2857 147.833 12.0443C148.316 11.8029 148.798 11.6821 149.281 11.6821H150.609V13.9755H149.281C148.617 13.9755 148.014 14.1565 147.591 14.579C147.169 15.0014 146.927 15.5446 146.927 16.2084V21.4589H144.272V11.6821ZM160.868 10.113H156.523V7.75937H167.929V10.113H163.584V21.5193H160.868V10.113ZM170.887 21.64C170.042 21.64 169.317 21.4589 168.714 21.1572C168.11 20.8554 167.567 20.433 167.205 19.8898C166.843 19.3467 166.662 18.6828 166.662 17.9586V15.4239C166.662 14.6393 166.843 13.9755 167.205 13.372C167.567 12.7685 168.05 12.346 168.714 11.9839C169.378 11.6218 170.102 11.5011 170.887 11.5011H172.456C173.723 11.5011 174.749 11.8632 175.473 12.5874C176.258 13.3116 176.62 14.2169 176.62 15.4239V17.4758H169.378V17.9586C169.378 18.381 169.499 18.7431 169.8 18.9846C170.102 19.226 170.464 19.407 170.947 19.407H172.456C172.938 19.407 173.301 19.2863 173.542 19.1053C173.844 18.9242 173.964 18.6224 173.964 18.3207H176.62C176.62 18.9846 176.439 19.5277 176.077 20.0709C175.715 20.5537 175.232 20.9761 174.568 21.2779C173.904 21.5796 173.18 21.7003 172.395 21.7003H170.887V21.64ZM173.964 15.6049V15.4239C173.964 14.9411 173.844 14.5186 173.542 14.2169C173.24 13.9151 172.878 13.7341 172.456 13.7341H170.887C170.404 13.7341 170.042 13.9151 169.74 14.2169C169.438 14.5186 169.317 15.0014 169.317 15.4842V15.5446H173.964V15.6049ZM182.172 21.64C181.327 21.64 180.603 21.4589 179.999 21.1572C179.336 20.8554 178.853 20.3726 178.551 19.7691C178.189 19.1656 178.008 18.5017 178.008 17.7172V15.4239C178.008 14.6393 178.189 13.9755 178.551 13.372C178.913 12.7685 179.396 12.346 179.999 11.9839C180.603 11.6821 181.327 11.5011 182.172 11.5011H183.741C184.526 11.5011 185.19 11.6821 185.793 11.9839C186.397 12.2857 186.879 12.7685 187.181 13.3116C187.483 13.8548 187.664 14.5186 187.664 15.3032H185.009C185.009 14.8807 184.888 14.5186 184.646 14.2169C184.405 13.9755 184.103 13.7944 183.681 13.7944H182.172C181.689 13.7944 181.327 13.9755 181.086 14.2772C180.784 14.6393 180.663 15.0618 180.663 15.6049V17.5361C180.663 18.0793 180.784 18.5017 181.086 18.8639C181.388 19.226 181.75 19.3467 182.232 19.3467H183.741C184.164 19.3467 184.526 19.226 184.767 18.9242C185.009 18.6224 185.129 18.2 185.129 17.7172H187.785C187.785 18.9242 187.423 19.8898 186.698 20.5537C185.974 21.2779 185.009 21.64 183.741 21.64H182.172ZM189.414 7.75937H192.07V12.7081C192.371 12.346 192.733 12.1046 193.156 11.8632C193.578 11.6822 194.001 11.5615 194.363 11.5615H195.57C196.596 11.5615 197.441 11.8632 198.105 12.5271C198.768 13.1909 199.07 14.0358 199.07 15.1221V21.5193H196.415V15.1825C196.415 14.76 196.294 14.4583 196.113 14.2169C195.872 13.9755 195.63 13.8548 195.268 13.8548H194.061C193.578 13.8548 193.216 14.0358 192.854 14.3376C192.492 14.6997 192.251 15.1221 192.13 15.6653V21.5193H189.475V7.75937H189.414ZM201.182 11.6821H203.657V12.8892C203.959 12.4667 204.321 12.165 204.804 11.9236C205.286 11.6822 205.709 11.5615 206.192 11.5615H207.399C208.425 11.5615 209.269 11.8632 209.933 12.5271C210.597 13.1909 210.899 14.0358 210.899 15.1221V21.5193H208.243V15.1825C208.243 14.76 208.123 14.4583 207.942 14.2169C207.7 13.9755 207.459 13.8548 207.097 13.8548H205.89C205.407 13.8548 205.045 14.0358 204.683 14.3376C204.321 14.6997 204.079 15.1221 203.959 15.6653V21.5193H201.303V11.6821H201.182ZM216.753 21.64C215.908 21.64 215.184 21.4589 214.58 21.1572C213.916 20.8554 213.434 20.3726 213.132 19.7691C212.77 19.1656 212.589 18.5017 212.589 17.7172V15.4239C212.589 14.6393 212.77 13.9755 213.132 13.372C213.494 12.7685 213.977 12.2857 214.641 11.9839C215.304 11.6821 216.029 11.5011 216.813 11.5011H218.563C219.408 11.5011 220.133 11.6821 220.736 11.9839C221.4 12.2857 221.883 12.7685 222.245 13.372C222.607 13.9755 222.788 14.6393 222.788 15.4239V17.7172C222.788 18.5017 222.607 19.1656 222.245 19.7691C221.883 20.3726 221.4 20.7951 220.736 21.1572C220.072 21.4589 219.348 21.64 218.503 21.64H216.753ZM218.503 19.3467C218.986 19.3467 219.348 19.1656 219.65 18.8639C219.951 18.5017 220.072 18.0793 220.072 17.5361V15.6049C220.072 15.0618 219.951 14.6393 219.65 14.2772C219.348 13.9151 218.986 13.7944 218.503 13.7944H216.813C216.33 13.7944 215.968 13.9755 215.667 14.2772C215.365 14.6393 215.244 15.0618 215.244 15.6049V17.5361C215.244 18.0793 215.365 18.5017 215.667 18.8639C215.968 19.226 216.33 19.3467 216.813 19.3467H218.503ZM228.038 21.5193C226.892 21.5193 226.047 21.2779 225.504 20.7951C224.961 20.3123 224.719 19.5277 224.719 18.5017V7.75937H227.375V18.3207C227.375 18.6224 227.435 18.8639 227.616 18.9846C227.737 19.1053 227.978 19.226 228.28 19.226H229.366V21.5193H228.038ZM234.255 21.64C233.41 21.64 232.685 21.4589 232.082 21.1572C231.418 20.8554 230.935 20.3726 230.633 19.7691C230.271 19.1656 230.09 18.5017 230.09 17.7172V15.4239C230.09 14.6393 230.271 13.9755 230.633 13.372C230.996 12.7685 231.478 12.2857 232.142 11.9839C232.806 11.6821 233.53 11.5011 234.315 11.5011H236.065C236.91 11.5011 237.634 11.6821 238.238 11.9839C238.902 12.2857 239.384 12.7685 239.746 13.372C240.109 13.9755 240.29 14.6393 240.29 15.4239V17.7172C240.29 18.5017 240.109 19.1656 239.746 19.7691C239.384 20.3726 238.902 20.7951 238.238 21.1572C237.574 21.4589 236.85 21.64 236.005 21.64H234.255ZM235.944 19.3467C236.427 19.3467 236.789 19.1656 237.091 18.8639C237.393 18.5017 237.513 18.0793 237.513 17.5361V15.6049C237.513 15.0618 237.393 14.6393 237.091 14.2772C236.789 13.9151 236.427 13.7944 235.944 13.7944H234.315C233.832 13.7944 233.47 13.9755 233.168 14.2772C232.866 14.6393 232.746 15.0618 232.746 15.6049V17.5361C232.746 18.0793 232.866 18.5017 233.168 18.8639C233.47 19.226 233.832 19.3467 234.315 19.3467H235.944ZM245.902 25.5024C244.876 25.5024 243.971 25.2006 243.307 24.5971C242.643 23.9936 242.221 23.2091 242.16 22.2435H244.816C244.816 22.5452 244.937 22.7866 245.178 22.9677C245.359 23.1487 245.661 23.2091 245.962 23.2091H247.713C248.135 23.2091 248.437 23.028 248.678 22.7263C248.92 22.3642 249.04 21.9417 249.04 21.3986V20.4933C248.799 20.7951 248.437 21.0365 248.075 21.1572C247.713 21.3382 247.351 21.3986 246.988 21.3986H245.661C244.454 21.3986 243.488 21.0365 242.764 20.3123C242.04 19.5881 241.678 18.6828 241.678 17.5361V15.5446C241.678 14.76 241.859 14.0358 242.16 13.4323C242.523 12.8288 243.005 12.346 243.609 12.0443C244.212 11.6822 244.937 11.5615 245.721 11.5615H246.868C247.29 11.5615 247.773 11.6822 248.195 11.8632C248.618 12.0443 248.98 12.346 249.221 12.7081V11.7425H251.696V21.4589C251.696 22.2435 251.515 22.9677 251.213 23.5712C250.851 24.1747 250.428 24.6575 249.765 25.0196C249.161 25.3817 248.437 25.5024 247.652 25.5024H245.902ZM247.23 19.1656C247.713 19.1656 248.135 18.9846 248.497 18.5621C248.859 18.1396 249.04 17.5965 249.101 16.9326V15.6049C249.04 15.0618 248.859 14.6393 248.558 14.3376C248.256 14.0358 247.894 13.8548 247.411 13.8548H246.023C245.54 13.8548 245.118 14.0358 244.816 14.3979C244.514 14.76 244.393 15.2428 244.393 15.786V17.4154C244.393 17.9586 244.514 18.381 244.816 18.6828C245.118 18.9846 245.419 19.1656 245.902 19.1656H247.23ZM255.679 10.7769C255.196 10.7769 254.774 10.6562 254.472 10.3544C254.17 10.0527 253.989 9.69059 253.989 9.20778C253.989 8.72498 254.17 8.36288 254.472 8.06112C254.774 7.75937 255.196 7.63867 255.679 7.63867C256.162 7.63867 256.584 7.75937 256.886 8.06112C257.188 8.36288 257.369 8.72498 257.369 9.20778C257.369 9.69059 257.188 10.0527 256.886 10.3544C256.584 10.6562 256.222 10.7769 255.679 10.7769ZM254.351 11.6821H257.007V21.4589H254.351V11.6821ZM263.464 21.64C262.619 21.64 261.895 21.4589 261.292 21.1572C260.628 20.8554 260.145 20.433 259.783 19.8898C259.421 19.3467 259.24 18.6828 259.24 17.9586V15.4239C259.24 14.6393 259.421 13.9755 259.783 13.372C260.145 12.7685 260.628 12.346 261.292 11.9839C261.955 11.6821 262.68 11.5011 263.464 11.5011H265.033C266.301 11.5011 267.327 11.8632 268.051 12.5874C268.835 13.3116 269.197 14.2169 269.197 15.4239V17.4758H261.955V17.9586C261.955 18.381 262.076 18.7431 262.378 18.9846C262.68 19.226 263.042 19.407 263.524 19.407H265.033C265.516 19.407 265.878 19.2863 266.12 19.1053C266.421 18.9242 266.542 18.6224 266.542 18.3207H269.197C269.197 18.9846 269.016 19.5277 268.654 20.0709C268.292 20.5537 267.809 20.9761 267.146 21.2779C266.482 21.5796 265.757 21.7003 264.973 21.7003H263.464V21.64ZM266.542 15.6049V15.4239C266.542 14.9411 266.421 14.5186 266.12 14.2169C265.818 13.9151 265.456 13.7341 265.033 13.7341H263.464C262.981 13.7341 262.619 13.9151 262.317 14.2169C262.016 14.5186 261.895 15.0014 261.895 15.4842V15.5446H266.542V15.6049ZM274.448 21.64C273.241 21.64 272.275 21.3382 271.611 20.6744C270.887 20.0709 270.525 19.226 270.525 18.2H273.181C273.181 18.5621 273.301 18.8639 273.543 19.0449C273.784 19.2863 274.086 19.3467 274.508 19.3467H276.258C277.043 19.3467 277.465 19.1053 277.465 18.6828V18.3207C277.465 18.2 277.405 18.0793 277.284 17.9586C277.164 17.8379 276.983 17.7775 276.741 17.7172L273.362 17.1137C272.577 16.993 271.913 16.6912 271.491 16.2688C271.008 15.8463 270.767 15.3032 270.767 14.6997V14.0358C270.767 13.1909 271.129 12.5271 271.792 12.0443C272.456 11.5614 273.422 11.32 274.689 11.32H276.198C277.284 11.32 278.19 11.6218 278.853 12.165C279.517 12.7685 279.879 13.4927 279.879 14.4583H277.164C277.164 14.1565 277.043 13.9151 276.862 13.7944C276.681 13.6134 276.439 13.553 276.077 13.553H274.569C273.724 13.553 273.301 13.7341 273.301 14.1565V14.4583C273.301 14.579 273.362 14.6997 273.482 14.8204C273.603 14.9411 273.724 15.0014 273.965 15.0014L277.526 15.6653C278.25 15.786 278.854 16.0877 279.336 16.5102C279.819 16.9326 280 17.4154 280 17.9586V18.8639C280 19.7088 279.638 20.3726 278.974 20.8554C278.25 21.3382 277.345 21.5796 276.198 21.5796H274.448V21.64Z" fill="white"/>
</svg>
