<svg width="22" height="22" viewBox="0 0 22 22" fill="none" xmlns="http://www.w3.org/2000/svg">
<path d="M3.20703 18.3332C2.84036 18.3332 2.51953 18.1957 2.24453 17.9207C1.96953 17.6457 1.83203 17.3248 1.83203 16.9582V5.0415C1.83203 4.67484 1.96953 4.354 2.24453 4.079C2.51953 3.804 2.84036 3.6665 3.20703 3.6665H18.7904C19.157 3.6665 19.4779 3.804 19.7529 4.079C20.0279 4.354 20.1654 4.67484 20.1654 5.0415V16.9582C20.1654 17.3248 20.0279 17.6457 19.7529 17.9207C19.4779 18.1957 19.157 18.3332 18.7904 18.3332H3.20703ZM10.9987 11.4123L18.7904 6.30192V5.0415L10.9987 10.0373L3.20703 5.0415V6.30192L10.9987 11.4123Z" fill="white"/>
</svg>
