<svg width="22" height="23" viewBox="0 0 22 23" fill="none" xmlns="http://www.w3.org/2000/svg">
<path d="M15.5648 13.9565C15.267 13.782 14.9011 13.7856 14.6048 13.9616L13.1044 14.8556C12.7686 15.0558 12.3491 15.0323 12.0411 14.7918C11.5087 14.376 10.6514 13.6764 9.90564 12.9306C9.15984 12.1848 8.46024 11.3275 8.04444 10.7951C7.80391 10.4871 7.78044 10.0676 7.98064 9.73176L8.87458 8.23136C9.05131 7.93509 9.05278 7.56622 8.87824 7.26849L6.67678 3.50796C6.46338 3.14422 6.03951 2.96529 5.62958 3.06576C5.23138 3.16256 4.71438 3.39869 4.17244 3.94136C2.47551 5.63829 1.57424 8.50049 7.95571 14.882C14.3372 21.2634 17.1986 20.3629 18.8963 18.6652C19.4397 18.1218 19.6751 17.6041 19.7726 17.2052C19.8716 16.796 19.6956 16.375 19.3326 16.1624C18.4262 15.6322 16.4712 14.4874 15.5648 13.9565Z" fill="white"/>
</svg>
