<!-- icon666.com - MILLIONS vector ICONS FREE --><svg version="1.1" id="Layer_1" xmlns="http://www.w3.org/2000/svg" xmlns:xlink="http://www.w3.org/1999/xlink" x="0px" y="0px" viewBox="0 0 512 512" style="enable-background:new 0 0 512 512;" xml:space="preserve"><g><g><path fill="#f05a28" d="M490.069,47.225L319.268,0.369l-0.003,0.012c-1.758-0.484-3.662-0.527-5.548-0.012l-170.8,46.856 c-4.557,1.25-7.717,5.393-7.717,10.12v175.336c0,0.43,0.031,9.754,1.973,24.683L88.216,309.05h-43.66 c-5.25,0-9.691,3.879-10.397,9.081l-19.85,146.156c-0.408,3.001,0.503,6.032,2.495,8.314c1.992,2.282,4.873,3.591,7.902,3.591 h53.949c14.698,3.959,26.577,10.867,38.075,17.555C132.158,502.72,148.113,512,168.67,512h75.785 c18.049,0,30.656-14.197,30.656-34.523c0-4.634-0.662-8.946-1.888-12.847c12.786,6.792,26.618,12.939,39.767,17.594 c1.158,0.41,2.34,0.605,3.502,0.605c1.204,0,2.381-0.229,3.494-0.624l0.007,0.02c40.535-14.35,75.139-36.427,102.853-65.619 c22.153-23.336,39.922-51.196,52.813-82.808c21.875-53.643,22.127-99.203,22.127-101.116V57.345 C497.786,52.618,494.626,48.476,490.069,47.225z M278.665,394.888h-38.074h-0.195c-5.796,0-10.493,4.697-10.493,10.493 c0,5.796,4.697,10.493,10.493,10.493h0.195h20.97c8.413,0,9.669,8.482,9.669,13.538c0,5.056-1.256,13.537-9.669,13.537h-38.269 c-5.796,0-10.493,4.697-10.493,10.493s4.697,10.493,10.493,10.493h21.163c8.414,0,9.67,8.482,9.67,13.538 s-1.256,13.541-9.67,13.541H168.67c-14.898,0-27.174-7.14-41.39-15.408c-12.455-7.244-26.57-15.454-44.68-20.074 c-0.848-0.217-1.72-0.325-2.594-0.325H36.719l17.001-125.17h39.01c2.882,0,5.637-1.186,7.618-3.277l75.94-80.174 c1.15-1.215,1.993-2.686,2.459-4.292l14.814-51.04c1.239-1.542,2.757-2.473,4.701-2.891c4.102-0.886,9.882,0.605,14.727,3.801 c12.014,7.921,24.201,23.547,14.534,53.113l-34.387,58.679c-2.931,5-1.252,11.429,3.747,14.358c1.671,0.979,3.5,1.433,5.306,1.432 v0.008h94.142c8.413,0,9.669,8.482,9.669,13.538s-1.256,13.537-9.669,13.537h-37.149c-5.796,0-10.493,4.697-10.493,10.493 c0,5.796,4.697,10.493,10.493,10.493h19.483c8.413,0,9.669,8.482,9.669,13.538C288.334,386.407,287.078,394.888,278.665,394.888z M306.592,366.114c12.384-4.331,20.394-16.627,20.394-32.824c0-20.328-12.607-34.524-30.655-34.524h-75.831l25.683-43.827 c0.359-0.612,0.655-1.258,0.883-1.928c11.208-32.979,2.997-61.544-22.524-78.37c-3.522-2.322-7.296-4.128-11.139-5.39v-52.718 l103.09-28.281l103.091,28.281V240.71c0,0.277-0.154,28.109-13.422,60.646c-17.193,42.162-47.357,71.597-89.68,87.551 c-2.584-0.968-5.018-1.945-7.393-2.965c0.147-1.492,0.231-3.02,0.231-4.588C309.32,375.75,308.358,370.616,306.592,366.114z M476.8,232.681c0,0.427-0.235,43.317-20.573,93.191c-26.681,65.432-73.692,110.919-139.729,135.281 c-9.454-3.519-19.407-7.906-28.8-12.656c2.897-5.333,4.518-11.813,4.518-19.083c0-5.674-0.984-10.868-2.792-15.412 c4.717-1.748,8.777-4.668,11.978-8.526c3.65,1.555,7.427,3.021,11.591,4.495c1.158,0.41,2.339,0.605,3.501,0.605 c1.204,0,2.381-0.229,3.494-0.624l0.007,0.02c62.342-22.068,91.837-66.937,105.601-100.691 c14.804-36.304,14.975-67.269,14.975-68.569V108.53c0-4.726-3.16-8.868-7.717-10.12L319.271,67.25l-0.003,0.012 c-1.758-0.485-3.662-0.528-5.548-0.012L200.134,98.412c-4.557,1.251-7.717,5.393-7.717,10.12v59.657 c-7.244,1.925-13.213,6.358-17.33,12.89c-0.522,0.829-0.927,1.727-1.2,2.669L159.302,234l-2.959,3.125 c-0.146-2.827-0.157-4.409-0.157-4.444V65.346l160.307-43.977L476.8,65.346V232.681z"></path></g></g></svg>