<svg width="22" height="22" viewBox="0 0 22 22" fill="none" xmlns="http://www.w3.org/2000/svg">
<path d="M14.3674 15.4231L15.3987 14.3918L11.7549 10.7252V6.11891H10.3799V11.2752L14.3674 15.4231ZM10.9987 20.1668C9.74592 20.1668 8.56189 19.9262 7.44661 19.445C6.33134 18.9637 5.35738 18.3068 4.52474 17.4741C3.6921 16.6415 3.03516 15.6675 2.55391 14.5522C2.07266 13.437 1.83203 12.2529 1.83203 11.0002C1.83203 9.74739 2.07266 8.56336 2.55391 7.44808C3.03516 6.3328 3.6921 5.35884 4.52474 4.5262C5.35738 3.69357 6.33134 3.03662 7.44661 2.55537C8.56189 2.07412 9.74592 1.8335 10.9987 1.8335C12.2515 1.8335 13.4355 2.07412 14.5508 2.55537C15.6661 3.03662 16.64 3.69357 17.4727 4.5262C18.3053 5.35884 18.9622 6.3328 19.4435 7.44808C19.9247 8.56336 20.1654 9.74739 20.1654 11.0002C20.1654 12.2529 19.9247 13.437 19.4435 14.5522C18.9622 15.6675 18.3053 16.6415 17.4727 17.4741C16.64 18.3068 15.6661 18.9637 14.5508 19.445C13.4355 19.9262 12.2515 20.1668 10.9987 20.1668Z" fill="white"/>
</svg>
