<!-- icon666.com - MILLIONS vector ICONS FREE --><svg id="Layer_1" enable-background="new 0 0 468 468" viewBox="0 0 468 468" xmlns="http://www.w3.org/2000/svg"><g><g><path  fill="#f05a28"  d="m134.857 328.097c-4.01.001-7.991-1.713-10.76-5.034-22.098-26.501-39.312-57.315-51.162-91.586-14.232-41.159-20.824-87.694-19.591-138.313.169-6.948 5.38-12.612 12.083-13.529 34.905-5.528 60.111-32.497 59.971-64.207-.035-8.124 5.287-15.428 13.994-15.428h189.283c8.706 0 14.029 7.306 13.994 15.431-.138 31.78 25.184 58.797 60.207 64.239 6.721 1.044 11.719 6.768 11.848 13.567.901 47.344-6.024 91.781-20.585 132.078-12.049 33.346-29.386 64.089-51.53 91.377-4.872 6.005-13.69 6.921-19.692 2.05-6.004-4.872-6.922-13.689-2.05-19.692 43.15-53.174 65.303-118.471 65.924-194.228-35.977-9.819-65.793-39.216-71.235-76.822h-163.025c-5.174 36.426-33.051 66.543-71.335 76.862-.075 81.561 21.569 148.896 64.406 200.269 7.434 8.915.923 22.966-10.745 22.966-4.01.001 3.161 0 0 0z"></path></g><g><g><path  fill="#f05a28"  d="m234 300.394c-55.758 0-101.12-44.968-101.12-100.24s45.362-100.241 101.12-100.241 101.12 44.968 101.12 100.24-45.362 100.241-101.12 100.241zm0-172.481c-40.318 0-73.12 32.407-73.12 72.24s32.802 72.24 73.12 72.24 73.12-32.407 73.12-72.24-32.802-72.24-73.12-72.24z"></path></g><g><path  fill="#f05a28"  d="m211.337 235.461-22.344-26.331c-5.002-5.896-4.279-14.73 1.617-19.733 5.894-5.003 14.73-4.28 19.733 1.616l12.297 14.491 37.751-39.428c5.349-5.584 14.21-5.776 19.795-.43 5.584 5.348 5.776 14.21.43 19.795l-48.492 50.644c-5.124 5.248-16.124 5.248-20.787-.624z"></path></g></g><path  fill="#f05a28"  d="m454 332h-85.936c-7.658 0-14.002 6.49-14 14.114l.001 7.886h-240.105l-.024-7.949c-.024-7.716-6.285-14.051-14-14.051h-85.936c-7.732 0-14 6.339-14 14.071v82.563c0 7.733 6.268 14.366 14 14.366h72v11c0 7.732 6.459 14 14.191 14h267.885c7.732 0 13.924-6.268 13.924-14v-11h72c7.732 0 14-6.633 14-14.365v-82.563c0-7.733-6.268-14.072-14-14.072zm-426 83v-55h57.979l.168 55zm326 25h-240v-58h240zm86-25h-57.926l-.008-55h57.934z"></path></g></svg>