<svg width="32" height="32" viewBox="0 0 32 32" fill="none" xmlns="http://www.w3.org/2000/svg">
<path d="M6.99967 4C6.87378 4 6.74865 4.00707 6.62598 4.01953C4.90277 4.19515 3.52816 5.56977 3.35254 7.29297V7.29427C3.34008 7.41694 3.33301 7.54077 3.33301 7.66667V9V24.3333C3.33301 26.3465 4.98649 28 6.99967 28H24.9997C27.0129 28 28.6663 26.3465 28.6663 24.3333V9V7.66667C28.6663 7.54084 28.6594 7.41567 28.6468 7.29297C28.4712 5.56977 27.0953 4.19515 25.3721 4.01953C25.2494 4.00693 25.1255 4 24.9997 4H6.99967ZM6.99967 6C7.55167 6 7.99967 6.448 7.99967 7C7.99967 7.552 7.55167 8 6.99967 8C6.44767 8 5.99967 7.552 5.99967 7C5.99967 6.448 6.44767 6 6.99967 6ZM10.333 6C10.885 6 11.333 6.448 11.333 7C11.333 7.552 10.885 8 10.333 8C9.78101 8 9.33301 7.552 9.33301 7C9.33301 6.448 9.78101 6 10.333 6ZM14.333 6H24.9997C25.5517 6 25.9997 6.448 25.9997 7C25.9997 7.552 25.5517 8 24.9997 8H14.333C13.781 8 13.333 7.552 13.333 7C13.333 6.448 13.781 6 14.333 6ZM5.33301 10H26.6663V24.3333C26.6663 25.2655 25.9318 26 24.9997 26H6.99967C6.06752 26 5.33301 25.2655 5.33301 24.3333V10ZM10.6663 14C9.92967 14 9.33301 14.5967 9.33301 15.3333V16C9.33301 16.7367 9.92967 17.3333 10.6663 17.3333H11.333C12.0697 17.3333 12.6663 16.7367 12.6663 16V15.3333C12.6663 14.5967 12.0697 14 11.333 14H10.6663ZM15.6663 14C15.5743 14 15.4849 14.0096 15.3981 14.0273C14.7904 14.1516 14.333 14.6888 14.333 15.3333V16C14.333 16.7367 14.9297 17.3333 15.6663 17.3333H16.333C17.0697 17.3333 17.6663 16.7367 17.6663 16V15.3333C17.6663 14.5967 17.0697 14 16.333 14H15.6663ZM20.6663 14C20.5743 14 20.4849 14.0096 20.3981 14.0273C19.7904 14.1516 19.333 14.6888 19.333 15.3333V16C19.333 16.7367 19.9297 17.3333 20.6663 17.3333H21.333C22.0697 17.3333 22.6663 16.7367 22.6663 16V15.3333C22.6663 14.5967 22.0697 14 21.333 14H20.6663ZM10.6663 18.6667C9.92967 18.6667 9.33301 19.2633 9.33301 20V20.6667C9.33301 21.4033 9.92967 22 10.6663 22H11.333C12.0697 22 12.6663 21.4033 12.6663 20.6667V20C12.6663 19.2633 12.0697 18.6667 11.333 18.6667H10.6663ZM15.6663 18.6667C14.9297 18.6667 14.333 19.2633 14.333 20V20.6667C14.333 21.4033 14.9297 22 15.6663 22H16.333C17.0697 22 17.6663 21.4033 17.6663 20.6667V20C17.6663 19.2633 17.0697 18.6667 16.333 18.6667H15.6663ZM20.6663 18.6667C19.9297 18.6667 19.333 19.2633 19.333 20V20.6667C19.333 21.4033 19.9297 22 20.6663 22H21.333C22.0697 22 22.6663 21.4033 22.6663 20.6667V20C22.6663 19.2633 22.0697 18.6667 21.333 18.6667H20.6663Z" fill="#1D88DD"/>
</svg>
